<svg width="24" height="24" viewBox="0 0 24 24" fill="none" xmlns="http://www.w3.org/2000/svg">
<path fill-rule="evenodd" clip-rule="evenodd" d="M9.771 5.12323C11.6431 3.01986 14.7432 2.40284 17.292 3.61693C20.6783 5.2302 21.9137 9.3398 20.07 12.5099L15.9225 19.6332C15.6908 20.0314 15.3094 20.3217 14.8621 20.4409C14.4149 20.5599 13.9383 20.4977 13.5371 20.2682L18.5584 11.6424C19.896 9.3416 19.0014 6.35934 16.5463 5.18513C14.7042 4.30415 12.4523 4.74425 11.0914 6.25935C10.3408 7.09109 9.9193 8.16495 9.90525 9.28175C9.8912 10.3986 10.2855 11.4826 11.015 12.3327C11.1461 12.4853 11.2872 12.6291 11.4373 12.7632L8.50588 17.8079C8.39125 18.0051 8.23863 18.178 8.05671 18.3166C7.8748 18.4552 7.66718 18.557 7.4457 18.6159C7.22421 18.6749 6.9932 18.6899 6.76585 18.6602C6.53851 18.6305 6.31929 18.5566 6.12069 18.4428L9.30305 12.966C8.84593 12.3116 8.51765 11.5772 8.33555 10.8015L6.38545 14.1643C6.15364 14.5624 5.77224 14.8528 5.32499 14.9719C4.87774 15.0909 4.4012 15.0287 4 14.7992L9.04295 6.12491C9.25285 5.76869 9.49665 5.43326 9.771 5.12323ZM15.5915 7.88428C16.806 8.5808 17.2255 10.1299 16.5228 11.3354L11.6869 19.6322C11.4551 20.0304 11.0737 20.3208 10.6265 20.4398C10.1792 20.5589 9.70265 20.4967 9.30145 20.2673L13.7917 12.5428C13.4314 12.4675 13.0919 12.3154 12.7966 12.0971C12.5012 11.8788 12.2571 11.5994 12.0811 11.2783C11.9051 10.9572 11.8013 10.602 11.777 10.2371C11.7527 9.8723 11.8084 9.5066 11.9403 9.16525C12.0722 8.8239 12.2771 8.515 12.5409 8.25995C12.8047 8.0049 13.1211 7.80976 13.4683 7.68798C13.8154 7.56619 14.185 7.52068 14.5516 7.55456C14.9182 7.58845 15.273 7.70094 15.5915 7.88428ZM13.8326 9.44355C13.7495 9.5069 13.6797 9.5859 13.6274 9.676C13.5485 9.81175 13.5117 9.96765 13.522 10.1241C13.5323 10.2804 13.5891 10.4303 13.6852 10.5546C13.7813 10.6789 13.9123 10.7721 14.0618 10.8225C14.2112 10.8729 14.3723 10.8781 14.5248 10.8375C14.6772 10.7969 14.8141 10.7124 14.9181 10.5946C15.0222 10.4767 15.0887 10.3309 15.1093 10.1756C15.1299 10.0202 15.1037 9.8622 15.0339 9.72165C14.964 9.5811 14.8538 9.46425 14.7172 9.3859C14.6264 9.33385 14.5263 9.3001 14.4224 9.2865C14.3185 9.27295 14.2129 9.2798 14.1118 9.30675C14.0106 9.3337 13.9157 9.38015 13.8326 9.44355Z" fill="#D8D8D8"/>
</svg>
