<!-- <svg width="1841" height="1260" viewBox="0 0 1841 1260" fill="none" xmlns="http://www.w3.org/2000/svg"> -->
<svg width="full" height="full" viewBox="0 0 1841 1260" fill="none" xmlns="http://www.w3.org/2000/svg">
<path fill-rule="evenodd" clip-rule="evenodd" d="M0 1230V613C0 596.431 13.4315 583 30 583H168H320H453C469.569 583 483 569.569 483 553V377C483 360.431 496.431 347 513 347H584C600.569 347 614 333.569 614 317V287C614 270.431 627.431 257 644 257H722C738.569 257 752 243.569 752 227V143C752 126.431 738.569 113 722 113H380C363.431 113 350 99.5685 350 83V30C350 13.4315 363.431 0 380 0H1811C1827.57 0 1841 13.4315 1841 30V1230C1841 1246.57 1827.57 1260 1811 1260H30C13.4315 1260 0 1246.57 0 1230Z" fill="#181A20"/>
</svg>