<svg width="1841" height="956" viewBox="0 0 1841 956" fill="none" xmlns="http://www.w3.org/2000/svg">
<path fill-rule="evenodd" clip-rule="evenodd" d="M0 30C0 13.4315 13.4315 0 30 0H1811C1827.57 0 1841 13.4315 1841 30V926C1841 942.569 1827.57 956 1811 956H30C13.4315 956 0 942.569 0 926V896C0 879.431 13.4314 866 30 866H469C485.569 866 499 852.569 499 836V669C499 652.431 512.431 639 529 639H652C668.569 639 682 625.569 682 609V580C682 563.431 668.569 550 652 550H469H396H30C13.4315 550 0 536.569 0 520V30ZM977 35C960.431 35 947 48.4315 947 65V363C947 379.569 960.431 393 977 393H1435C1451.57 393 1465 379.569 1465 363V221C1465 204.431 1478.43 191 1495 191H1552C1568.57 191 1582 177.569 1582 161V65C1582 48.4315 1568.57 35 1552 35H1435H1356H977Z" fill="#181A20"/>
</svg>
