<svg width="1841" height="1260" viewBox="0 0 1841 1260" fill="none" xmlns="http://www.w3.org/2000/svg">
<path fill-rule="evenodd" clip-rule="evenodd" d="M0 30C0 13.4315 13.4315 0 30 0H1811C1827.57 0 1841 13.4315 1841 30C1841 45.464 1828.46 58 1813 58H1498H1440H1040C1023.43 58 1010 71.4315 1010 88V579C1010 595.569 1023.43 609 1040 609H1498C1514.57 609 1528 595.569 1528 579V435C1528 418.431 1541.43 405 1558 405H1811C1827.57 405 1841 418.431 1841 435V1230C1841 1246.57 1827.57 1260 1811 1260H30C13.4315 1260 0 1246.57 0 1230V30Z" fill="#181A20"/>
</svg>
