<svg width="1841" height="1090" viewBox="0 0 1841 1090" fill="none" xmlns="http://www.w3.org/2000/svg">
<path fill-rule="evenodd" clip-rule="evenodd" d="M990 30C990 13.4315 976.569 0 960 0H30C13.4315 0 0 13.4314 0 30V979C0 995.569 13.4315 1009 30 1009H1153C1169.57 1009 1183 1022.43 1183 1039V1060C1183 1076.57 1196.43 1090 1213 1090H1811C1827.57 1090 1841 1076.57 1841 1060V109C1841 92.4315 1827.57 79 1811 79H1020C1003.43 79 990 65.5685 990 49V30ZM1291 138C1274.43 138 1261 151.431 1261 168V336C1261 352.569 1274.43 366 1291 366H1707C1723.57 366 1737 352.569 1737 336V168C1737 151.431 1723.57 138 1707 138H1291Z" fill="#181A20"/>
</svg>
