<svg width="104" height="104" viewBox="0 0 104 104" fill="none" xmlns="http://www.w3.org/2000/svg">
<g filter="url(#filter0_d_202_665)">
<path fill-rule="evenodd" clip-rule="evenodd" d="M55.5329 54.0414C54.5999 55.672 54.1333 57.9035 54.1333 60.7356V62.6667H84V80.8C84 82.5673 82.5673 84 80.8 84H23.2C21.4327 84 20 82.5673 20 80.8V23.2C20 21.4327 21.4327 20 23.2 20L61.3423 20C61.2062 20.0805 61.0722 20.1632 60.9405 20.2483C58.4806 21.7931 56.7417 23.7027 55.7238 25.977C54.7059 28.2084 54.197 30.4828 54.197 32.8C54.197 33.272 54.2182 33.6797 54.2606 34.023H62.9763C62.9339 33.6368 62.9127 33.0575 62.9127 32.2851C62.9127 31.5126 63.1671 30.6115 63.6761 29.5816C64.185 28.5517 64.9697 27.672 66.03 26.9425C67.1327 26.1701 68.5111 25.7839 70.1651 25.7839C72.2009 25.7839 73.7278 26.3847 74.7457 27.5862C75.7636 28.7448 76.2725 30.118 76.2725 31.7057C76.2725 33.1218 75.9544 34.495 75.3182 35.8253C74.7245 37.1126 73.6217 38.3785 72.0101 39.623L59.6045 49.4713C57.8656 50.8444 56.5084 52.3678 55.5329 54.0414ZM82.0115 21.7633C82.0503 21.8007 82.0888 21.8383 82.1271 21.8761C82.089 21.838 82.0505 21.8004 82.0115 21.7633ZM84 39.2684C83.0281 40.8738 81.5762 42.4939 79.6443 44.1287C76.9723 46.4031 73.749 48.9778 69.9743 51.8529C69.5502 52.1962 69.02 52.6682 68.3838 53.269C67.7477 53.8697 67.4296 54.2559 67.4296 54.4276H84V39.2684Z" fill="#174EFF"/>
</g>
<defs>
<filter id="filter0_d_202_665" x="0" y="0" width="104" height="104" filterUnits="userSpaceOnUse" color-interpolation-filters="sRGB">
<feFlood flood-opacity="0" result="BackgroundImageFix"/>
<feColorMatrix in="SourceAlpha" type="matrix" values="0 0 0 0 0 0 0 0 0 0 0 0 0 0 0 0 0 0 127 0" result="hardAlpha"/>
<feOffset/>
<feGaussianBlur stdDeviation="10"/>
<feComposite in2="hardAlpha" operator="out"/>
<feColorMatrix type="matrix" values="0 0 0 0 0.43976 0 0 0 0 0 0 0 0 0 1 0 0 0 0.6 0"/>
<feBlend mode="normal" in2="BackgroundImageFix" result="effect1_dropShadow_202_665"/>
<feBlend mode="normal" in="SourceGraphic" in2="effect1_dropShadow_202_665" result="shape"/>
</filter>
</defs>
</svg>
