<svg width="266" height="125" viewBox="0 0 266 125" fill="none" xmlns="http://www.w3.org/2000/svg">
<path d="M16.48 0.559998C17.7867 0.559998 18.9867 0.866665 20.08 1.48C21.1733 2.06667 22.04 2.88 22.68 3.92C23.3467 4.93333 23.68 6.05333 23.68 7.28C23.68 9.14667 23.24 10.5867 22.36 11.6C21.48 12.6133 20.36 13.3067 19 13.68V13.88C20.4667 14.1733 21.72 14.8533 22.76 15.92C23.8 16.9867 24.32 18.5733 24.32 20.68C24.32 22.0133 23.9733 23.24 23.28 24.36C22.6133 25.48 21.6933 26.3733 20.52 27.04C19.3733 27.68 18.1067 28 16.72 28H2.88V0.559998H16.48ZM14.72 11.68C15.52 11.68 16.2267 11.3733 16.84 10.76C17.4533 10.1467 17.76 9.37333 17.76 8.44C17.76 7.32 17.4533 6.52 16.84 6.04C16.2267 5.53333 15.52 5.28 14.72 5.28H8.72V11.68H14.72ZM15.16 23.04C16.04 23.04 16.7867 22.7333 17.4 22.12C18.0133 21.5067 18.32 20.76 18.32 19.88V19.52C18.32 18.64 18.0133 17.8933 17.4 17.28C16.7867 16.6667 16.04 16.36 15.16 16.36H8.72V23.04H15.16ZM50.1413 19.28C50.1413 21.0933 49.7146 22.6933 48.8613 24.08C48.0079 25.4667 46.7946 26.5333 45.2213 27.28C43.6479 28.0267 41.8346 28.4 39.7813 28.4H38.6613C36.6079 28.4 34.7946 28.0267 33.2213 27.28C31.6746 26.5333 30.4746 25.4667 29.6213 24.08C28.7679 22.6933 28.3413 21.0933 28.3413 19.28V0.559998H34.5013V19.16C34.5013 20.4133 34.9413 21.4533 35.8213 22.28C36.7279 23.1067 37.8746 23.52 39.2613 23.52C40.6746 23.52 41.8079 23.12 42.6613 22.32C43.5413 21.4933 43.9813 20.44 43.9813 19.16V0.559998H50.1413V19.28ZM55.5753 0.559998H68.2153V5.48H65.0153V23.08H68.2153V28H55.5753V23.08H58.8153V5.48H55.5753V0.559998ZM74.0128 28V0.559998H80.2128V22.88H91.4928L92.1728 28H74.0128ZM105.741 0.559998C108.008 0.559998 110.061 1.04 111.901 2C113.768 2.96 115.248 4.36 116.341 6.2C117.434 8.04 117.981 10.2133 117.981 12.72V15.84C117.981 18.3467 117.434 20.52 116.341 22.36C115.248 24.2 113.768 25.6 111.901 26.56C110.061 27.52 108.008 28 105.741 28H95.3409V0.559998H105.741ZM101.541 23.08H105.741C107.448 23.08 108.834 22.5333 109.901 21.44C110.968 20.32 111.501 18.7467 111.501 16.72V11.84C111.501 9.81333 110.968 8.25333 109.901 7.16C108.834 6.04 107.448 5.48 105.741 5.48H101.541V23.08ZM29.6 76V55.8H29.4L22.28 76H15.8L8.68 55.8H8.48V76H2.88V48.56H12.84L19.24 66.68H19.4L25.8 48.56H35.76V76H29.6ZM65.0719 64.24C65.0719 66.7467 64.5252 68.92 63.4319 70.76C62.3385 72.6 60.8585 74 58.9919 74.96C57.1519 75.92 55.0985 76.4 52.8319 76.4C50.5652 76.4 48.4985 75.92 46.6319 74.96C44.7919 74 43.3252 72.6 42.2319 70.76C41.1385 68.92 40.5919 66.7467 40.5919 64.24V60.32C40.5919 57.8133 41.1385 55.64 42.2319 53.8C43.3252 51.96 44.7919 50.56 46.6319 49.6C48.4985 48.64 50.5652 48.16 52.8319 48.16C55.0985 48.16 57.1519 48.64 58.9919 49.6C60.8585 50.56 62.3385 51.96 63.4319 53.8C64.5252 55.64 65.0719 57.8133 65.0719 60.32V64.24ZM58.5919 59.44C58.5919 57.4133 58.0585 55.8533 56.9919 54.76C55.9252 53.64 54.5385 53.08 52.8319 53.08C51.1252 53.08 49.7385 53.64 48.6719 54.76C47.6052 55.8533 47.0719 57.4133 47.0719 59.44V65.12C47.0719 67.1467 47.6052 68.72 48.6719 69.84C49.7385 70.9333 51.1252 71.48 52.8319 71.48C54.5385 71.48 55.9252 70.9333 56.9919 69.84C58.0585 68.72 58.5919 67.1467 58.5919 65.12V59.44ZM96.5922 76V55.8H96.3922L89.2722 76H82.7922L75.6722 55.8H75.4722V76H69.8722V48.56H79.8322L86.2322 66.68H86.3922L92.7922 48.56H102.752V76H96.5922ZM108.544 76V48.56H127.864L127.184 53.48H114.624V59.48H126.344V64.4H114.624V71.08H127.304L127.984 76H108.544ZM140.45 63.36C140.157 62.9333 139.757 62.3067 139.25 61.48C138.744 60.6267 138.41 60.0667 138.25 59.8L138.09 59.92V76H132.45V48.56H137.69L146.33 61.28L147.53 63.16C147.957 63.9067 148.29 64.4533 148.53 64.8L148.65 64.68V48.56H154.29V76H149.05L140.45 63.36ZM171.427 53.52V76H165.307V53.52H157.507V48.56H179.187V53.52H171.427ZM203.852 67.28C203.852 69.0933 203.426 70.6933 202.572 72.08C201.719 73.4667 200.506 74.5333 198.932 75.28C197.359 76.0267 195.546 76.4 193.492 76.4H192.372C190.319 76.4 188.506 76.0267 186.932 75.28C185.386 74.5333 184.186 73.4667 183.332 72.08C182.479 70.6933 182.052 69.0933 182.052 67.28V48.56H188.212V67.16C188.212 68.4133 188.652 69.4533 189.532 70.28C190.439 71.1067 191.586 71.52 192.972 71.52C194.386 71.52 195.519 71.12 196.372 70.32C197.252 69.4933 197.692 68.44 197.692 67.16V48.56H203.852V67.28ZM236.006 76V55.8H235.806L228.686 76H222.206L215.086 55.8H214.886V76H209.286V48.56H219.246L225.646 66.68H225.806L232.206 48.56H242.166V76H236.006ZM14.8 124H7.96L0.28 96.56H6.72L11.56 114.52H11.76L16.64 96.56H22.84L27.68 114.52H27.88L32.72 96.56H38.56L30.84 124H24.08L19.6 107.52H19.36L14.8 124ZM41.7472 96.56H54.3872V101.48H51.1872V119.08H54.3872V124H41.7472V119.08H44.9872V101.48H41.7472V96.56ZM71.5047 101.52V124H65.3847V101.52H57.5847V96.56H79.2647V101.52H71.5047ZM98.1303 124V112.56H88.6503V124H82.4503V96.56H88.6103V107.44H98.1303V96.56H104.29V124H98.1303ZM124.416 113.12C124.416 115.147 124.962 116.72 126.056 117.84C127.149 118.933 128.536 119.48 130.216 119.48C132.109 119.48 133.509 118.973 134.416 117.96C135.322 116.92 135.776 115.333 135.776 113.2H141.416C141.416 115.547 140.936 117.573 139.976 119.28C139.042 120.96 137.749 122.24 136.096 123.12C134.442 123.973 132.576 124.4 130.496 124.4H129.936C127.642 124.4 125.589 123.933 123.776 123C121.962 122.067 120.536 120.693 119.496 118.88C118.456 117.04 117.936 114.827 117.936 112.24V108.32C117.936 105.813 118.456 103.64 119.496 101.8C120.536 99.96 121.949 98.56 123.736 97.6C125.549 96.64 127.562 96.16 129.776 96.16H130.336C132.469 96.16 134.362 96.5867 136.016 97.44C137.696 98.2667 139.016 99.5333 139.976 101.24C140.936 102.92 141.416 104.987 141.416 107.44H135.536C135.536 105.36 135.069 103.787 134.136 102.72C133.229 101.627 131.909 101.08 130.176 101.08C128.496 101.08 127.109 101.64 126.016 102.76C124.949 103.853 124.416 105.413 124.416 107.44V113.12ZM159.16 113.48V124H153V113.48L143.6 96.56H150.56L156.28 107.44H156.48L162.2 96.56H168.52L159.16 113.48ZM177.189 113.12C177.189 115.147 177.736 116.72 178.829 117.84C179.922 118.933 181.309 119.48 182.989 119.48C184.882 119.48 186.282 118.973 187.189 117.96C188.096 116.92 188.549 115.333 188.549 113.2H194.189C194.189 115.547 193.709 117.573 192.749 119.28C191.816 120.96 190.522 122.24 188.869 123.12C187.216 123.973 185.349 124.4 183.269 124.4H182.709C180.416 124.4 178.362 123.933 176.549 123C174.736 122.067 173.309 120.693 172.269 118.88C171.229 117.04 170.709 114.827 170.709 112.24V108.32C170.709 105.813 171.229 103.64 172.269 101.8C173.309 99.96 174.722 98.56 176.509 97.6C178.322 96.64 180.336 96.16 182.549 96.16H183.109C185.242 96.16 187.136 96.5867 188.789 97.44C190.469 98.2667 191.789 99.5333 192.749 101.24C193.709 102.92 194.189 104.987 194.189 107.44H188.309C188.309 105.36 187.842 103.787 186.909 102.72C186.002 101.627 184.682 101.08 182.949 101.08C181.269 101.08 179.882 101.64 178.789 102.76C177.722 103.853 177.189 105.413 177.189 107.44V113.12ZM198.974 124V96.56H205.174V118.88H216.454L217.134 124H198.974ZM220.302 124V96.56H239.622L238.942 101.48H226.382V107.48H238.102V112.4H226.382V119.08H239.062L239.742 124H220.302ZM258.728 104.32C258.728 103.307 258.328 102.52 257.528 101.96C256.728 101.373 255.621 101.08 254.208 101.08C252.741 101.08 251.595 101.32 250.768 101.8C249.968 102.253 249.568 102.867 249.568 103.64C249.568 104.307 249.821 104.867 250.328 105.32C250.835 105.747 251.475 106.093 252.248 106.36C253.048 106.627 254.128 106.92 255.488 107.24C257.488 107.72 259.128 108.213 260.408 108.72C261.715 109.227 262.821 110.013 263.728 111.08C264.661 112.147 265.128 113.573 265.128 115.36C265.128 118.48 264.115 120.773 262.088 122.24C260.088 123.68 257.328 124.4 253.808 124.4C250.608 124.4 247.955 123.707 245.848 122.32C243.768 120.907 242.728 118.773 242.728 115.92L242.768 115.04H248.608L248.568 115.68C248.568 116.853 249.008 117.787 249.888 118.48C250.768 119.147 252.008 119.48 253.608 119.48C255.475 119.48 256.808 119.187 257.608 118.6C258.435 118.013 258.848 117.267 258.848 116.36C258.848 115.667 258.595 115.107 258.088 114.68C257.608 114.227 256.981 113.88 256.208 113.64C255.461 113.373 254.408 113.08 253.048 112.76C251.021 112.253 249.368 111.747 248.088 111.24C246.808 110.733 245.701 109.92 244.768 108.8C243.835 107.68 243.368 106.173 243.368 104.28C243.368 102.52 243.848 101.027 244.808 99.8C245.768 98.5733 247.048 97.6667 248.648 97.08C250.275 96.4667 252.088 96.16 254.088 96.16C257.155 96.16 259.661 96.84 261.608 98.2C263.555 99.5333 264.528 101.533 264.528 104.2V104.68H258.728V104.32Z" fill="#D8D8D8"/>
</svg>
