<svg width="375" height="276" viewBox="0 0 375 276" fill="none" xmlns="http://www.w3.org/2000/svg">
<g filter="url(#filter0_dd_264_210)">
<rect x="16" y="10" width="343" height="176" rx="10" fill="#0C0C0C" shape-rendering="crispEdges"/>
<path d="M39.36 57.648C39.36 58.4587 39.5787 59.088 40.016 59.536C40.4533 59.9733 41.008 60.192 41.68 60.192C42.4373 60.192 42.9973 59.9893 43.36 59.584C43.7227 59.168 43.904 58.5333 43.904 57.68H46.16C46.16 58.6187 45.968 59.4293 45.584 60.112C45.2107 60.784 44.6933 61.296 44.032 61.648C43.3707 61.9893 42.624 62.16 41.792 62.16H41.568C40.6507 62.16 39.8293 61.9733 39.104 61.6C38.3787 61.2267 37.808 60.6773 37.392 59.952C36.976 59.216 36.768 58.3307 36.768 57.296V55.728C36.768 54.7253 36.976 53.856 37.392 53.12C37.808 52.384 38.3733 51.824 39.088 51.44C39.8133 51.056 40.6187 50.864 41.504 50.864H41.728C42.5813 50.864 43.3387 51.0347 44 51.376C44.672 51.7067 45.2 52.2133 45.584 52.896C45.968 53.568 46.16 54.3947 46.16 55.376H43.808C43.808 54.544 43.6213 53.9147 43.248 53.488C42.8853 53.0507 42.3573 52.832 41.664 52.832C40.992 52.832 40.4373 53.056 40 53.504C39.5733 53.9413 39.36 54.5653 39.36 55.376V57.648ZM52.4899 61.552C52.0952 62.6187 51.6099 63.456 51.0339 64.064C50.4579 64.6827 49.7645 64.992 48.9539 64.992C48.3885 64.992 47.9299 64.912 47.5779 64.752V63.104C47.7059 63.1573 47.8712 63.2053 48.0739 63.248C48.2765 63.3013 48.4685 63.328 48.6499 63.328C49.3325 63.328 49.8179 62.832 50.1059 61.84L47.0179 53.824H49.4979L51.3059 58.96H51.4019L53.0979 53.824H55.4019L52.4899 61.552ZM58.3216 58.688C58.3216 59.2213 58.4603 59.6693 58.7376 60.032C59.015 60.384 59.3883 60.56 59.8576 60.56C60.3483 60.56 60.7323 60.4107 61.0096 60.112C61.2976 59.8027 61.4416 59.3493 61.4416 58.752H63.6496C63.6496 59.5093 63.4843 60.144 63.1536 60.656C62.8336 61.168 62.407 61.5467 61.8736 61.792C61.3403 62.0373 60.7536 62.16 60.1136 62.16H59.8576C58.663 62.16 57.7136 61.808 57.0096 61.104C56.3056 60.3893 55.9536 59.4027 55.9536 58.144V57.68C55.9536 56.848 56.119 56.1333 56.4496 55.536C56.791 54.928 57.255 54.464 57.8416 54.144C58.4283 53.824 59.1003 53.664 59.8576 53.664H60.1136C60.743 53.664 61.3243 53.8027 61.8576 54.08C62.4016 54.3467 62.8336 54.7413 63.1536 55.264C63.4843 55.776 63.6496 56.384 63.6496 57.088H61.3296C61.3296 56.5333 61.207 56.0907 60.9616 55.76C60.7163 55.4293 60.3536 55.264 59.8736 55.264C59.3936 55.264 59.015 55.456 58.7376 55.84C58.4603 56.2133 58.3216 56.688 58.3216 57.264V58.688ZM65.3997 62V50.48H67.7358V62H65.3997ZM77.4525 58.944C77.4525 59.6587 77.2818 60.2613 76.9405 60.752C76.5992 61.232 76.1458 61.5893 75.5805 61.824C75.0258 62.048 74.4178 62.16 73.7565 62.16H73.5005C72.7432 62.16 72.0605 62 71.4525 61.68C70.8445 61.36 70.3645 60.9013 70.0125 60.304C69.6712 59.696 69.5005 58.976 69.5005 58.144V57.68C69.5005 56.8587 69.6765 56.144 70.0285 55.536C70.3805 54.928 70.8552 54.464 71.4525 54.144C72.0605 53.824 72.7432 53.664 73.5005 53.664H73.7565C74.4178 53.664 75.0312 53.8027 75.5965 54.08C76.1618 54.3467 76.6152 54.7413 76.9565 55.264C77.2978 55.776 77.4685 56.384 77.4685 57.088V58.304H71.8685V58.688C71.8685 59.2213 72.0232 59.6693 72.3325 60.032C72.6525 60.384 73.0845 60.56 73.6285 60.56C74.1192 60.56 74.5032 60.4267 74.7805 60.16C75.0685 59.8827 75.2125 59.4773 75.2125 58.944H77.4525ZM73.5165 55.264C73.0472 55.264 72.6632 55.4293 72.3645 55.76C72.0765 56.0907 71.9112 56.512 71.8685 57.024H75.1005C75.1005 56.48 74.9725 56.0533 74.7165 55.744C74.4712 55.424 74.0712 55.264 73.5165 55.264ZM80.6843 59.504C80.6843 59.8773 80.8496 60.1493 81.1803 60.32C81.5109 60.48 81.9216 60.56 82.4123 60.56C82.8389 60.56 83.2176 60.496 83.5483 60.368C83.8896 60.24 84.0603 60.0373 84.0603 59.76C84.0603 59.4613 83.9056 59.248 83.5963 59.12C83.2869 58.992 82.8069 58.88 82.1562 58.784C81.4736 58.6667 80.9136 58.5387 80.4763 58.4C80.0389 58.2613 79.6603 58.0213 79.3403 57.68C79.0309 57.3387 78.8763 56.864 78.8763 56.256C78.8763 55.7013 79.0363 55.232 79.3563 54.848C79.6869 54.4533 80.1189 54.16 80.6523 53.968C81.1963 53.7653 81.7883 53.664 82.4283 53.664H82.7483C83.3136 53.664 83.8469 53.76 84.3483 53.952C84.8603 54.1333 85.2709 54.3947 85.5803 54.736C85.8896 55.0667 86.0443 55.4453 86.0443 55.872C86.0443 55.9573 86.0389 56.0373 86.0283 56.112C86.0176 56.176 86.0123 56.2133 86.0123 56.224H83.9643C83.9643 55.584 83.4736 55.264 82.4923 55.264C82.0443 55.264 81.6816 55.328 81.4043 55.456C81.1376 55.584 81.0043 55.76 81.0043 55.984C81.0043 56.2507 81.1483 56.4373 81.4363 56.544C81.7349 56.6507 82.1989 56.752 82.8283 56.848C83.5429 56.9653 84.1189 57.0933 84.5563 57.232C85.0043 57.36 85.3936 57.6 85.7243 57.952C86.0549 58.2933 86.2203 58.7787 86.2203 59.408C86.2203 60.3787 85.8789 61.0827 85.1963 61.52C84.5136 61.9467 83.6443 62.16 82.5883 62.16H82.0603C81.3989 62.16 80.8069 62.0587 80.2843 61.856C79.7616 61.6533 79.3509 61.3653 79.0523 60.992C78.7643 60.6187 78.6203 60.192 78.6203 59.712L78.6363 59.392H80.6843V59.504ZM95.8969 52.112C95.7582 52.0693 95.5875 52.032 95.3849 52C95.1822 51.9573 95.0222 51.936 94.9049 51.936C94.6489 51.936 94.4302 52 94.2489 52.128C94.0782 52.256 93.9929 52.512 93.9929 52.896V53.824H95.8969V55.424H93.9929V62H91.6569V55.424H90.6969V53.824H91.6569V52.752C91.6569 51.152 92.4782 50.352 94.1209 50.352C94.3875 50.352 94.6969 50.384 95.0489 50.448C95.4009 50.512 95.6835 50.592 95.8969 50.688V52.112ZM105.053 58.144C105.053 58.9653 104.877 59.68 104.525 60.288C104.184 60.896 103.709 61.36 103.101 61.68C102.493 62 101.811 62.16 101.053 62.16H100.797C100.04 62.16 99.3574 62 98.7494 61.68C98.1414 61.36 97.6614 60.896 97.3094 60.288C96.968 59.68 96.7974 58.9653 96.7974 58.144V57.68C96.7974 56.8587 96.968 56.144 97.3094 55.536C97.6614 54.928 98.1414 54.464 98.7494 54.144C99.3574 53.824 100.04 53.664 100.797 53.664H101.053C101.811 53.664 102.493 53.824 103.101 54.144C103.709 54.464 104.184 54.928 104.525 55.536C104.877 56.144 105.053 56.8587 105.053 57.68V58.144ZM102.685 57.264C102.685 56.6133 102.52 56.1173 102.189 55.776C101.869 55.4347 101.448 55.264 100.925 55.264C100.403 55.264 99.976 55.4347 99.6454 55.776C99.3254 56.1173 99.1654 56.6133 99.1654 57.264V58.56C99.1654 59.2107 99.3254 59.7067 99.6454 60.048C99.976 60.3893 100.403 60.56 100.925 60.56C101.448 60.56 101.869 60.3893 102.189 60.048C102.52 59.7067 102.685 59.2107 102.685 58.56V57.264ZM108.79 58.688C108.79 59.2213 108.929 59.6693 109.206 60.032C109.484 60.384 109.857 60.56 110.326 60.56C110.817 60.56 111.201 60.4107 111.478 60.112C111.766 59.8027 111.91 59.3493 111.91 58.752H114.118C114.118 59.5093 113.953 60.144 113.622 60.656C113.302 61.168 112.876 61.5467 112.342 61.792C111.809 62.0373 111.222 62.16 110.582 62.16H110.326C109.132 62.16 108.182 61.808 107.478 61.104C106.774 60.3893 106.422 59.4027 106.422 58.144V57.68C106.422 56.848 106.588 56.1333 106.918 55.536C107.26 54.928 107.724 54.464 108.31 54.144C108.897 53.824 109.569 53.664 110.326 53.664H110.582C111.212 53.664 111.793 53.8027 112.326 54.08C112.87 54.3467 113.302 54.7413 113.622 55.264C113.953 55.776 114.118 56.384 114.118 57.088H111.798C111.798 56.5333 111.676 56.0907 111.43 55.76C111.185 55.4293 110.822 55.264 110.342 55.264C109.862 55.264 109.484 55.456 109.206 55.84C108.929 56.2133 108.79 56.688 108.79 57.264V58.688ZM123.309 60.08C123.309 60.24 123.357 60.3627 123.453 60.448C123.549 60.5227 123.655 60.56 123.773 60.56C123.879 60.56 123.997 60.5387 124.125 60.496C124.253 60.4533 124.354 60.416 124.429 60.384V61.824C124.034 62.048 123.565 62.16 123.021 62.16C121.954 62.16 121.335 61.7707 121.165 60.992C120.493 61.7707 119.671 62.16 118.701 62.16C117.869 62.16 117.181 61.936 116.637 61.488C116.103 61.04 115.837 60.3893 115.837 59.536V53.824H118.173V59.024C118.173 59.44 118.29 59.7867 118.525 60.064C118.77 60.3307 119.079 60.464 119.453 60.464C119.869 60.464 120.226 60.3093 120.525 60C120.823 59.68 120.973 59.296 120.973 58.848V53.824H123.309V60.08ZM127.137 59.504C127.137 59.8773 127.303 60.1493 127.633 60.32C127.964 60.48 128.375 60.56 128.865 60.56C129.292 60.56 129.671 60.496 130.001 60.368C130.343 60.24 130.513 60.0373 130.513 59.76C130.513 59.4613 130.359 59.248 130.049 59.12C129.74 58.992 129.26 58.88 128.609 58.784C127.927 58.6667 127.367 58.5387 126.929 58.4C126.492 58.2613 126.113 58.0213 125.793 57.68C125.484 57.3387 125.329 56.864 125.329 56.256C125.329 55.7013 125.489 55.232 125.809 54.848C126.14 54.4533 126.572 54.16 127.105 53.968C127.649 53.7653 128.241 53.664 128.881 53.664H129.201C129.767 53.664 130.3 53.76 130.801 53.952C131.313 54.1333 131.724 54.3947 132.033 54.736C132.343 55.0667 132.497 55.4453 132.497 55.872C132.497 55.9573 132.492 56.0373 132.481 56.112C132.471 56.176 132.465 56.2133 132.465 56.224H130.417C130.417 55.584 129.927 55.264 128.945 55.264C128.497 55.264 128.135 55.328 127.857 55.456C127.591 55.584 127.457 55.76 127.457 55.984C127.457 56.2507 127.601 56.4373 127.889 56.544C128.188 56.6507 128.652 56.752 129.281 56.848C129.996 56.9653 130.572 57.0933 131.009 57.232C131.457 57.36 131.847 57.6 132.177 57.952C132.508 58.2933 132.673 58.7787 132.673 59.408C132.673 60.3787 132.332 61.0827 131.649 61.52C130.967 61.9467 130.097 62.16 129.041 62.16H128.513C127.852 62.16 127.26 62.0587 126.737 61.856C126.215 61.6533 125.804 61.3653 125.505 60.992C125.217 60.6187 125.073 60.192 125.073 59.712L125.089 59.392H127.137V59.504ZM142.318 61.552C141.923 62.6187 141.438 63.456 140.862 64.064C140.286 64.6827 139.593 64.992 138.782 64.992C138.217 64.992 137.758 64.912 137.406 64.752V63.104C137.534 63.1573 137.699 63.2053 137.902 63.248C138.105 63.3013 138.297 63.328 138.478 63.328C139.161 63.328 139.646 62.832 139.934 61.84L136.846 53.824H139.326L141.134 58.96H141.23L142.926 53.824H145.23L142.318 61.552ZM154.272 58.144C154.272 58.9653 154.096 59.68 153.744 60.288C153.403 60.896 152.928 61.36 152.32 61.68C151.712 62 151.029 62.16 150.272 62.16H150.016C149.259 62.16 148.576 62 147.968 61.68C147.36 61.36 146.88 60.896 146.528 60.288C146.187 59.68 146.016 58.9653 146.016 58.144V57.68C146.016 56.8587 146.187 56.144 146.528 55.536C146.88 54.928 147.36 54.464 147.968 54.144C148.576 53.824 149.259 53.664 150.016 53.664H150.272C151.029 53.664 151.712 53.824 152.32 54.144C152.928 54.464 153.403 54.928 153.744 55.536C154.096 56.144 154.272 56.8587 154.272 57.68V58.144ZM151.904 57.264C151.904 56.6133 151.739 56.1173 151.408 55.776C151.088 55.4347 150.667 55.264 150.144 55.264C149.621 55.264 149.195 55.4347 148.864 55.776C148.544 56.1173 148.384 56.6133 148.384 57.264V58.56C148.384 59.2107 148.544 59.7067 148.864 60.048C149.195 60.3893 149.621 60.56 150.144 60.56C150.667 60.56 151.088 60.3893 151.408 60.048C151.739 59.7067 151.904 59.2107 151.904 58.56V57.264ZM163.449 60.08C163.449 60.24 163.497 60.3627 163.593 60.448C163.689 60.5227 163.796 60.56 163.913 60.56C164.02 60.56 164.137 60.5387 164.265 60.496C164.393 60.4533 164.494 60.416 164.569 60.384V61.824C164.174 62.048 163.705 62.16 163.161 62.16C162.094 62.16 161.476 61.7707 161.305 60.992C160.633 61.7707 159.812 62.16 158.841 62.16C158.009 62.16 157.321 61.936 156.777 61.488C156.244 61.04 155.977 60.3893 155.977 59.536V53.824H158.313V59.024C158.313 59.44 158.43 59.7867 158.665 60.064C158.91 60.3307 159.22 60.464 159.593 60.464C160.009 60.464 160.366 60.3093 160.665 60C160.964 59.68 161.113 59.296 161.113 58.848V53.824H163.449V60.08ZM170.398 56.624C170.398 56.2933 170.307 56.0107 170.126 55.776C169.945 55.5307 169.657 55.408 169.262 55.408C168.889 55.408 168.601 55.5573 168.398 55.856C168.206 56.144 168.11 56.5067 168.11 56.944V62H165.806V53.824H167.534L167.822 55.024C167.865 54.9067 167.971 54.7413 168.142 54.528C168.323 54.3147 168.579 54.1173 168.91 53.936C169.251 53.7547 169.651 53.664 170.11 53.664C170.846 53.664 171.411 53.8933 171.806 54.352C172.211 54.8107 172.414 55.4187 172.414 56.176C172.414 56.336 172.403 56.496 172.382 56.656C172.371 56.816 172.361 56.928 172.35 56.992H170.398V56.624ZM181.582 61.856C181.368 61.9413 181.086 62.0107 180.734 62.064C180.392 62.128 180.088 62.16 179.822 62.16C179 62.16 178.382 61.984 177.966 61.632C177.55 61.28 177.342 60.6933 177.342 59.872V55.424H176.446V53.824H177.422L178.238 51.216H179.678V53.824H181.582V55.424H179.678V59.472C179.678 59.8987 179.758 60.1867 179.918 60.336C180.088 60.4853 180.312 60.56 180.59 60.56C180.718 60.56 180.883 60.5387 181.086 60.496C181.288 60.4533 181.454 60.4053 181.582 60.352V61.856ZM190.671 58.944C190.671 59.6587 190.501 60.2613 190.159 60.752C189.818 61.232 189.365 61.5893 188.799 61.824C188.245 62.048 187.637 62.16 186.975 62.16H186.719C185.962 62.16 185.279 62 184.671 61.68C184.063 61.36 183.583 60.9013 183.231 60.304C182.89 59.696 182.719 58.976 182.719 58.144V57.68C182.719 56.8587 182.895 56.144 183.247 55.536C183.599 54.928 184.074 54.464 184.671 54.144C185.279 53.824 185.962 53.664 186.719 53.664H186.975C187.637 53.664 188.25 53.8027 188.815 54.08C189.381 54.3467 189.834 54.7413 190.175 55.264C190.517 55.776 190.687 56.384 190.687 57.088V58.304H185.087V58.688C185.087 59.2213 185.242 59.6693 185.551 60.032C185.871 60.384 186.303 60.56 186.847 60.56C187.338 60.56 187.722 60.4267 187.999 60.16C188.287 59.8827 188.431 59.4773 188.431 58.944H190.671ZM186.735 55.264C186.266 55.264 185.882 55.4293 185.583 55.76C185.295 56.0907 185.13 56.512 185.087 57.024H188.319C188.319 56.48 188.191 56.0533 187.935 55.744C187.69 55.424 187.29 55.264 186.735 55.264ZM197.439 56.48C197.439 56.1173 197.322 55.824 197.087 55.6C196.863 55.376 196.495 55.264 195.983 55.264C195.684 55.264 195.428 55.3173 195.215 55.424C195.002 55.52 194.836 55.6427 194.719 55.792C194.612 55.9413 194.559 56.08 194.559 56.208V56.336H192.303C192.282 56.208 192.271 56.112 192.271 56.048C192.271 55.5893 192.42 55.1787 192.719 54.816C193.028 54.4533 193.455 54.1707 193.999 53.968C194.543 53.7653 195.167 53.664 195.871 53.664H196.207C197.359 53.664 198.234 53.8933 198.831 54.352C199.428 54.8 199.727 55.4187 199.727 56.208V59.984C199.727 60.176 199.77 60.32 199.855 60.416C199.951 60.512 200.063 60.56 200.191 60.56C200.298 60.56 200.415 60.5387 200.543 60.496C200.671 60.4533 200.772 60.416 200.847 60.384V61.824C200.452 62.048 199.983 62.16 199.439 62.16C198.852 62.16 198.404 62.0427 198.095 61.808C197.786 61.5627 197.604 61.2213 197.551 60.784C196.804 61.7013 195.887 62.16 194.799 62.16C193.988 62.16 193.322 61.9947 192.799 61.664C192.276 61.3333 192.015 60.704 192.015 59.776C192.015 59.0187 192.228 58.4427 192.655 58.048C193.092 57.6427 193.695 57.3707 194.463 57.232C195.231 57.0933 196.223 57.024 197.439 57.024V56.48ZM197.439 58.336C196.426 58.336 195.668 58.4373 195.167 58.64C194.676 58.832 194.431 59.152 194.431 59.6C194.431 59.952 194.527 60.2027 194.719 60.352C194.922 60.4907 195.226 60.56 195.631 60.56C195.908 60.56 196.186 60.4853 196.463 60.336C196.74 60.1867 196.97 59.9733 197.151 59.696C197.343 59.4187 197.439 59.1093 197.439 58.768V58.336ZM206.41 53.664C206.932 53.664 207.402 53.776 207.818 54C208.234 54.224 208.554 54.5493 208.778 54.976C209.332 54.1013 210.127 53.664 211.162 53.664C211.93 53.664 212.564 53.8987 213.066 54.368C213.578 54.8267 213.834 55.4667 213.834 56.288V62H211.498V56.752C211.498 56.304 211.402 55.9627 211.21 55.728C211.018 55.4827 210.751 55.36 210.41 55.36C210.036 55.36 209.722 55.5093 209.466 55.808C209.21 56.1067 209.082 56.48 209.082 56.928V62H206.746V56.752C206.746 56.3147 206.644 55.9733 206.442 55.728C206.25 55.4827 205.983 55.36 205.641 55.36C205.268 55.36 204.954 55.5093 204.698 55.808C204.452 56.1067 204.33 56.48 204.33 56.928V62H201.993V53.824H203.754C203.818 54.0907 203.903 54.4907 204.01 55.024C204.298 54.5653 204.644 54.224 205.049 54C205.466 53.776 205.919 53.664 206.41 53.664ZM227.319 58.144C227.319 58.9653 227.143 59.68 226.791 60.288C226.45 60.896 225.975 61.36 225.367 61.68C224.759 62 224.076 62.16 223.319 62.16H223.063C222.306 62.16 221.623 62 221.015 61.68C220.407 61.36 219.927 60.896 219.575 60.288C219.234 59.68 219.063 58.9653 219.063 58.144V57.68C219.063 56.8587 219.234 56.144 219.575 55.536C219.927 54.928 220.407 54.464 221.015 54.144C221.623 53.824 222.306 53.664 223.063 53.664H223.319C224.076 53.664 224.759 53.824 225.367 54.144C225.975 54.464 226.45 54.928 226.791 55.536C227.143 56.144 227.319 56.8587 227.319 57.68V58.144ZM224.951 57.264C224.951 56.6133 224.786 56.1173 224.455 55.776C224.135 55.4347 223.714 55.264 223.191 55.264C222.668 55.264 222.242 55.4347 221.911 55.776C221.591 56.1173 221.431 56.6133 221.431 57.264V58.56C221.431 59.2107 221.591 59.7067 221.911 60.048C222.242 60.3893 222.668 60.56 223.191 60.56C223.714 60.56 224.135 60.3893 224.455 60.048C224.786 59.7067 224.951 59.2107 224.951 58.56V57.264ZM231.056 55.024C231.728 54.1173 232.597 53.664 233.664 53.664C234.496 53.664 235.179 53.888 235.712 54.336C236.256 54.784 236.528 55.4347 236.528 56.288V62H234.192V56.8C234.192 56.384 234.069 56.0427 233.824 55.776C233.589 55.4987 233.285 55.36 232.912 55.36C232.496 55.36 232.139 55.52 231.84 55.84C231.541 56.1493 231.392 56.528 231.392 56.976V62H229.056V53.824H230.8L231.056 55.024ZM247.575 57.44C246.999 59.4667 246.561 60.9867 246.263 62H243.655L241.159 53.824H243.575L244.983 58.88H245.079C245.356 57.8987 245.569 57.1627 245.719 56.672L246.535 53.824H248.871L250.295 58.88H250.391C251.031 56.64 251.505 54.9547 251.815 53.824H254.087L251.591 62H249.015L247.671 57.44H247.575ZM257.58 54.624C258.198 53.984 258.956 53.664 259.852 53.664C260.684 53.664 261.366 53.888 261.9 54.336C262.444 54.784 262.716 55.4347 262.716 56.288V62H260.38V56.8C260.38 56.384 260.257 56.0427 260.012 55.776C259.777 55.4987 259.473 55.36 259.1 55.36C258.684 55.36 258.326 55.52 258.028 55.84C257.729 56.1493 257.58 56.528 257.58 56.976V62H255.243V50.48H257.58V54.624ZM269.814 56.48C269.814 56.1173 269.697 55.824 269.462 55.6C269.238 55.376 268.87 55.264 268.358 55.264C268.059 55.264 267.803 55.3173 267.59 55.424C267.377 55.52 267.211 55.6427 267.094 55.792C266.987 55.9413 266.934 56.08 266.934 56.208V56.336H264.678C264.657 56.208 264.646 56.112 264.646 56.048C264.646 55.5893 264.795 55.1787 265.094 54.816C265.403 54.4533 265.83 54.1707 266.374 53.968C266.918 53.7653 267.542 53.664 268.246 53.664H268.582C269.734 53.664 270.609 53.8933 271.206 54.352C271.803 54.8 272.102 55.4187 272.102 56.208V59.984C272.102 60.176 272.145 60.32 272.23 60.416C272.326 60.512 272.438 60.56 272.566 60.56C272.673 60.56 272.79 60.5387 272.918 60.496C273.046 60.4533 273.147 60.416 273.222 60.384V61.824C272.827 62.048 272.358 62.16 271.814 62.16C271.227 62.16 270.779 62.0427 270.47 61.808C270.161 61.5627 269.979 61.2213 269.926 60.784C269.179 61.7013 268.262 62.16 267.174 62.16C266.363 62.16 265.697 61.9947 265.174 61.664C264.651 61.3333 264.39 60.704 264.39 59.776C264.39 59.0187 264.603 58.4427 265.03 58.048C265.467 57.6427 266.07 57.3707 266.838 57.232C267.606 57.0933 268.598 57.024 269.814 57.024V56.48ZM269.814 58.336C268.801 58.336 268.043 58.4373 267.542 58.64C267.051 58.832 266.806 59.152 266.806 59.6C266.806 59.952 266.902 60.2027 267.094 60.352C267.297 60.4907 267.601 60.56 268.006 60.56C268.283 60.56 268.561 60.4853 268.838 60.336C269.115 60.1867 269.345 59.9733 269.526 59.696C269.718 59.4187 269.814 59.1093 269.814 58.768V58.336ZM278.801 61.856C278.587 61.9413 278.305 62.0107 277.953 62.064C277.611 62.128 277.307 62.16 277.041 62.16C276.219 62.16 275.601 61.984 275.185 61.632C274.769 61.28 274.561 60.6933 274.561 59.872V55.424H273.665V53.824H274.641L275.457 51.216H276.897V53.824H278.801V55.424H276.897V59.472C276.897 59.8987 276.977 60.1867 277.137 60.336C277.307 60.4853 277.531 60.56 277.809 60.56C277.937 60.56 278.102 60.5387 278.305 60.496C278.507 60.4533 278.673 60.4053 278.801 60.352V61.856ZM289.278 57.44C288.702 59.4667 288.264 60.9867 287.966 62H285.358L282.862 53.824H285.278L286.686 58.88H286.782C287.059 57.8987 287.272 57.1627 287.422 56.672L288.238 53.824H290.574L291.998 58.88H292.094C292.734 56.64 293.208 54.9547 293.518 53.824H295.79L293.294 62H290.718L289.374 57.44H289.278ZM304.835 58.144C304.835 58.9653 304.659 59.68 304.307 60.288C303.965 60.896 303.491 61.36 302.883 61.68C302.275 62 301.592 62.16 300.835 62.16H300.579C299.821 62.16 299.139 62 298.531 61.68C297.923 61.36 297.443 60.896 297.091 60.288C296.749 59.68 296.579 58.9653 296.579 58.144V57.68C296.579 56.8587 296.749 56.144 297.091 55.536C297.443 54.928 297.923 54.464 298.531 54.144C299.139 53.824 299.821 53.664 300.579 53.664H300.835C301.592 53.664 302.275 53.824 302.883 54.144C303.491 54.464 303.965 54.928 304.307 55.536C304.659 56.144 304.835 56.8587 304.835 57.68V58.144ZM302.467 57.264C302.467 56.6133 302.301 56.1173 301.971 55.776C301.651 55.4347 301.229 55.264 300.707 55.264C300.184 55.264 299.757 55.4347 299.427 55.776C299.107 56.1173 298.947 56.6133 298.947 57.264V58.56C298.947 59.2107 299.107 59.7067 299.427 60.048C299.757 60.3893 300.184 60.56 300.707 60.56C301.229 60.56 301.651 60.3893 301.971 60.048C302.301 59.7067 302.467 59.2107 302.467 58.56V57.264ZM311.164 56.624C311.164 56.2933 311.073 56.0107 310.892 55.776C310.71 55.5307 310.422 55.408 310.028 55.408C309.654 55.408 309.366 55.5573 309.164 55.856C308.972 56.144 308.876 56.5067 308.876 56.944V62H306.572V53.824H308.3L308.588 55.024C308.63 54.9067 308.737 54.7413 308.908 54.528C309.089 54.3147 309.345 54.1173 309.676 53.936C310.017 53.7547 310.417 53.664 310.876 53.664C311.612 53.664 312.177 53.8933 312.572 54.352C312.977 54.8107 313.18 55.4187 313.18 56.176C313.18 56.336 313.169 56.496 313.148 56.656C313.137 56.816 313.126 56.928 313.116 56.992H311.164V56.624ZM319.584 62L317.648 59.328L316.736 60.208V62H314.4V50.48H316.736V57.632L319.6 53.824H322.24L319.232 57.664L322.368 62H319.584ZM38.528 87.504C38.528 87.8773 38.6933 88.1493 39.024 88.32C39.3547 88.48 39.7653 88.56 40.256 88.56C40.6827 88.56 41.0613 88.496 41.392 88.368C41.7333 88.24 41.904 88.0373 41.904 87.76C41.904 87.4613 41.7493 87.248 41.44 87.12C41.1307 86.992 40.6507 86.88 40 86.784C39.3173 86.6667 38.7573 86.5387 38.32 86.4C37.8827 86.2613 37.504 86.0213 37.184 85.68C36.8747 85.3387 36.72 84.864 36.72 84.256C36.72 83.7013 36.88 83.232 37.2 82.848C37.5307 82.4533 37.9627 82.16 38.496 81.968C39.04 81.7653 39.632 81.664 40.272 81.664H40.592C41.1573 81.664 41.6907 81.76 42.192 81.952C42.704 82.1333 43.1147 82.3947 43.424 82.736C43.7333 83.0667 43.888 83.4453 43.888 83.872C43.888 83.9573 43.8827 84.0373 43.872 84.112C43.8613 84.176 43.856 84.2133 43.856 84.224H41.808C41.808 83.584 41.3173 83.264 40.336 83.264C39.888 83.264 39.5253 83.328 39.248 83.456C38.9813 83.584 38.848 83.76 38.848 83.984C38.848 84.2507 38.992 84.4373 39.28 84.544C39.5787 84.6507 40.0427 84.752 40.672 84.848C41.3867 84.9653 41.9627 85.0933 42.4 85.232C42.848 85.36 43.2373 85.6 43.568 85.952C43.8987 86.2933 44.064 86.7787 44.064 87.408C44.064 88.3787 43.7227 89.0827 43.04 89.52C42.3573 89.9467 41.488 90.16 40.432 90.16H39.904C39.2427 90.16 38.6507 90.0587 38.128 89.856C37.6053 89.6533 37.1947 89.3653 36.896 88.992C36.608 88.6187 36.464 88.192 36.464 87.712L36.48 87.392H38.528V87.504ZM48.017 82.624C48.6357 81.984 49.393 81.664 50.289 81.664C51.121 81.664 51.8037 81.888 52.337 82.336C52.881 82.784 53.153 83.4347 53.153 84.288V90H50.817V84.8C50.817 84.384 50.6943 84.0427 50.449 83.776C50.2143 83.4987 49.9103 83.36 49.537 83.36C49.121 83.36 48.7637 83.52 48.465 83.84C48.1663 84.1493 48.017 84.528 48.017 84.976V90H45.681V78.48H48.017V82.624ZM63.1315 86.144C63.1315 86.9653 62.9555 87.68 62.6035 88.288C62.2622 88.896 61.7875 89.36 61.1795 89.68C60.5715 90 59.8888 90.16 59.1315 90.16H58.8755C58.1182 90.16 57.4355 90 56.8275 89.68C56.2195 89.36 55.7395 88.896 55.3875 88.288C55.0462 87.68 54.8755 86.9653 54.8755 86.144V85.68C54.8755 84.8587 55.0462 84.144 55.3875 83.536C55.7395 82.928 56.2195 82.464 56.8275 82.144C57.4355 81.824 58.1182 81.664 58.8755 81.664H59.1315C59.8888 81.664 60.5715 81.824 61.1795 82.144C61.7875 82.464 62.2622 82.928 62.6035 83.536C62.9555 84.144 63.1315 84.8587 63.1315 85.68V86.144ZM60.7635 85.264C60.7635 84.6133 60.5982 84.1173 60.2675 83.776C59.9475 83.4347 59.5262 83.264 59.0035 83.264C58.4808 83.264 58.0542 83.4347 57.7235 83.776C57.4035 84.1173 57.2435 84.6133 57.2435 85.264V86.56C57.2435 87.2107 57.4035 87.7067 57.7235 88.048C58.0542 88.3893 58.4808 88.56 59.0035 88.56C59.5262 88.56 59.9475 88.3893 60.2675 88.048C60.5982 87.7067 60.7635 87.2107 60.7635 86.56V85.264ZM72.3085 88.08C72.3085 88.24 72.3565 88.3627 72.4525 88.448C72.5485 88.5227 72.6552 88.56 72.7725 88.56C72.8792 88.56 72.9965 88.5387 73.1245 88.496C73.2525 88.4533 73.3538 88.416 73.4285 88.384V89.824C73.0338 90.048 72.5645 90.16 72.0205 90.16C70.9538 90.16 70.3352 89.7707 70.1645 88.992C69.4925 89.7707 68.6712 90.16 67.7005 90.16C66.8685 90.16 66.1805 89.936 65.6365 89.488C65.1032 89.04 64.8365 88.3893 64.8365 87.536V81.824H67.1725V87.024C67.1725 87.44 67.2898 87.7867 67.5245 88.064C67.7698 88.3307 68.0792 88.464 68.4525 88.464C68.8685 88.464 69.2258 88.3093 69.5245 88C69.8232 87.68 69.9725 87.296 69.9725 86.848V81.824H72.3085V88.08ZM74.6654 90V78.48H77.0014V90H74.6654ZM84.4621 88.976C83.8648 89.7653 83.0968 90.16 82.1581 90.16C81.5181 90.16 80.9421 90.0053 80.4301 89.696C79.9181 89.3867 79.5128 88.9173 79.2141 88.288C78.9155 87.6587 78.7661 86.88 78.7661 85.952V85.776C78.7661 84.8907 78.9048 84.1387 79.1821 83.52C79.4595 82.9013 79.8328 82.4373 80.3021 82.128C80.7821 81.8187 81.3208 81.664 81.9181 81.664C82.4301 81.664 82.8781 81.7707 83.2621 81.984C83.6568 82.1973 83.9715 82.4587 84.2061 82.768V78.48H86.5421V90H84.7021L84.4621 88.976ZM81.1341 86.624C81.1341 87.2427 81.2781 87.7227 81.5661 88.064C81.8541 88.3947 82.2221 88.56 82.6701 88.56C83.1181 88.56 83.4861 88.3947 83.7741 88.064C84.0621 87.7227 84.2061 87.2427 84.2061 86.624V85.296C84.2061 84.6667 84.0621 84.1867 83.7741 83.856C83.4861 83.5253 83.1181 83.36 82.6701 83.36C82.2221 83.36 81.8541 83.5253 81.5661 83.856C81.2781 84.1867 81.1341 84.6667 81.1341 85.296V86.624ZM94.5014 82.624C95.12 81.984 95.8774 81.664 96.7734 81.664C97.6054 81.664 98.288 81.888 98.8214 82.336C99.3654 82.784 99.6374 83.4347 99.6374 84.288V90H97.3014V84.8C97.3014 84.384 97.1787 84.0427 96.9334 83.776C96.6987 83.4987 96.3947 83.36 96.0214 83.36C95.6054 83.36 95.248 83.52 94.9494 83.84C94.6507 84.1493 94.5014 84.528 94.5014 84.976V90H92.1654V78.48H94.5014V82.624ZM106.736 84.48C106.736 84.1173 106.619 83.824 106.384 83.6C106.16 83.376 105.792 83.264 105.28 83.264C104.981 83.264 104.725 83.3173 104.512 83.424C104.299 83.52 104.133 83.6427 104.016 83.792C103.909 83.9413 103.856 84.08 103.856 84.208V84.336H101.6C101.579 84.208 101.568 84.112 101.568 84.048C101.568 83.5893 101.717 83.1787 102.016 82.816C102.325 82.4533 102.752 82.1707 103.296 81.968C103.84 81.7653 104.464 81.664 105.168 81.664H105.504C106.656 81.664 107.531 81.8933 108.128 82.352C108.725 82.8 109.024 83.4187 109.024 84.208V87.984C109.024 88.176 109.067 88.32 109.152 88.416C109.248 88.512 109.36 88.56 109.488 88.56C109.595 88.56 109.712 88.5387 109.84 88.496C109.968 88.4533 110.069 88.416 110.144 88.384V89.824C109.749 90.048 109.28 90.16 108.736 90.16C108.149 90.16 107.701 90.0427 107.392 89.808C107.083 89.5627 106.901 89.2213 106.848 88.784C106.101 89.7013 105.184 90.16 104.096 90.16C103.285 90.16 102.619 89.9947 102.096 89.664C101.573 89.3333 101.312 88.704 101.312 87.776C101.312 87.0187 101.525 86.4427 101.952 86.048C102.389 85.6427 102.992 85.3707 103.76 85.232C104.528 85.0933 105.52 85.024 106.736 85.024V84.48ZM106.736 86.336C105.723 86.336 104.965 86.4373 104.464 86.64C103.973 86.832 103.728 87.152 103.728 87.6C103.728 87.952 103.824 88.2027 104.016 88.352C104.219 88.4907 104.523 88.56 104.928 88.56C105.205 88.56 105.483 88.4853 105.76 88.336C106.037 88.1867 106.267 87.9733 106.448 87.696C106.64 87.4187 106.736 87.1093 106.736 86.768V86.336ZM113.37 82.848C113.968 82.0587 114.736 81.664 115.674 81.664C116.314 81.664 116.89 81.8187 117.402 82.128C117.914 82.4373 118.32 82.9067 118.618 83.536C118.917 84.1653 119.066 84.944 119.066 85.872V86.048C119.066 86.9333 118.928 87.6853 118.65 88.304C118.373 88.9227 117.994 89.3867 117.514 89.696C117.045 90.0053 116.512 90.16 115.914 90.16C115.402 90.16 114.949 90.0533 114.554 89.84C114.17 89.6267 113.861 89.3653 113.626 89.056V92.896H111.29V81.824H113.13L113.37 82.848ZM116.698 85.2C116.698 84.5707 116.554 84.0907 116.266 83.76C115.978 83.4293 115.61 83.264 115.162 83.264C114.714 83.264 114.346 83.4293 114.058 83.76C113.77 84.0907 113.626 84.5707 113.626 85.2V86.528C113.626 87.1467 113.77 87.6267 114.058 87.968C114.346 88.2987 114.714 88.464 115.162 88.464C115.61 88.464 115.978 88.2987 116.266 87.968C116.554 87.6267 116.698 87.1467 116.698 86.528V85.2ZM122.886 82.848C123.483 82.0587 124.251 81.664 125.19 81.664C125.83 81.664 126.406 81.8187 126.918 82.128C127.43 82.4373 127.835 82.9067 128.134 83.536C128.433 84.1653 128.582 84.944 128.582 85.872V86.048C128.582 86.9333 128.443 87.6853 128.166 88.304C127.889 88.9227 127.51 89.3867 127.03 89.696C126.561 90.0053 126.027 90.16 125.43 90.16C124.918 90.16 124.465 90.0533 124.07 89.84C123.686 89.6267 123.377 89.3653 123.142 89.056V92.896H120.806V81.824H122.646L122.886 82.848ZM126.214 85.2C126.214 84.5707 126.07 84.0907 125.782 83.76C125.494 83.4293 125.126 83.264 124.678 83.264C124.23 83.264 123.862 83.4293 123.574 83.76C123.286 84.0907 123.142 84.5707 123.142 85.2V86.528C123.142 87.1467 123.286 87.6267 123.574 87.968C123.862 88.2987 124.23 88.464 124.678 88.464C125.126 88.464 125.494 88.2987 125.782 87.968C126.07 87.6267 126.214 87.1467 126.214 86.528V85.2ZM137.906 86.944C137.906 87.6587 137.735 88.2613 137.394 88.752C137.052 89.232 136.599 89.5893 136.034 89.824C135.479 90.048 134.871 90.16 134.21 90.16H133.954C133.196 90.16 132.514 90 131.906 89.68C131.298 89.36 130.818 88.9013 130.466 88.304C130.124 87.696 129.954 86.976 129.954 86.144V85.68C129.954 84.8587 130.13 84.144 130.482 83.536C130.834 82.928 131.308 82.464 131.906 82.144C132.514 81.824 133.196 81.664 133.954 81.664H134.21C134.871 81.664 135.484 81.8027 136.05 82.08C136.615 82.3467 137.068 82.7413 137.41 83.264C137.751 83.776 137.922 84.384 137.922 85.088V86.304H132.322V86.688C132.322 87.2213 132.476 87.6693 132.786 88.032C133.106 88.384 133.538 88.56 134.082 88.56C134.572 88.56 134.956 88.4267 135.234 88.16C135.522 87.8827 135.666 87.4773 135.666 86.944H137.906ZM133.97 83.264C133.5 83.264 133.116 83.4293 132.818 83.76C132.53 84.0907 132.364 84.512 132.322 85.024H135.554C135.554 84.48 135.426 84.0533 135.17 83.744C134.924 83.424 134.524 83.264 133.97 83.264ZM141.665 83.024C142.337 82.1173 143.207 81.664 144.273 81.664C145.105 81.664 145.788 81.888 146.321 82.336C146.865 82.784 147.137 83.4347 147.137 84.288V90H144.801V84.8C144.801 84.384 144.679 84.0427 144.433 83.776C144.199 83.4987 143.895 83.36 143.521 83.36C143.105 83.36 142.748 83.52 142.449 83.84C142.151 84.1493 142.001 84.528 142.001 84.976V90H139.665V81.824H141.409L141.665 83.024ZM154.728 83.024C155.4 82.1173 156.269 81.664 157.336 81.664C158.168 81.664 158.851 81.888 159.384 82.336C159.928 82.784 160.2 83.4347 160.2 84.288V90H157.864V84.8C157.864 84.384 157.741 84.0427 157.496 83.776C157.261 83.4987 156.957 83.36 156.584 83.36C156.168 83.36 155.811 83.52 155.512 83.84C155.213 84.1493 155.064 84.528 155.064 84.976V90H152.728V81.824H154.472L154.728 83.024ZM169.859 86.944C169.859 87.6587 169.688 88.2613 169.347 88.752C169.005 89.232 168.552 89.5893 167.987 89.824C167.432 90.048 166.824 90.16 166.163 90.16H165.907C165.149 90.16 164.467 90 163.859 89.68C163.251 89.36 162.771 88.9013 162.419 88.304C162.077 87.696 161.907 86.976 161.907 86.144V85.68C161.907 84.8587 162.083 84.144 162.435 83.536C162.787 82.928 163.261 82.464 163.859 82.144C164.467 81.824 165.149 81.664 165.907 81.664H166.163C166.824 81.664 167.437 81.8027 168.003 82.08C168.568 82.3467 169.021 82.7413 169.363 83.264C169.704 83.776 169.875 84.384 169.875 85.088V86.304H164.275V86.688C164.275 87.2213 164.429 87.6693 164.739 88.032C165.059 88.384 165.491 88.56 166.035 88.56C166.525 88.56 166.909 88.4267 167.187 88.16C167.475 87.8827 167.619 87.4773 167.619 86.944H169.859ZM165.923 83.264C165.453 83.264 165.069 83.4293 164.771 83.76C164.483 84.0907 164.317 84.512 164.275 85.024H167.507C167.507 84.48 167.379 84.0533 167.123 83.744C166.877 83.424 166.477 83.264 165.923 83.264ZM173.523 85.776L170.883 81.824H173.603L174.243 82.848C174.349 83.0187 174.467 83.216 174.595 83.44C174.733 83.6533 174.888 83.8933 175.059 84.16H175.123L176.211 82.48L176.611 81.824H179.139L176.467 85.76L179.299 90H176.595L174.931 87.36H174.867L174.307 88.24L173.187 90H170.659L173.523 85.776ZM184.894 89.856C184.681 89.9413 184.398 90.0107 184.046 90.064C183.705 90.128 183.401 90.16 183.134 90.16C182.313 90.16 181.694 89.984 181.278 89.632C180.862 89.28 180.654 88.6933 180.654 87.872V83.424H179.758V81.824H180.734L181.55 79.216H182.99V81.824H184.894V83.424H182.99V87.472C182.99 87.8987 183.07 88.1867 183.23 88.336C183.401 88.4853 183.625 88.56 183.902 88.56C184.03 88.56 184.196 88.5387 184.398 88.496C184.601 88.4533 184.766 88.4053 184.894 88.352V89.856ZM186.384 87.648H188.72V90H186.384V87.648ZM200.849 87.84H196.481L195.713 90H193.329L197.313 79.024H200.257L204.241 90H201.649L200.849 87.84ZM197.153 85.968H200.193C199.788 84.7627 199.297 83.328 198.721 81.664H198.641L197.153 85.968ZM211.173 82.624C211.792 81.984 212.549 81.664 213.445 81.664C214.277 81.664 214.96 81.888 215.493 82.336C216.037 82.784 216.309 83.4347 216.309 84.288V90H213.973V84.8C213.973 84.384 213.851 84.0427 213.605 83.776C213.371 83.4987 213.067 83.36 212.693 83.36C212.277 83.36 211.92 83.52 211.621 83.84C211.323 84.1493 211.173 84.528 211.173 84.976V90H208.837V78.48H211.173V82.624ZM225.984 86.944C225.984 87.6587 225.813 88.2613 225.472 88.752C225.13 89.232 224.677 89.5893 224.112 89.824C223.557 90.048 222.949 90.16 222.288 90.16H222.032C221.274 90.16 220.592 90 219.984 89.68C219.376 89.36 218.896 88.9013 218.544 88.304C218.202 87.696 218.032 86.976 218.032 86.144V85.68C218.032 84.8587 218.208 84.144 218.56 83.536C218.912 82.928 219.386 82.464 219.984 82.144C220.592 81.824 221.274 81.664 222.032 81.664H222.288C222.949 81.664 223.562 81.8027 224.128 82.08C224.693 82.3467 225.146 82.7413 225.488 83.264C225.829 83.776 226 84.384 226 85.088V86.304H220.4V86.688C220.4 87.2213 220.554 87.6693 220.864 88.032C221.184 88.384 221.616 88.56 222.16 88.56C222.65 88.56 223.034 88.4267 223.312 88.16C223.6 87.8827 223.744 87.4773 223.744 86.944H225.984ZM222.048 83.264C221.578 83.264 221.194 83.4293 220.896 83.76C220.608 84.0907 220.442 84.512 220.4 85.024H223.632C223.632 84.48 223.504 84.0533 223.248 83.744C223.002 83.424 222.602 83.264 222.048 83.264ZM232.752 84.48C232.752 84.1173 232.634 83.824 232.4 83.6C232.176 83.376 231.808 83.264 231.296 83.264C230.997 83.264 230.741 83.3173 230.528 83.424C230.314 83.52 230.149 83.6427 230.032 83.792C229.925 83.9413 229.872 84.08 229.872 84.208V84.336H227.616C227.594 84.208 227.584 84.112 227.584 84.048C227.584 83.5893 227.733 83.1787 228.032 82.816C228.341 82.4533 228.768 82.1707 229.312 81.968C229.856 81.7653 230.48 81.664 231.184 81.664H231.52C232.672 81.664 233.546 81.8933 234.144 82.352C234.741 82.8 235.04 83.4187 235.04 84.208V87.984C235.04 88.176 235.082 88.32 235.168 88.416C235.264 88.512 235.376 88.56 235.503 88.56C235.61 88.56 235.728 88.5387 235.856 88.496C235.984 88.4533 236.085 88.416 236.16 88.384V89.824C235.765 90.048 235.296 90.16 234.752 90.16C234.165 90.16 233.717 90.0427 233.408 89.808C233.098 89.5627 232.917 89.2213 232.864 88.784C232.117 89.7013 231.2 90.16 230.112 90.16C229.301 90.16 228.634 89.9947 228.112 89.664C227.589 89.3333 227.328 88.704 227.328 87.776C227.328 87.0187 227.541 86.4427 227.968 86.048C228.405 85.6427 229.008 85.3707 229.776 85.232C230.544 85.0933 231.536 85.024 232.752 85.024V84.48ZM232.752 86.336C231.738 86.336 230.981 86.4373 230.48 86.64C229.989 86.832 229.744 87.152 229.744 87.6C229.744 87.952 229.84 88.2027 230.032 88.352C230.234 88.4907 230.538 88.56 230.944 88.56C231.221 88.56 231.498 88.4853 231.776 88.336C232.053 88.1867 232.282 87.9733 232.464 87.696C232.656 87.4187 232.752 87.1093 232.752 86.768V86.336ZM237.306 90V78.48H239.642V90H237.306ZM246.207 89.856C245.993 89.9413 245.711 90.0107 245.359 90.064C245.017 90.128 244.713 90.16 244.447 90.16C243.625 90.16 243.007 89.984 242.591 89.632C242.175 89.28 241.967 88.6933 241.967 87.872V83.424H241.071V81.824H242.047L242.863 79.216H244.303V81.824H246.207V83.424H244.303V87.472C244.303 87.8987 244.383 88.1867 244.543 88.336C244.713 88.4853 244.937 88.56 245.215 88.56C245.343 88.56 245.508 88.5387 245.711 88.496C245.913 88.4533 246.079 88.4053 246.207 88.352V89.856ZM250.048 82.624C250.667 81.984 251.424 81.664 252.32 81.664C253.152 81.664 253.835 81.888 254.368 82.336C254.912 82.784 255.184 83.4347 255.184 84.288V90H252.848V84.8C252.848 84.384 252.726 84.0427 252.48 83.776C252.246 83.4987 251.942 83.36 251.568 83.36C251.152 83.36 250.795 83.52 250.496 83.84C250.198 84.1493 250.048 84.528 250.048 84.976V90H247.712V78.48H250.048V82.624ZM261.787 89.552C261.392 90.6187 260.907 91.456 260.331 92.064C259.755 92.6827 259.061 92.992 258.251 92.992C257.685 92.992 257.227 92.912 256.875 92.752V91.104C257.003 91.1573 257.168 91.2053 257.371 91.248C257.573 91.3013 257.765 91.328 257.947 91.328C258.629 91.328 259.115 90.832 259.403 89.84L256.315 81.824H258.795L260.603 86.96H260.699L262.395 81.824H264.699L261.787 89.552ZM273.961 84.624C273.961 84.2933 273.87 84.0107 273.689 83.776C273.507 83.5307 273.219 83.408 272.825 83.408C272.451 83.408 272.163 83.5573 271.961 83.856C271.769 84.144 271.673 84.5067 271.673 84.944V90H269.368V81.824H271.097L271.385 83.024C271.427 82.9067 271.534 82.7413 271.705 82.528C271.886 82.3147 272.142 82.1173 272.473 81.936C272.814 81.7547 273.214 81.664 273.673 81.664C274.409 81.664 274.974 81.8933 275.369 82.352C275.774 82.8107 275.977 83.4187 275.977 84.176C275.977 84.336 275.966 84.496 275.945 84.656C275.934 84.816 275.923 84.928 275.913 84.992H273.961V84.624ZM285.085 86.144C285.085 86.9653 284.909 87.68 284.557 88.288C284.215 88.896 283.741 89.36 283.133 89.68C282.525 90 281.842 90.16 281.085 90.16H280.829C280.071 90.16 279.389 90 278.781 89.68C278.173 89.36 277.693 88.896 277.341 88.288C276.999 87.68 276.829 86.9653 276.829 86.144V85.68C276.829 84.8587 276.999 84.144 277.341 83.536C277.693 82.928 278.173 82.464 278.781 82.144C279.389 81.824 280.071 81.664 280.829 81.664H281.085C281.842 81.664 282.525 81.824 283.133 82.144C283.741 82.464 284.215 82.928 284.557 83.536C284.909 84.144 285.085 84.8587 285.085 85.68V86.144ZM282.717 85.264C282.717 84.6133 282.551 84.1173 282.221 83.776C281.901 83.4347 281.479 83.264 280.957 83.264C280.434 83.264 280.007 83.4347 279.677 83.776C279.357 84.1173 279.197 84.6133 279.197 85.264V86.56C279.197 87.2107 279.357 87.7067 279.677 88.048C280.007 88.3893 280.434 88.56 280.957 88.56C281.479 88.56 281.901 88.3893 282.221 88.048C282.551 87.7067 282.717 87.2107 282.717 86.56V85.264ZM294.262 88.08C294.262 88.24 294.31 88.3627 294.406 88.448C294.502 88.5227 294.608 88.56 294.726 88.56C294.832 88.56 294.95 88.5387 295.078 88.496C295.206 88.4533 295.307 88.416 295.382 88.384V89.824C294.987 90.048 294.518 90.16 293.974 90.16C292.907 90.16 292.288 89.7707 292.118 88.992C291.446 89.7707 290.624 90.16 289.654 90.16C288.822 90.16 288.134 89.936 287.59 89.488C287.056 89.04 286.79 88.3893 286.79 87.536V81.824H289.126V87.024C289.126 87.44 289.243 87.7867 289.478 88.064C289.723 88.3307 290.032 88.464 290.406 88.464C290.822 88.464 291.179 88.3093 291.478 88C291.776 87.68 291.926 87.296 291.926 86.848V81.824H294.262V88.08ZM301.051 89.856C300.837 89.9413 300.555 90.0107 300.203 90.064C299.861 90.128 299.557 90.16 299.291 90.16C298.469 90.16 297.851 89.984 297.435 89.632C297.019 89.28 296.811 88.6933 296.811 87.872V83.424H295.915V81.824H296.891L297.707 79.216H299.147V81.824H301.051V83.424H299.147V87.472C299.147 87.8987 299.227 88.1867 299.387 88.336C299.557 88.4853 299.781 88.56 300.059 88.56C300.187 88.56 300.352 88.5387 300.555 88.496C300.757 88.4533 300.923 88.4053 301.051 88.352V89.856ZM302.54 78.48H304.908V80.32H302.54V78.48ZM302.556 90V81.824H304.892V90H302.556ZM309.009 83.024C309.681 82.1173 310.55 81.664 311.617 81.664C312.449 81.664 313.132 81.888 313.665 82.336C314.209 82.784 314.481 83.4347 314.481 84.288V90H312.145V84.8C312.145 84.384 312.022 84.0427 311.777 83.776C311.542 83.4987 311.238 83.36 310.865 83.36C310.449 83.36 310.092 83.52 309.793 83.84C309.494 84.1493 309.345 84.528 309.345 84.976V90H307.009V81.824H308.753L309.009 83.024ZM324.14 86.944C324.14 87.6587 323.969 88.2613 323.628 88.752C323.287 89.232 322.833 89.5893 322.268 89.824C321.713 90.048 321.105 90.16 320.444 90.16H320.188C319.431 90.16 318.748 90 318.14 89.68C317.532 89.36 317.052 88.9013 316.7 88.304C316.359 87.696 316.188 86.976 316.188 86.144V85.68C316.188 84.8587 316.364 84.144 316.716 83.536C317.068 82.928 317.543 82.464 318.14 82.144C318.748 81.824 319.431 81.664 320.188 81.664H320.444C321.105 81.664 321.719 81.8027 322.284 82.08C322.849 82.3467 323.303 82.7413 323.644 83.264C323.985 83.776 324.156 84.384 324.156 85.088V86.304H318.556V86.688C318.556 87.2213 318.711 87.6693 319.02 88.032C319.34 88.384 319.772 88.56 320.316 88.56C320.807 88.56 321.191 88.4267 321.468 88.16C321.756 87.8827 321.9 87.4773 321.9 86.944H324.14ZM320.204 83.264C319.735 83.264 319.351 83.4293 319.052 83.76C318.764 84.0907 318.599 84.512 318.556 85.024H321.788C321.788 84.48 321.66 84.0533 321.404 83.744C321.159 83.424 320.759 83.264 320.204 83.264ZM41.488 117.856C41.2747 117.941 40.992 118.011 40.64 118.064C40.2987 118.128 39.9947 118.16 39.728 118.16C38.9067 118.16 38.288 117.984 37.872 117.632C37.456 117.28 37.248 116.693 37.248 115.872V111.424H36.352V109.824H37.328L38.144 107.216H39.584V109.824H41.488V111.424H39.584V115.472C39.584 115.899 39.664 116.187 39.824 116.336C39.9947 116.485 40.2187 116.56 40.496 116.56C40.624 116.56 40.7893 116.539 40.992 116.496C41.1947 116.453 41.36 116.405 41.488 116.352V117.856ZM50.8815 114.144C50.8815 114.965 50.7055 115.68 50.3535 116.288C50.0122 116.896 49.5375 117.36 48.9295 117.68C48.3215 118 47.6388 118.16 46.8815 118.16H46.6255C45.8682 118.16 45.1855 118 44.5775 117.68C43.9695 117.36 43.4895 116.896 43.1375 116.288C42.7962 115.68 42.6255 114.965 42.6255 114.144V113.68C42.6255 112.859 42.7962 112.144 43.1375 111.536C43.4895 110.928 43.9695 110.464 44.5775 110.144C45.1855 109.824 45.8682 109.664 46.6255 109.664H46.8815C47.6388 109.664 48.3215 109.824 48.9295 110.144C49.5375 110.464 50.0122 110.928 50.3535 111.536C50.7055 112.144 50.8815 112.859 50.8815 113.68V114.144ZM48.5135 113.264C48.5135 112.613 48.3482 112.117 48.0175 111.776C47.6975 111.435 47.2762 111.264 46.7535 111.264C46.2308 111.264 45.8042 111.435 45.4735 111.776C45.1535 112.117 44.9935 112.613 44.9935 113.264V114.56C44.9935 115.211 45.1535 115.707 45.4735 116.048C45.8042 116.389 46.2308 116.56 46.7535 116.56C47.2762 116.56 47.6975 116.389 48.0175 116.048C48.3482 115.707 48.5135 115.211 48.5135 114.56V113.264ZM60.5501 109.664C61.0728 109.664 61.5421 109.776 61.9581 110C62.3741 110.224 62.6941 110.549 62.9181 110.976C63.4728 110.101 64.2675 109.664 65.3021 109.664C66.0701 109.664 66.7048 109.899 67.2061 110.368C67.7181 110.827 67.9741 111.467 67.9741 112.288V118H65.6381V112.752C65.6381 112.304 65.5421 111.963 65.3501 111.728C65.1581 111.483 64.8915 111.36 64.5501 111.36C64.1768 111.36 63.8621 111.509 63.6061 111.808C63.3501 112.107 63.2221 112.48 63.2221 112.928V118H60.8861V112.752C60.8861 112.315 60.7848 111.973 60.5821 111.728C60.3901 111.483 60.1235 111.36 59.7821 111.36C59.4088 111.36 59.0941 111.509 58.8381 111.808C58.5928 112.107 58.4701 112.48 58.4701 112.928V118H56.1341V109.824H57.8941C57.9581 110.091 58.0435 110.491 58.1501 111.024C58.4381 110.565 58.7848 110.224 59.1901 110C59.6061 109.776 60.0595 109.664 60.5501 109.664ZM75.064 112.48C75.064 112.117 74.9467 111.824 74.712 111.6C74.488 111.376 74.12 111.264 73.608 111.264C73.3093 111.264 73.0533 111.317 72.84 111.424C72.6267 111.52 72.4613 111.643 72.344 111.792C72.2373 111.941 72.184 112.08 72.184 112.208V112.336H69.928C69.9067 112.208 69.896 112.112 69.896 112.048C69.896 111.589 70.0453 111.179 70.344 110.816C70.6533 110.453 71.08 110.171 71.624 109.968C72.168 109.765 72.792 109.664 73.496 109.664H73.832C74.984 109.664 75.8587 109.893 76.456 110.352C77.0533 110.8 77.352 111.419 77.352 112.208V115.984C77.352 116.176 77.3947 116.32 77.48 116.416C77.576 116.512 77.688 116.56 77.816 116.56C77.9227 116.56 78.04 116.539 78.168 116.496C78.296 116.453 78.3973 116.416 78.472 116.384V117.824C78.0773 118.048 77.608 118.16 77.064 118.16C76.4773 118.16 76.0293 118.043 75.72 117.808C75.4107 117.563 75.2293 117.221 75.176 116.784C74.4293 117.701 73.512 118.16 72.424 118.16C71.6133 118.16 70.9467 117.995 70.424 117.664C69.9013 117.333 69.64 116.704 69.64 115.776C69.64 115.019 69.8533 114.443 70.28 114.048C70.7173 113.643 71.32 113.371 72.088 113.232C72.856 113.093 73.848 113.024 75.064 113.024V112.48ZM75.064 114.336C74.0507 114.336 73.2933 114.437 72.792 114.64C72.3013 114.832 72.056 115.152 72.056 115.6C72.056 115.952 72.152 116.203 72.344 116.352C72.5467 116.491 72.8507 116.56 73.256 116.56C73.5333 116.56 73.8107 116.485 74.088 116.336C74.3653 116.187 74.5947 115.973 74.776 115.696C74.968 115.419 75.064 115.109 75.064 114.768V114.336ZM79.6025 106.48H81.9705V108.32H79.6025V106.48ZM79.6185 118V109.824H81.9545V118H79.6185ZM86.0716 111.024C86.7436 110.117 87.613 109.664 88.6796 109.664C89.5116 109.664 90.1943 109.888 90.7276 110.336C91.2716 110.784 91.5436 111.435 91.5436 112.288V118H89.2076V112.8C89.2076 112.384 89.085 112.043 88.8396 111.776C88.605 111.499 88.301 111.36 87.9276 111.36C87.5116 111.36 87.1543 111.52 86.8556 111.84C86.557 112.149 86.4076 112.528 86.4076 112.976V118H84.0716V109.824H85.8156L86.0716 111.024ZM98.0505 117.856C97.8372 117.941 97.5545 118.011 97.2025 118.064C96.8612 118.128 96.5572 118.16 96.2905 118.16C95.4692 118.16 94.8505 117.984 94.4345 117.632C94.0185 117.28 93.8105 116.693 93.8105 115.872V111.424H92.9145V109.824H93.8905L94.7065 107.216H96.1465V109.824H98.0505V111.424H96.1465V115.472C96.1465 115.899 96.2265 116.187 96.3865 116.336C96.5572 116.485 96.7812 116.56 97.0585 116.56C97.1865 116.56 97.3518 116.539 97.5545 116.496C97.7572 116.453 97.9225 116.405 98.0505 116.352V117.856ZM104.564 112.48C104.564 112.117 104.447 111.824 104.212 111.6C103.988 111.376 103.62 111.264 103.108 111.264C102.809 111.264 102.553 111.317 102.34 111.424C102.127 111.52 101.961 111.643 101.844 111.792C101.737 111.941 101.684 112.08 101.684 112.208V112.336H99.428C99.4067 112.208 99.396 112.112 99.396 112.048C99.396 111.589 99.5453 111.179 99.844 110.816C100.153 110.453 100.58 110.171 101.124 109.968C101.668 109.765 102.292 109.664 102.996 109.664H103.332C104.484 109.664 105.359 109.893 105.956 110.352C106.553 110.8 106.852 111.419 106.852 112.208V115.984C106.852 116.176 106.895 116.32 106.98 116.416C107.076 116.512 107.188 116.56 107.316 116.56C107.423 116.56 107.54 116.539 107.668 116.496C107.796 116.453 107.897 116.416 107.972 116.384V117.824C107.577 118.048 107.108 118.16 106.564 118.16C105.977 118.16 105.529 118.043 105.22 117.808C104.911 117.563 104.729 117.221 104.676 116.784C103.929 117.701 103.012 118.16 101.924 118.16C101.113 118.16 100.447 117.995 99.924 117.664C99.4013 117.333 99.14 116.704 99.14 115.776C99.14 115.019 99.3533 114.443 99.78 114.048C100.217 113.643 100.82 113.371 101.588 113.232C102.356 113.093 103.348 113.024 104.564 113.024V112.48ZM104.564 114.336C103.551 114.336 102.793 114.437 102.292 114.64C101.801 114.832 101.556 115.152 101.556 115.6C101.556 115.952 101.652 116.203 101.844 116.352C102.047 116.491 102.351 116.56 102.756 116.56C103.033 116.56 103.311 116.485 103.588 116.336C103.865 116.187 104.095 115.973 104.276 115.696C104.468 115.419 104.564 115.109 104.564 114.768V114.336ZM109.103 106.48H111.471V108.32H109.103V106.48ZM109.118 118V109.824H111.455V118H109.118ZM115.572 111.024C116.244 110.117 117.113 109.664 118.18 109.664C119.012 109.664 119.694 109.888 120.228 110.336C120.772 110.784 121.044 111.435 121.044 112.288V118H118.708V112.8C118.708 112.384 118.585 112.043 118.34 111.776C118.105 111.499 117.801 111.36 117.428 111.36C117.012 111.36 116.654 111.52 116.356 111.84C116.057 112.149 115.908 112.528 115.908 112.976V118H113.572V109.824H115.316L115.572 111.024ZM131.178 118H128.538L125.674 109.824H128.154L129.93 115.296H130.01L131.786 109.824H134.058L131.178 118ZM142.796 114.944C142.796 115.659 142.626 116.261 142.284 116.752C141.943 117.232 141.49 117.589 140.924 117.824C140.37 118.048 139.762 118.16 139.1 118.16H138.844C138.087 118.16 137.404 118 136.796 117.68C136.188 117.36 135.708 116.901 135.356 116.304C135.015 115.696 134.844 114.976 134.844 114.144V113.68C134.844 112.859 135.02 112.144 135.372 111.536C135.724 110.928 136.199 110.464 136.796 110.144C137.404 109.824 138.087 109.664 138.844 109.664H139.1C139.762 109.664 140.375 109.803 140.94 110.08C141.506 110.347 141.959 110.741 142.3 111.264C142.642 111.776 142.812 112.384 142.812 113.088V114.304H137.212V114.688C137.212 115.221 137.367 115.669 137.676 116.032C137.996 116.384 138.428 116.56 138.972 116.56C139.463 116.56 139.847 116.427 140.124 116.16C140.412 115.883 140.556 115.477 140.556 114.944H142.796ZM138.86 111.264C138.391 111.264 138.007 111.429 137.708 111.76C137.42 112.091 137.255 112.512 137.212 113.024H140.444C140.444 112.48 140.316 112.053 140.06 111.744C139.815 111.424 139.415 111.264 138.86 111.264ZM144.556 118V106.48H146.892V118H144.556ZM156.913 114.144C156.913 114.965 156.737 115.68 156.385 116.288C156.043 116.896 155.569 117.36 154.961 117.68C154.353 118 153.67 118.16 152.913 118.16H152.657C151.899 118.16 151.217 118 150.609 117.68C150.001 117.36 149.521 116.896 149.169 116.288C148.827 115.68 148.657 114.965 148.657 114.144V113.68C148.657 112.859 148.827 112.144 149.169 111.536C149.521 110.928 150.001 110.464 150.609 110.144C151.217 109.824 151.899 109.664 152.657 109.664H152.913C153.67 109.664 154.353 109.824 154.961 110.144C155.569 110.464 156.043 110.928 156.385 111.536C156.737 112.144 156.913 112.859 156.913 113.68V114.144ZM154.545 113.264C154.545 112.613 154.379 112.117 154.049 111.776C153.729 111.435 153.307 111.264 152.785 111.264C152.262 111.264 151.835 111.435 151.505 111.776C151.185 112.117 151.025 112.613 151.025 113.264V114.56C151.025 115.211 151.185 115.707 151.505 116.048C151.835 116.389 152.262 116.56 152.785 116.56C153.307 116.56 153.729 116.389 154.049 116.048C154.379 115.707 154.545 115.211 154.545 114.56V113.264ZM160.65 114.688C160.65 115.221 160.788 115.669 161.066 116.032C161.343 116.384 161.716 116.56 162.186 116.56C162.676 116.56 163.06 116.411 163.338 116.112C163.626 115.803 163.77 115.349 163.77 114.752H165.978C165.978 115.509 165.812 116.144 165.482 116.656C165.162 117.168 164.735 117.547 164.202 117.792C163.668 118.037 163.082 118.16 162.442 118.16H162.186C160.991 118.16 160.042 117.808 159.338 117.104C158.634 116.389 158.282 115.403 158.282 114.144V113.68C158.282 112.848 158.447 112.133 158.778 111.536C159.119 110.928 159.583 110.464 160.17 110.144C160.756 109.824 161.428 109.664 162.186 109.664H162.442C163.071 109.664 163.652 109.803 164.186 110.08C164.73 110.347 165.162 110.741 165.482 111.264C165.812 111.776 165.978 112.384 165.978 113.088H163.658C163.658 112.533 163.535 112.091 163.29 111.76C163.044 111.429 162.682 111.264 162.202 111.264C161.722 111.264 161.343 111.456 161.066 111.84C160.788 112.213 160.65 112.688 160.65 113.264V114.688ZM167.712 106.48H170.08V108.32H167.712V106.48ZM167.728 118V109.824H170.064V118H167.728ZM176.613 117.856C176.4 117.941 176.117 118.011 175.765 118.064C175.424 118.128 175.12 118.16 174.853 118.16C174.032 118.16 173.413 117.984 172.997 117.632C172.581 117.28 172.373 116.693 172.373 115.872V111.424H171.477V109.824H172.453L173.269 107.216H174.709V109.824H176.613V111.424H174.709V115.472C174.709 115.899 174.789 116.187 174.949 116.336C175.12 116.485 175.344 116.56 175.621 116.56C175.749 116.56 175.914 116.539 176.117 116.496C176.32 116.453 176.485 116.405 176.613 116.352V117.856ZM182.631 117.552C182.236 118.619 181.751 119.456 181.174 120.064C180.599 120.683 179.905 120.992 179.095 120.992C178.529 120.992 178.071 120.912 177.719 120.752V119.104C177.847 119.157 178.012 119.205 178.215 119.248C178.417 119.301 178.609 119.328 178.791 119.328C179.473 119.328 179.959 118.832 180.247 117.84L177.159 109.824H179.639L181.447 114.96H181.543L183.239 109.824H185.543L182.631 117.552ZM195.22 112.48C195.22 112.117 195.103 111.824 194.868 111.6C194.644 111.376 194.276 111.264 193.764 111.264C193.466 111.264 193.21 111.317 192.996 111.424C192.783 111.52 192.618 111.643 192.5 111.792C192.394 111.941 192.34 112.08 192.34 112.208V112.336H190.084C190.063 112.208 190.052 112.112 190.052 112.048C190.052 111.589 190.202 111.179 190.5 110.816C190.81 110.453 191.236 110.171 191.78 109.968C192.324 109.765 192.948 109.664 193.652 109.664H193.988C195.14 109.664 196.015 109.893 196.612 110.352C197.21 110.8 197.508 111.419 197.508 112.208V115.984C197.508 116.176 197.551 116.32 197.636 116.416C197.732 116.512 197.844 116.56 197.972 116.56C198.079 116.56 198.196 116.539 198.324 116.496C198.452 116.453 198.554 116.416 198.628 116.384V117.824C198.234 118.048 197.764 118.16 197.22 118.16C196.634 118.16 196.186 118.043 195.876 117.808C195.567 117.563 195.386 117.221 195.332 116.784C194.586 117.701 193.668 118.16 192.58 118.16C191.77 118.16 191.103 117.995 190.58 117.664C190.058 117.333 189.796 116.704 189.796 115.776C189.796 115.019 190.01 114.443 190.436 114.048C190.874 113.643 191.476 113.371 192.244 113.232C193.012 113.093 194.004 113.024 195.22 113.024V112.48ZM195.22 114.336C194.207 114.336 193.45 114.437 192.948 114.64C192.458 114.832 192.212 115.152 192.212 115.6C192.212 115.952 192.308 116.203 192.5 116.352C192.703 116.491 193.007 116.56 193.412 116.56C193.69 116.56 193.967 116.485 194.244 116.336C194.522 116.187 194.751 115.973 194.932 115.696C195.124 115.419 195.22 115.109 195.22 114.768V114.336ZM201.775 111.024C202.447 110.117 203.316 109.664 204.383 109.664C205.215 109.664 205.897 109.888 206.431 110.336C206.975 110.784 207.247 111.435 207.247 112.288V118H204.911V112.8C204.911 112.384 204.788 112.043 204.543 111.776C204.308 111.499 204.004 111.36 203.631 111.36C203.215 111.36 202.857 111.52 202.559 111.84C202.26 112.149 202.111 112.528 202.111 112.976V118H199.775V109.824H201.519L201.775 111.024ZM214.65 116.976C214.052 117.765 213.284 118.16 212.346 118.16C211.706 118.16 211.13 118.005 210.618 117.696C210.106 117.387 209.7 116.917 209.402 116.288C209.103 115.659 208.954 114.88 208.954 113.952V113.776C208.954 112.891 209.092 112.139 209.37 111.52C209.647 110.901 210.02 110.437 210.49 110.128C210.97 109.819 211.508 109.664 212.106 109.664C212.618 109.664 213.066 109.771 213.45 109.984C213.844 110.197 214.159 110.459 214.394 110.768V106.48H216.73V118H214.89L214.65 116.976ZM211.322 114.624C211.322 115.243 211.466 115.723 211.754 116.064C212.042 116.395 212.41 116.56 212.858 116.56C213.306 116.56 213.674 116.395 213.962 116.064C214.25 115.723 214.394 115.243 214.394 114.624V113.296C214.394 112.667 214.25 112.187 213.962 111.856C213.674 111.525 213.306 111.36 212.858 111.36C212.41 111.36 212.042 111.525 211.754 111.856C211.466 112.187 211.322 112.667 211.322 113.296V114.624ZM226.769 109.664C227.292 109.664 227.761 109.776 228.177 110C228.593 110.224 228.913 110.549 229.137 110.976C229.692 110.101 230.486 109.664 231.521 109.664C232.289 109.664 232.924 109.899 233.425 110.368C233.937 110.827 234.193 111.467 234.193 112.288V118H231.857V112.752C231.857 112.304 231.761 111.963 231.569 111.728C231.377 111.483 231.11 111.36 230.769 111.36C230.396 111.36 230.081 111.509 229.825 111.808C229.569 112.107 229.441 112.48 229.441 112.928V118H227.105V112.752C227.105 112.315 227.004 111.973 226.801 111.728C226.609 111.483 226.342 111.36 226.001 111.36C225.628 111.36 225.313 111.509 225.057 111.808C224.812 112.107 224.689 112.48 224.689 112.928V118H222.353V109.824H224.113C224.177 110.091 224.262 110.491 224.369 111.024C224.657 110.565 225.004 110.224 225.409 110C225.825 109.776 226.278 109.664 226.769 109.664ZM241.283 112.48C241.283 112.117 241.165 111.824 240.931 111.6C240.707 111.376 240.339 111.264 239.827 111.264C239.528 111.264 239.272 111.317 239.059 111.424C238.845 111.52 238.68 111.643 238.563 111.792C238.456 111.941 238.403 112.08 238.403 112.208V112.336H236.147C236.125 112.208 236.115 112.112 236.115 112.048C236.115 111.589 236.264 111.179 236.563 110.816C236.872 110.453 237.299 110.171 237.843 109.968C238.387 109.765 239.011 109.664 239.715 109.664H240.051C241.203 109.664 242.077 109.893 242.675 110.352C243.272 110.8 243.571 111.419 243.571 112.208V115.984C243.571 116.176 243.613 116.32 243.699 116.416C243.795 116.512 243.907 116.56 244.035 116.56C244.141 116.56 244.259 116.539 244.387 116.496C244.515 116.453 244.616 116.416 244.691 116.384V117.824C244.296 118.048 243.827 118.16 243.283 118.16C242.696 118.16 242.248 118.043 241.939 117.808C241.629 117.563 241.448 117.221 241.395 116.784C240.648 117.701 239.731 118.16 238.643 118.16C237.832 118.16 237.165 117.995 236.643 117.664C236.12 117.333 235.859 116.704 235.859 115.776C235.859 115.019 236.072 114.443 236.499 114.048C236.936 113.643 237.539 113.371 238.307 113.232C239.075 113.093 240.067 113.024 241.283 113.024V112.48ZM241.283 114.336C240.269 114.336 239.512 114.437 239.011 114.64C238.52 114.832 238.275 115.152 238.275 115.6C238.275 115.952 238.371 116.203 238.563 116.352C238.765 116.491 239.069 116.56 239.475 116.56C239.752 116.56 240.029 116.485 240.307 116.336C240.584 116.187 240.813 115.973 240.995 115.696C241.187 115.419 241.283 115.109 241.283 114.768V114.336ZM251.021 118L249.085 115.328L248.173 116.208V118H245.837V106.48H248.173V113.632L251.037 109.824H253.677L250.669 113.664L253.805 118H251.021ZM262.406 114.944C262.406 115.659 262.235 116.261 261.894 116.752C261.552 117.232 261.099 117.589 260.534 117.824C259.979 118.048 259.371 118.16 258.71 118.16H258.454C257.696 118.16 257.014 118 256.406 117.68C255.798 117.36 255.318 116.901 254.966 116.304C254.624 115.696 254.454 114.976 254.454 114.144V113.68C254.454 112.859 254.63 112.144 254.982 111.536C255.334 110.928 255.808 110.464 256.406 110.144C257.014 109.824 257.696 109.664 258.454 109.664H258.71C259.371 109.664 259.984 109.803 260.55 110.08C261.115 110.347 261.568 110.741 261.91 111.264C262.251 111.776 262.422 112.384 262.422 113.088V114.304H256.822V114.688C256.822 115.221 256.976 115.669 257.286 116.032C257.606 116.384 258.038 116.56 258.582 116.56C259.072 116.56 259.456 116.427 259.734 116.16C260.022 115.883 260.166 115.477 260.166 114.944H262.406ZM258.47 111.264C258 111.264 257.616 111.429 257.318 111.76C257.03 112.091 256.864 112.512 256.822 113.024H260.054C260.054 112.48 259.926 112.053 259.67 111.744C259.424 111.424 259.024 111.264 258.47 111.264ZM41.472 137.664C41.9947 137.664 42.464 137.776 42.88 138C43.296 138.224 43.616 138.549 43.84 138.976C44.3947 138.101 45.1893 137.664 46.224 137.664C46.992 137.664 47.6267 137.899 48.128 138.368C48.64 138.827 48.896 139.467 48.896 140.288V146H46.56V140.752C46.56 140.304 46.464 139.963 46.272 139.728C46.08 139.483 45.8133 139.36 45.472 139.36C45.0987 139.36 44.784 139.509 44.528 139.808C44.272 140.107 44.144 140.48 44.144 140.928V146H41.808V140.752C41.808 140.315 41.7067 139.973 41.504 139.728C41.312 139.483 41.0453 139.36 40.704 139.36C40.3307 139.36 40.016 139.509 39.76 139.808C39.5147 140.107 39.392 140.48 39.392 140.928V146H37.056V137.824H38.816C38.88 138.091 38.9653 138.491 39.072 139.024C39.36 138.565 39.7067 138.224 40.112 138C40.528 137.776 40.9813 137.664 41.472 137.664ZM58.5619 142.944C58.5619 143.659 58.3912 144.261 58.0499 144.752C57.7085 145.232 57.2552 145.589 56.6899 145.824C56.1352 146.048 55.5272 146.16 54.8659 146.16H54.6099C53.8525 146.16 53.1699 146 52.5619 145.68C51.9539 145.36 51.4739 144.901 51.1219 144.304C50.7805 143.696 50.6099 142.976 50.6099 142.144V141.68C50.6099 140.859 50.7859 140.144 51.1379 139.536C51.4899 138.928 51.9645 138.464 52.5619 138.144C53.1699 137.824 53.8525 137.664 54.6099 137.664H54.8659C55.5272 137.664 56.1405 137.803 56.7059 138.08C57.2712 138.347 57.7245 138.741 58.0659 139.264C58.4072 139.776 58.5779 140.384 58.5779 141.088V142.304H52.9779V142.688C52.9779 143.221 53.1325 143.669 53.4419 144.032C53.7619 144.384 54.1939 144.56 54.7379 144.56C55.2285 144.56 55.6125 144.427 55.8899 144.16C56.1779 143.883 56.3219 143.477 56.3219 142.944H58.5619ZM54.6259 139.264C54.1565 139.264 53.7725 139.429 53.4739 139.76C53.1859 140.091 53.0205 140.512 52.9779 141.024H56.2099C56.2099 140.48 56.0819 140.053 55.8259 139.744C55.5805 139.424 55.1805 139.264 54.6259 139.264ZM65.3296 140.48C65.3296 140.117 65.2123 139.824 64.9776 139.6C64.7536 139.376 64.3856 139.264 63.8736 139.264C63.575 139.264 63.319 139.317 63.1056 139.424C62.8923 139.52 62.727 139.643 62.6096 139.792C62.503 139.941 62.4496 140.08 62.4496 140.208V140.336H60.1936C60.1723 140.208 60.1616 140.112 60.1616 140.048C60.1616 139.589 60.311 139.179 60.6096 138.816C60.919 138.453 61.3456 138.171 61.8896 137.968C62.4336 137.765 63.0576 137.664 63.7616 137.664H64.0976C65.2496 137.664 66.1243 137.893 66.7216 138.352C67.319 138.8 67.6176 139.419 67.6176 140.208V143.984C67.6176 144.176 67.6603 144.32 67.7456 144.416C67.8416 144.512 67.9536 144.56 68.0816 144.56C68.1883 144.56 68.3056 144.539 68.4336 144.496C68.5616 144.453 68.663 144.416 68.7376 144.384V145.824C68.343 146.048 67.8736 146.16 67.3296 146.16C66.743 146.16 66.295 146.043 65.9856 145.808C65.6763 145.563 65.495 145.221 65.4416 144.784C64.695 145.701 63.7776 146.16 62.6896 146.16C61.879 146.16 61.2123 145.995 60.6896 145.664C60.167 145.333 59.9056 144.704 59.9056 143.776C59.9056 143.019 60.119 142.443 60.5456 142.048C60.983 141.643 61.5856 141.371 62.3536 141.232C63.1216 141.093 64.1136 141.024 65.3296 141.024V140.48ZM65.3296 142.336C64.3163 142.336 63.559 142.437 63.0576 142.64C62.567 142.832 62.3216 143.152 62.3216 143.6C62.3216 143.952 62.4176 144.203 62.6096 144.352C62.8123 144.491 63.1163 144.56 63.5216 144.56C63.799 144.56 64.0763 144.485 64.3536 144.336C64.631 144.187 64.8603 143.973 65.0416 143.696C65.2336 143.419 65.3296 143.109 65.3296 142.768V142.336ZM71.8841 139.024C72.5561 138.117 73.4255 137.664 74.4921 137.664C75.3241 137.664 76.0068 137.888 76.5401 138.336C77.0841 138.784 77.3561 139.435 77.3561 140.288V146H75.0201V140.8C75.0201 140.384 74.8975 140.043 74.6521 139.776C74.4175 139.499 74.1135 139.36 73.7401 139.36C73.3241 139.36 72.9668 139.52 72.6681 139.84C72.3695 140.149 72.2201 140.528 72.2201 140.976V146H69.8841V137.824H71.6281L71.8841 139.024ZM79.415 134.48H81.783V136.32H79.415V134.48ZM79.431 146V137.824H81.767V146H79.431ZM85.8841 139.024C86.5561 138.117 87.4255 137.664 88.4921 137.664C89.3241 137.664 90.0068 137.888 90.5401 138.336C91.0841 138.784 91.3561 139.435 91.3561 140.288V146H89.0201V140.8C89.0201 140.384 88.8975 140.043 88.6521 139.776C88.4175 139.499 88.1135 139.36 87.7401 139.36C87.3241 139.36 86.9668 139.52 86.6681 139.84C86.3695 140.149 86.2201 140.528 86.2201 140.976V146H83.8841V137.824H85.6281L85.8841 139.024ZM99.047 144.144C99.7937 144.144 100.364 144.357 100.759 144.784C101.164 145.2 101.367 145.749 101.367 146.432C101.367 146.923 101.228 147.365 100.951 147.76C100.674 148.155 100.295 148.459 99.815 148.672C99.3457 148.896 98.823 149.008 98.247 149.008H94.871C94.2203 149.008 93.671 148.827 93.223 148.464C92.7857 148.112 92.567 147.621 92.567 146.992C92.567 146.608 92.679 146.261 92.903 145.952C93.1377 145.632 93.431 145.392 93.783 145.232C93.5377 145.072 93.351 144.875 93.223 144.64C93.095 144.405 93.031 144.149 93.031 143.872C93.031 143.477 93.159 143.136 93.415 142.848C93.671 142.549 94.0017 142.336 94.407 142.208C94.0443 141.984 93.7617 141.701 93.559 141.36C93.3563 141.008 93.255 140.635 93.255 140.24C93.255 139.483 93.5483 138.864 94.135 138.384C94.7323 137.904 95.6017 137.664 96.743 137.664H96.999C97.5003 137.664 97.9483 137.728 98.343 137.856C98.7803 137.6 99.0843 137.339 99.255 137.072C99.4257 136.805 99.5217 136.565 99.543 136.352H101.367C101.367 137.483 100.802 138.187 99.671 138.464L99.655 138.512C100.22 138.992 100.503 139.568 100.503 140.24C100.503 140.709 100.37 141.141 100.103 141.536C99.8363 141.92 99.4577 142.229 98.967 142.464C98.487 142.688 97.9323 142.8 97.303 142.8H96.199C95.879 142.8 95.6283 142.869 95.447 143.008C95.2763 143.147 95.191 143.301 95.191 143.472C95.191 143.685 95.271 143.851 95.431 143.968C95.6017 144.085 95.8577 144.144 96.199 144.144H99.047ZM95.495 140.24C95.495 140.613 95.6283 140.907 95.895 141.12C96.1617 141.323 96.4977 141.424 96.903 141.424C97.319 141.424 97.6603 141.323 97.927 141.12C98.1937 140.907 98.327 140.613 98.327 140.24C98.327 139.867 98.1937 139.579 97.927 139.376C97.6603 139.163 97.319 139.056 96.903 139.056C96.4977 139.056 96.1617 139.163 95.895 139.376C95.6283 139.579 95.495 139.867 95.495 140.24ZM98.183 147.568C98.4603 147.568 98.7003 147.483 98.903 147.312C99.1057 147.152 99.207 146.96 99.207 146.736C99.207 146.523 99.1217 146.341 98.951 146.192C98.7803 146.053 98.5563 145.984 98.279 145.984H95.495C95.2603 145.984 95.0577 146.059 94.887 146.208C94.7163 146.368 94.631 146.555 94.631 146.768C94.631 146.981 94.7163 147.168 94.887 147.328C95.0577 147.488 95.2603 147.568 95.495 147.568H98.183ZM107.131 136.112C106.993 136.069 106.822 136.032 106.619 136C106.417 135.957 106.257 135.936 106.139 135.936C105.883 135.936 105.665 136 105.483 136.128C105.313 136.256 105.227 136.512 105.227 136.896V137.824H107.131V139.424H105.227V146H102.891V139.424H101.931V137.824H102.891V136.752C102.891 135.152 103.713 134.352 105.355 134.352C105.622 134.352 105.931 134.384 106.283 134.448C106.635 134.512 106.918 134.592 107.131 134.688V136.112ZM115.84 144.08C115.84 144.24 115.888 144.363 115.984 144.448C116.08 144.523 116.186 144.56 116.304 144.56C116.41 144.56 116.528 144.539 116.656 144.496C116.784 144.453 116.885 144.416 116.96 144.384V145.824C116.565 146.048 116.096 146.16 115.552 146.16C114.485 146.16 113.866 145.771 113.696 144.992C113.024 145.771 112.202 146.16 111.232 146.16C110.4 146.16 109.712 145.936 109.168 145.488C108.634 145.04 108.368 144.389 108.368 143.536V137.824H110.704V143.024C110.704 143.44 110.821 143.787 111.056 144.064C111.301 144.331 111.61 144.464 111.984 144.464C112.4 144.464 112.757 144.309 113.056 144C113.354 143.68 113.504 143.296 113.504 142.848V137.824H115.84V144.08ZM118.197 146V134.48H120.533V146H118.197ZM128.261 138.848C128.858 138.059 129.626 137.664 130.565 137.664C131.205 137.664 131.781 137.819 132.293 138.128C132.805 138.437 133.21 138.907 133.509 139.536C133.808 140.165 133.957 140.944 133.957 141.872V142.048C133.957 142.933 133.818 143.685 133.541 144.304C133.264 144.923 132.885 145.387 132.405 145.696C131.936 146.005 131.402 146.16 130.805 146.16C130.293 146.16 129.84 146.053 129.445 145.84C129.061 145.627 128.752 145.365 128.517 145.056V148.896H126.181V137.824H128.021L128.261 138.848ZM131.589 141.2C131.589 140.571 131.445 140.091 131.157 139.76C130.869 139.429 130.501 139.264 130.053 139.264C129.605 139.264 129.237 139.429 128.949 139.76C128.661 140.091 128.517 140.571 128.517 141.2V142.528C128.517 143.147 128.661 143.627 128.949 143.968C129.237 144.299 129.605 144.464 130.053 144.464C130.501 144.464 130.869 144.299 131.157 143.968C131.445 143.627 131.589 143.147 131.589 142.528V141.2ZM140.289 140.624C140.289 140.293 140.198 140.011 140.017 139.776C139.835 139.531 139.547 139.408 139.153 139.408C138.779 139.408 138.491 139.557 138.289 139.856C138.097 140.144 138.001 140.507 138.001 140.944V146H135.697V137.824H137.425L137.713 139.024C137.755 138.907 137.862 138.741 138.033 138.528C138.214 138.315 138.47 138.117 138.801 137.936C139.142 137.755 139.542 137.664 140.001 137.664C140.737 137.664 141.302 137.893 141.697 138.352C142.102 138.811 142.305 139.419 142.305 140.176C142.305 140.336 142.294 140.496 142.273 140.656C142.262 140.816 142.251 140.928 142.241 140.992H140.289V140.624ZM151.413 142.144C151.413 142.965 151.237 143.68 150.885 144.288C150.543 144.896 150.069 145.36 149.461 145.68C148.853 146 148.17 146.16 147.413 146.16H147.157C146.399 146.16 145.717 146 145.109 145.68C144.501 145.36 144.021 144.896 143.669 144.288C143.327 143.68 143.157 142.965 143.157 142.144V141.68C143.157 140.859 143.327 140.144 143.669 139.536C144.021 138.928 144.501 138.464 145.109 138.144C145.717 137.824 146.399 137.664 147.157 137.664H147.413C148.17 137.664 148.853 137.824 149.461 138.144C150.069 138.464 150.543 138.928 150.885 139.536C151.237 140.144 151.413 140.859 151.413 141.68V142.144ZM149.045 141.264C149.045 140.613 148.879 140.117 148.549 139.776C148.229 139.435 147.807 139.264 147.285 139.264C146.762 139.264 146.335 139.435 146.005 139.776C145.685 140.117 145.525 140.613 145.525 141.264V142.56C145.525 143.211 145.685 143.707 146.005 144.048C146.335 144.389 146.762 144.56 147.285 144.56C147.807 144.56 148.229 144.389 148.549 144.048C148.879 143.707 149.045 143.211 149.045 142.56V141.264ZM158.766 144.144C159.512 144.144 160.083 144.357 160.478 144.784C160.883 145.2 161.086 145.749 161.086 146.432C161.086 146.923 160.947 147.365 160.67 147.76C160.392 148.155 160.014 148.459 159.534 148.672C159.064 148.896 158.542 149.008 157.966 149.008H154.59C153.939 149.008 153.39 148.827 152.942 148.464C152.504 148.112 152.286 147.621 152.286 146.992C152.286 146.608 152.398 146.261 152.622 145.952C152.856 145.632 153.15 145.392 153.502 145.232C153.256 145.072 153.07 144.875 152.942 144.64C152.814 144.405 152.75 144.149 152.75 143.872C152.75 143.477 152.878 143.136 153.134 142.848C153.39 142.549 153.72 142.336 154.126 142.208C153.763 141.984 153.48 141.701 153.278 141.36C153.075 141.008 152.974 140.635 152.974 140.24C152.974 139.483 153.267 138.864 153.854 138.384C154.451 137.904 155.32 137.664 156.462 137.664H156.718C157.219 137.664 157.667 137.728 158.062 137.856C158.499 137.6 158.803 137.339 158.974 137.072C159.144 136.805 159.24 136.565 159.262 136.352H161.086C161.086 137.483 160.52 138.187 159.39 138.464L159.374 138.512C159.939 138.992 160.222 139.568 160.222 140.24C160.222 140.709 160.088 141.141 159.822 141.536C159.555 141.92 159.176 142.229 158.686 142.464C158.206 142.688 157.651 142.8 157.022 142.8H155.918C155.598 142.8 155.347 142.869 155.166 143.008C154.995 143.147 154.91 143.301 154.91 143.472C154.91 143.685 154.99 143.851 155.15 143.968C155.32 144.085 155.576 144.144 155.918 144.144H158.766ZM155.214 140.24C155.214 140.613 155.347 140.907 155.614 141.12C155.88 141.323 156.216 141.424 156.622 141.424C157.038 141.424 157.379 141.323 157.646 141.12C157.912 140.907 158.046 140.613 158.046 140.24C158.046 139.867 157.912 139.579 157.646 139.376C157.379 139.163 157.038 139.056 156.622 139.056C156.216 139.056 155.88 139.163 155.614 139.376C155.347 139.579 155.214 139.867 155.214 140.24ZM157.902 147.568C158.179 147.568 158.419 147.483 158.622 147.312C158.824 147.152 158.926 146.96 158.926 146.736C158.926 146.523 158.84 146.341 158.67 146.192C158.499 146.053 158.275 145.984 157.998 145.984H155.214C154.979 145.984 154.776 146.059 154.606 146.208C154.435 146.368 154.35 146.555 154.35 146.768C154.35 146.981 154.435 147.168 154.606 147.328C154.776 147.488 154.979 147.568 155.214 147.568H157.902ZM166.898 140.624C166.898 140.293 166.807 140.011 166.626 139.776C166.445 139.531 166.157 139.408 165.762 139.408C165.389 139.408 165.101 139.557 164.898 139.856C164.706 140.144 164.61 140.507 164.61 140.944V146H162.306V137.824H164.034L164.322 139.024C164.365 138.907 164.471 138.741 164.642 138.528C164.823 138.315 165.079 138.117 165.41 137.936C165.751 137.755 166.151 137.664 166.61 137.664C167.346 137.664 167.911 137.893 168.306 138.352C168.711 138.811 168.914 139.419 168.914 140.176C168.914 140.336 168.903 140.496 168.882 140.656C168.871 140.816 168.861 140.928 168.85 140.992H166.898V140.624ZM177.718 142.944C177.718 143.659 177.547 144.261 177.206 144.752C176.865 145.232 176.411 145.589 175.846 145.824C175.291 146.048 174.683 146.16 174.022 146.16H173.766C173.009 146.16 172.326 146 171.718 145.68C171.11 145.36 170.63 144.901 170.278 144.304C169.937 143.696 169.766 142.976 169.766 142.144V141.68C169.766 140.859 169.942 140.144 170.294 139.536C170.646 138.928 171.121 138.464 171.718 138.144C172.326 137.824 173.009 137.664 173.766 137.664H174.022C174.683 137.664 175.297 137.803 175.862 138.08C176.427 138.347 176.881 138.741 177.222 139.264C177.563 139.776 177.734 140.384 177.734 141.088V142.304H172.134V142.688C172.134 143.221 172.289 143.669 172.598 144.032C172.918 144.384 173.35 144.56 173.894 144.56C174.385 144.56 174.769 144.427 175.046 144.16C175.334 143.883 175.478 143.477 175.478 142.944H177.718ZM173.782 139.264C173.313 139.264 172.929 139.429 172.63 139.76C172.342 140.091 172.177 140.512 172.134 141.024H175.366C175.366 140.48 175.238 140.053 174.982 139.744C174.737 139.424 174.337 139.264 173.782 139.264ZM180.95 143.504C180.95 143.877 181.115 144.149 181.446 144.32C181.777 144.48 182.187 144.56 182.678 144.56C183.105 144.56 183.483 144.496 183.814 144.368C184.155 144.24 184.326 144.037 184.326 143.76C184.326 143.461 184.171 143.248 183.862 143.12C183.553 142.992 183.073 142.88 182.422 142.784C181.739 142.667 181.179 142.539 180.742 142.4C180.305 142.261 179.926 142.021 179.606 141.68C179.297 141.339 179.142 140.864 179.142 140.256C179.142 139.701 179.302 139.232 179.622 138.848C179.953 138.453 180.385 138.16 180.918 137.968C181.462 137.765 182.054 137.664 182.694 137.664H183.014C183.579 137.664 184.113 137.76 184.614 137.952C185.126 138.133 185.537 138.395 185.846 138.736C186.155 139.067 186.31 139.445 186.31 139.872C186.31 139.957 186.305 140.037 186.294 140.112C186.283 140.176 186.278 140.213 186.278 140.224H184.23C184.23 139.584 183.739 139.264 182.758 139.264C182.31 139.264 181.947 139.328 181.67 139.456C181.403 139.584 181.27 139.76 181.27 139.984C181.27 140.251 181.414 140.437 181.702 140.544C182.001 140.651 182.465 140.752 183.094 140.848C183.809 140.965 184.385 141.093 184.822 141.232C185.27 141.36 185.659 141.6 185.99 141.952C186.321 142.293 186.486 142.779 186.486 143.408C186.486 144.379 186.145 145.083 185.462 145.52C184.779 145.947 183.91 146.16 182.854 146.16H182.326C181.665 146.16 181.073 146.059 180.55 145.856C180.027 145.653 179.617 145.365 179.318 144.992C179.03 144.619 178.886 144.192 178.886 143.712L178.902 143.392H180.95V143.504ZM189.575 143.504C189.575 143.877 189.74 144.149 190.071 144.32C190.402 144.48 190.812 144.56 191.303 144.56C191.73 144.56 192.108 144.496 192.439 144.368C192.78 144.24 192.951 144.037 192.951 143.76C192.951 143.461 192.796 143.248 192.487 143.12C192.178 142.992 191.698 142.88 191.047 142.784C190.364 142.667 189.804 142.539 189.367 142.4C188.93 142.261 188.551 142.021 188.231 141.68C187.922 141.339 187.767 140.864 187.767 140.256C187.767 139.701 187.927 139.232 188.247 138.848C188.578 138.453 189.01 138.16 189.543 137.968C190.087 137.765 190.679 137.664 191.319 137.664H191.639C192.204 137.664 192.738 137.76 193.239 137.952C193.751 138.133 194.162 138.395 194.471 138.736C194.78 139.067 194.935 139.445 194.935 139.872C194.935 139.957 194.93 140.037 194.919 140.112C194.908 140.176 194.903 140.213 194.903 140.224H192.855C192.855 139.584 192.364 139.264 191.383 139.264C190.935 139.264 190.572 139.328 190.295 139.456C190.028 139.584 189.895 139.76 189.895 139.984C189.895 140.251 190.039 140.437 190.327 140.544C190.626 140.651 191.09 140.752 191.719 140.848C192.434 140.965 193.01 141.093 193.447 141.232C193.895 141.36 194.284 141.6 194.615 141.952C194.946 142.293 195.111 142.779 195.111 143.408C195.111 144.379 194.77 145.083 194.087 145.52C193.404 145.947 192.535 146.16 191.479 146.16H190.951C190.29 146.16 189.698 146.059 189.175 145.856C188.652 145.653 188.242 145.365 187.943 144.992C187.655 144.619 187.511 144.192 187.511 143.712L187.527 143.392H189.575V143.504ZM196.712 143.648H199.048V146H196.712V143.648Z" fill="#D8D8D8"/>
</g>
<defs>
<filter id="filter0_dd_264_210" x="-34" y="0" width="443" height="276" filterUnits="userSpaceOnUse" color-interpolation-filters="sRGB">
<feFlood flood-opacity="0" result="BackgroundImageFix"/>
<feColorMatrix in="SourceAlpha" type="matrix" values="0 0 0 0 0 0 0 0 0 0 0 0 0 0 0 0 0 0 127 0" result="hardAlpha"/>
<feMorphology radius="10" operator="erode" in="SourceAlpha" result="effect1_dropShadow_264_210"/>
<feOffset dy="15"/>
<feGaussianBlur stdDeviation="15"/>
<feComposite in2="hardAlpha" operator="out"/>
<feColorMatrix type="matrix" values="0 0 0 0 0 0 0 0 0 0 0 0 0 0 0 0 0 0 0.1 0"/>
<feBlend mode="normal" in2="BackgroundImageFix" result="effect1_dropShadow_264_210"/>
<feColorMatrix in="SourceAlpha" type="matrix" values="0 0 0 0 0 0 0 0 0 0 0 0 0 0 0 0 0 0 127 0" result="hardAlpha"/>
<feMorphology radius="10" operator="erode" in="SourceAlpha" result="effect2_dropShadow_264_210"/>
<feOffset dy="40"/>
<feGaussianBlur stdDeviation="30"/>
<feComposite in2="hardAlpha" operator="out"/>
<feColorMatrix type="matrix" values="0 0 0 0 0 0 0 0 0 0 0 0 0 0 0 0 0 0 0.4 0"/>
<feBlend mode="normal" in2="effect1_dropShadow_264_210" result="effect2_dropShadow_264_210"/>
<feBlend mode="normal" in="SourceGraphic" in2="effect2_dropShadow_264_210" result="shape"/>
</filter>
</defs>
</svg>
