<svg width="24" height="24" viewBox="0 0 24 24" fill="none" xmlns="http://www.w3.org/2000/svg">
<path fill-rule="evenodd" clip-rule="evenodd" d="M12 1.5C17.799 1.5 22.5 6.20101 22.5 12C22.5 17.799 17.799 22.5 12 22.5C6.20101 22.5 1.5 17.799 1.5 12C1.5 6.20101 6.20101 1.5 12 1.5ZM12 6C11.3368 6 10.875 8.37868 10.875 9V12C10.875 12.6213 11.3787 13.125 12 13.125L13.4632 13.1241C15.0426 13.1151 19.5 13.0195 19.5 12C19.5 10.875 13.7463 10.875 13.125 10.875V9C13.125 8.37868 12.6632 6 12 6Z" fill="#D8D8D8"/>
</svg>
