<svg width="312" height="230" viewBox="0 0 312 230" fill="none" xmlns="http://www.w3.org/2000/svg">
<rect x="16" width="266" height="164" rx="4" fill="#174EFF"/>
<g filter="url(#filter0_dd_264_285)">
<rect x="36" y="104" width="226" height="36" rx="8" fill="#0C0C0C" shape-rendering="crispEdges"/>
<path d="M58.66 117.396V125.754H63.07L63.266 127H57.288V117.396H58.66ZM67.8599 117.396V118.642H66.7399V125.754H67.8599V127H64.2479V125.754H65.3679V118.642H64.2479V117.396H67.8599ZM77.0335 117.396V127H75.8715L71.1815 119.972L71.1395 119.986V127H69.8935V117.396H71.0975L75.7455 124.34L75.7875 124.326V117.396H77.0335ZM82.8342 122.534V123.906H79.2922V122.534H82.8342ZM89.0729 125.754H91.5929V127H85.1809V125.754H87.7009V119.23H85.1529V118.334C86.2636 118.222 87.3929 117.909 88.5409 117.396H89.0729V125.754ZM97.6862 125.754H100.206V127H93.7942V125.754H96.3142V119.23H93.7662V118.334C94.8769 118.222 96.0062 117.909 97.1542 117.396H97.6862V125.754ZM106.299 125.754H108.819V127H102.407V125.754H104.927V119.23H102.379V118.334C103.49 118.222 104.619 117.909 105.767 117.396H106.299V125.754ZM125.695 117.396L122.881 127H121.481L119.521 120.056H119.423L117.393 127H115.993L113.249 117.396H114.719L116.749 124.634H116.833L118.877 117.396H120.207L122.237 124.634H122.321L124.365 117.396H125.695ZM129.853 119.706C130.796 119.706 131.496 119.893 131.953 120.266C132.42 120.639 132.653 121.181 132.653 121.89V125.6C132.653 125.768 132.69 125.894 132.765 125.978C132.84 126.053 132.933 126.09 133.045 126.09C133.26 126.09 133.474 126.025 133.689 125.894V126.86C133.372 127.047 133.012 127.14 132.611 127.14C132.21 127.14 131.911 127.028 131.715 126.804C131.519 126.571 131.412 126.253 131.393 125.852C130.814 126.711 129.979 127.14 128.887 127.14C128.103 127.14 127.515 126.972 127.123 126.636C126.74 126.291 126.549 125.749 126.549 125.012C126.549 124.433 126.698 123.981 126.997 123.654C127.296 123.318 127.79 123.075 128.481 122.926C129.172 122.777 130.124 122.702 131.337 122.702V122.044C131.337 121.568 131.197 121.237 130.917 121.05C130.637 120.854 130.231 120.756 129.699 120.756C129.195 120.756 128.803 120.854 128.523 121.05C128.243 121.246 128.103 121.521 128.103 121.876V122.044H126.815C126.796 121.913 126.787 121.759 126.787 121.582C126.787 121.255 126.918 120.947 127.179 120.658C127.44 120.369 127.795 120.14 128.243 119.972C128.691 119.795 129.186 119.706 129.727 119.706H129.853ZM131.337 123.724C130.357 123.724 129.615 123.775 129.111 123.878C128.616 123.971 128.285 124.116 128.117 124.312C127.949 124.508 127.865 124.779 127.865 125.124C127.865 125.768 128.355 126.09 129.335 126.09C129.68 126.09 130.007 126.006 130.315 125.838C130.623 125.661 130.87 125.413 131.057 125.096C131.244 124.779 131.337 124.415 131.337 124.004V123.724ZM136.6 116.92V127H135.284V116.92H136.6ZM140.291 116.92V123.836L143.483 119.846H144.925L142.167 123.318L145.107 127H143.511L141.369 124.34L140.291 125.46V127H138.975V116.92H140.291ZM156.351 119.846L154.013 127H152.641L150.989 122.002H150.933L149.309 127H147.937L145.585 119.846H146.943L148.609 125.082H148.665L150.359 119.846H151.647L153.313 125.082H153.369L155.063 119.846H156.351ZM160.628 119.706C161.571 119.706 162.271 119.893 162.728 120.266C163.195 120.639 163.428 121.181 163.428 121.89V125.6C163.428 125.768 163.466 125.894 163.54 125.978C163.615 126.053 163.708 126.09 163.82 126.09C164.035 126.09 164.25 126.025 164.464 125.894V126.86C164.147 127.047 163.788 127.14 163.386 127.14C162.985 127.14 162.686 127.028 162.49 126.804C162.294 126.571 162.187 126.253 162.168 125.852C161.59 126.711 160.754 127.14 159.662 127.14C158.878 127.14 158.29 126.972 157.898 126.636C157.516 126.291 157.324 125.749 157.324 125.012C157.324 124.433 157.474 123.981 157.772 123.654C158.071 123.318 158.566 123.075 159.256 122.926C159.947 122.777 160.899 122.702 162.112 122.702V122.044C162.112 121.568 161.972 121.237 161.692 121.05C161.412 120.854 161.006 120.756 160.474 120.756C159.97 120.756 159.578 120.854 159.298 121.05C159.018 121.246 158.878 121.521 158.878 121.876V122.044H157.59C157.572 121.913 157.562 121.759 157.562 121.582C157.562 121.255 157.693 120.947 157.954 120.658C158.216 120.369 158.57 120.14 159.018 119.972C159.466 119.795 159.961 119.706 160.502 119.706H160.628ZM162.112 123.724C161.132 123.724 160.39 123.775 159.886 123.878C159.392 123.971 159.06 124.116 158.892 124.312C158.724 124.508 158.64 124.779 158.64 125.124C158.64 125.768 159.13 126.09 160.11 126.09C160.456 126.09 160.782 126.006 161.09 125.838C161.398 125.661 161.646 125.413 161.832 125.096C162.019 124.779 162.112 124.415 162.112 124.004V123.724ZM169.168 126.72C168.85 127.504 168.556 128.101 168.286 128.512C168.015 128.932 167.74 129.217 167.46 129.366C167.18 129.525 166.853 129.604 166.48 129.604C166.134 129.604 165.808 129.539 165.5 129.408V128.33C165.808 128.461 166.041 128.526 166.2 128.526C166.582 128.526 166.9 128.395 167.152 128.134C167.413 127.882 167.628 127.481 167.796 126.93L165.01 119.846H166.41L168.468 125.124H168.524L170.554 119.846H171.842L169.168 126.72ZM177.958 116.92V127H176.642V116.92H177.958ZM181.676 116.92V118.138H180.304V116.92H181.676ZM181.648 119.846V127H180.332V119.846H181.648ZM190.521 118.558C190.521 119.034 190.395 119.435 190.143 119.762C189.891 120.079 189.541 120.285 189.093 120.378L189.065 120.42C189.531 120.831 189.765 121.344 189.765 121.96C189.765 122.632 189.513 123.173 189.009 123.584C188.505 123.995 187.819 124.2 186.951 124.2H185.999C185.719 124.2 185.485 124.275 185.299 124.424C185.112 124.564 185.019 124.746 185.019 124.97C185.019 125.194 185.107 125.371 185.285 125.502C185.462 125.633 185.7 125.698 185.999 125.698H188.701C189.251 125.698 189.69 125.871 190.017 126.216C190.353 126.561 190.521 127 190.521 127.532C190.521 128.167 190.278 128.675 189.793 129.058C189.317 129.441 188.673 129.632 187.861 129.632H185.047C184.729 129.632 184.435 129.548 184.165 129.38C183.903 129.212 183.693 128.997 183.535 128.736C183.385 128.484 183.311 128.223 183.311 127.952C183.311 127.56 183.404 127.219 183.591 126.93C183.787 126.641 184.043 126.426 184.361 126.286C183.931 126.025 183.717 125.637 183.717 125.124C183.717 124.788 183.815 124.499 184.011 124.256C184.207 124.013 184.482 123.831 184.837 123.71C184.211 123.365 183.899 122.781 183.899 121.96C183.899 121.269 184.151 120.723 184.655 120.322C185.168 119.911 185.877 119.706 186.783 119.706H186.839C187.361 119.706 187.837 119.785 188.267 119.944C188.929 119.617 189.307 119.155 189.401 118.558H190.521ZM186.825 120.756C186.33 120.756 185.933 120.854 185.635 121.05C185.345 121.237 185.201 121.54 185.201 121.96C185.201 122.38 185.345 122.683 185.635 122.87C185.933 123.057 186.33 123.15 186.825 123.15C187.319 123.15 187.716 123.057 188.015 122.87C188.313 122.683 188.463 122.38 188.463 121.96C188.463 121.54 188.313 121.237 188.015 121.05C187.716 120.854 187.319 120.756 186.825 120.756ZM185.425 126.958C185.201 126.958 185.009 127.037 184.851 127.196C184.692 127.355 184.613 127.546 184.613 127.77C184.613 127.994 184.692 128.185 184.851 128.344C185.009 128.503 185.201 128.582 185.425 128.582H188.127C188.425 128.582 188.682 128.493 188.897 128.316C189.111 128.148 189.219 127.952 189.219 127.728C189.219 127.495 189.139 127.308 188.981 127.168C188.822 127.028 188.598 126.958 188.309 126.958H185.425ZM193.242 120.742C193.83 120.051 194.567 119.706 195.454 119.706C196.238 119.706 196.854 119.916 197.302 120.336C197.75 120.756 197.974 121.372 197.974 122.184V127H196.658V122.422C196.658 121.311 196.154 120.756 195.146 120.756C194.81 120.756 194.497 120.845 194.208 121.022C193.918 121.199 193.685 121.442 193.508 121.75C193.33 122.049 193.242 122.38 193.242 122.744V127H191.926V116.92H193.242V120.742ZM201.765 119.846H203.431V120.896H201.765V125.166C201.765 125.502 201.83 125.745 201.961 125.894C202.091 126.043 202.292 126.118 202.562 126.118C202.805 126.118 203.095 126.048 203.431 125.908V126.888C203.095 127.056 202.661 127.14 202.129 127.14C201.578 127.14 201.158 126.977 200.869 126.65C200.589 126.323 200.449 125.805 200.449 125.096V120.896H199.665V119.846H200.491L200.939 117.564H201.765V119.846ZM206.408 116.92V118.138H205.036V116.92H206.408ZM206.38 119.846V127H205.064V119.846H206.38ZM212.229 119.706C213.013 119.706 213.629 119.916 214.077 120.336C214.525 120.756 214.749 121.372 214.749 122.184V127H213.433V122.422C213.433 121.311 212.929 120.756 211.921 120.756C211.585 120.756 211.272 120.845 210.983 121.022C210.694 121.199 210.46 121.442 210.283 121.75C210.106 122.049 210.017 122.38 210.017 122.744V127H208.701V119.846H209.653L209.835 120.896C210.432 120.103 211.23 119.706 212.229 119.706ZM223.552 118.558C223.552 119.034 223.426 119.435 223.174 119.762C222.922 120.079 222.572 120.285 222.124 120.378L222.096 120.42C222.563 120.831 222.796 121.344 222.796 121.96C222.796 122.632 222.544 123.173 222.04 123.584C221.536 123.995 220.85 124.2 219.982 124.2H219.03C218.75 124.2 218.517 124.275 218.33 124.424C218.143 124.564 218.05 124.746 218.05 124.97C218.05 125.194 218.139 125.371 218.316 125.502C218.493 125.633 218.731 125.698 219.03 125.698H221.732C222.283 125.698 222.721 125.871 223.048 126.216C223.384 126.561 223.552 127 223.552 127.532C223.552 128.167 223.309 128.675 222.824 129.058C222.348 129.441 221.704 129.632 220.892 129.632H218.078C217.761 129.632 217.467 129.548 217.196 129.38C216.935 129.212 216.725 128.997 216.566 128.736C216.417 128.484 216.342 128.223 216.342 127.952C216.342 127.56 216.435 127.219 216.622 126.93C216.818 126.641 217.075 126.426 217.392 126.286C216.963 126.025 216.748 125.637 216.748 125.124C216.748 124.788 216.846 124.499 217.042 124.256C217.238 124.013 217.513 123.831 217.868 123.71C217.243 123.365 216.93 122.781 216.93 121.96C216.93 121.269 217.182 120.723 217.686 120.322C218.199 119.911 218.909 119.706 219.814 119.706H219.87C220.393 119.706 220.869 119.785 221.298 119.944C221.961 119.617 222.339 119.155 222.432 118.558H223.552ZM219.856 120.756C219.361 120.756 218.965 120.854 218.666 121.05C218.377 121.237 218.232 121.54 218.232 121.96C218.232 122.38 218.377 122.683 218.666 122.87C218.965 123.057 219.361 123.15 219.856 123.15C220.351 123.15 220.747 123.057 221.046 122.87C221.345 122.683 221.494 122.38 221.494 121.96C221.494 121.54 221.345 121.237 221.046 121.05C220.747 120.854 220.351 120.756 219.856 120.756ZM218.456 126.958C218.232 126.958 218.041 127.037 217.882 127.196C217.723 127.355 217.644 127.546 217.644 127.77C217.644 127.994 217.723 128.185 217.882 128.344C218.041 128.503 218.232 128.582 218.456 128.582H221.158C221.457 128.582 221.713 128.493 221.928 128.316C222.143 128.148 222.25 127.952 222.25 127.728C222.25 127.495 222.171 127.308 222.012 127.168C221.853 127.028 221.629 126.958 221.34 126.958H218.456Z" fill="#D8D8D8"/>
<path d="M238 125L234.536 120.5L241.464 120.5L238 125Z" fill="#D8D8D8"/>
</g>
<path d="M38.688 55.368V25.96H40.352V55.368H38.688Z" fill="white"/>
<path d="M57.2095 32.536V34.672H52.0495V49H49.6975V34.672H44.5375V32.536H57.2095ZM65.2285 48.52C64.6845 49.864 64.1805 50.888 63.7165 51.592C63.2525 52.312 62.7805 52.8 62.3005 53.056C61.8205 53.328 61.2605 53.464 60.6205 53.464C60.0285 53.464 59.4685 53.352 58.9405 53.128V51.28C59.4685 51.504 59.8685 51.616 60.1405 51.616C60.7965 51.616 61.3405 51.392 61.7725 50.944C62.2205 50.512 62.5885 49.824 62.8765 48.88L58.1005 36.736H60.5005L64.0285 45.784H64.1245L67.6045 36.736H69.8125L65.2285 48.52ZM77.8698 36.496C79.4218 36.496 80.6378 37.064 81.5178 38.2C82.3978 39.336 82.8378 40.896 82.8378 42.88V43.144C82.8378 45.032 82.3978 46.52 81.5178 47.608C80.6538 48.696 79.4378 49.24 77.8698 49.24C76.3658 49.24 75.1898 48.64 74.3418 47.44V53.344H72.0858V36.736H73.7658C73.8778 37.248 73.9818 37.808 74.0778 38.416C74.9898 37.136 76.2538 36.496 77.8698 36.496ZM77.4618 38.296C76.3738 38.296 75.5738 38.672 75.0618 39.424C74.5658 40.176 74.3178 41.32 74.3178 42.856C74.3178 44.424 74.5738 45.584 75.0858 46.336C75.6138 47.072 76.4058 47.44 77.4618 47.44C78.5178 47.44 79.3018 47.064 79.8138 46.312C80.3258 45.56 80.5818 44.408 80.5818 42.856C80.5818 41.288 80.3178 40.136 79.7898 39.4C79.2778 38.664 78.5018 38.296 77.4618 38.296ZM90.9979 36.496C92.0059 36.496 92.8939 36.712 93.6619 37.144C94.4459 37.56 95.0539 38.16 95.4859 38.944C95.9179 39.728 96.1339 40.64 96.1339 41.68V43.384H87.5659C87.5979 44.68 87.9019 45.68 88.4779 46.384C89.0539 47.088 89.9099 47.44 91.0459 47.44C92.0539 47.44 92.7979 47.144 93.2779 46.552C93.7579 45.96 93.9979 45.256 93.9979 44.44H96.1339C96.1339 45.4 95.9099 46.24 95.4619 46.96C95.0299 47.68 94.4219 48.24 93.6379 48.64C92.8699 49.04 91.9899 49.24 90.9979 49.24H90.9019C89.1739 49.24 87.8059 48.688 86.7979 47.584C85.8059 46.464 85.3099 44.976 85.3099 43.12V42.64C85.3099 41.424 85.5339 40.352 85.9819 39.424C86.4299 38.496 87.0699 37.776 87.9019 37.264C88.7339 36.752 89.7099 36.496 90.8299 36.496H90.9979ZM90.8779 38.296C89.9659 38.296 89.2219 38.576 88.6459 39.136C88.0859 39.696 87.7419 40.528 87.6139 41.632H93.9019V41.344C93.9019 40.432 93.6219 39.696 93.0619 39.136C92.5179 38.576 91.7899 38.296 90.8779 38.296ZM110.097 36.496C111.713 36.496 112.913 36.816 113.697 37.456C114.497 38.096 114.897 39.024 114.897 40.24V46.6C114.897 46.888 114.961 47.104 115.089 47.248C115.217 47.376 115.377 47.44 115.569 47.44C115.937 47.44 116.305 47.328 116.673 47.104V48.76C116.129 49.08 115.513 49.24 114.825 49.24C114.137 49.24 113.625 49.048 113.289 48.664C112.953 48.264 112.769 47.72 112.737 47.032C111.745 48.504 110.313 49.24 108.441 49.24C107.097 49.24 106.089 48.952 105.417 48.376C104.761 47.784 104.433 46.856 104.433 45.592C104.433 44.6 104.689 43.824 105.201 43.264C105.713 42.688 106.561 42.272 107.745 42.016C108.929 41.76 110.561 41.632 112.641 41.632V40.504C112.641 39.688 112.401 39.12 111.921 38.8C111.441 38.464 110.745 38.296 109.833 38.296C108.969 38.296 108.297 38.464 107.817 38.8C107.337 39.136 107.097 39.608 107.097 40.216V40.504H104.889C104.857 40.28 104.841 40.016 104.841 39.712C104.841 39.152 105.065 38.624 105.513 38.128C105.961 37.632 106.569 37.24 107.337 36.952C108.105 36.648 108.953 36.496 109.881 36.496H110.097ZM112.641 43.384C110.961 43.384 109.689 43.472 108.825 43.648C107.977 43.808 107.409 44.056 107.121 44.392C106.833 44.728 106.689 45.192 106.689 45.784C106.689 46.888 107.529 47.44 109.209 47.44C109.801 47.44 110.361 47.296 110.889 47.008C111.417 46.704 111.841 46.28 112.161 45.736C112.481 45.192 112.641 44.568 112.641 43.864V43.384ZM129.972 36.496C130.948 36.496 131.82 36.712 132.588 37.144C133.372 37.56 133.98 38.152 134.412 38.92C134.844 39.688 135.06 40.568 135.06 41.56H132.828C132.828 40.568 132.572 39.776 132.06 39.184C131.564 38.592 130.844 38.296 129.9 38.296C128.908 38.296 128.116 38.632 127.524 39.304C126.948 39.96 126.66 40.864 126.66 42.016V43.312C126.66 44.704 126.948 45.744 127.524 46.432C128.1 47.104 128.916 47.44 129.972 47.44C130.948 47.44 131.676 47.152 132.156 46.576C132.652 45.984 132.9 45.192 132.9 44.2H135.06C135.06 45.736 134.596 46.96 133.668 47.872C132.756 48.784 131.532 49.24 129.996 49.24H129.804C128.716 49.24 127.764 48.992 126.948 48.496C126.132 47.984 125.5 47.272 125.052 46.36C124.62 45.448 124.404 44.384 124.404 43.168V42.592C124.404 41.376 124.628 40.312 125.076 39.4C125.524 38.472 126.156 37.76 126.972 37.264C127.788 36.752 128.724 36.496 129.78 36.496H129.972ZM143.122 36.496C144.834 36.496 146.202 37.024 147.226 38.08C148.25 39.136 148.762 40.584 148.762 42.424V43.312C148.762 45.152 148.258 46.6 147.25 47.656C146.242 48.712 144.866 49.24 143.122 49.24C141.378 49.24 140.002 48.712 138.994 47.656C137.986 46.6 137.482 45.152 137.482 43.312V42.424C137.482 40.584 137.994 39.136 139.018 38.08C140.042 37.024 141.41 36.496 143.122 36.496ZM143.122 38.296C142.05 38.296 141.218 38.664 140.626 39.4C140.034 40.136 139.738 41.216 139.738 42.64V43.096C139.738 44.488 140.026 45.56 140.602 46.312C141.194 47.064 142.034 47.44 143.122 47.44C144.178 47.44 145.002 47.072 145.594 46.336C146.202 45.584 146.506 44.504 146.506 43.096V42.64C146.506 41.248 146.21 40.176 145.618 39.424C145.042 38.672 144.21 38.296 143.122 38.296ZM164.944 36.496C166.208 36.496 167.192 36.864 167.896 37.6C168.6 38.336 168.952 39.384 168.952 40.744V49H166.696V41.152C166.696 39.248 165.96 38.296 164.488 38.296C163.976 38.296 163.496 38.448 163.048 38.752C162.616 39.056 162.264 39.472 161.992 40C161.736 40.512 161.608 41.08 161.608 41.704V49H159.352V41.152C159.352 39.248 158.616 38.296 157.144 38.296C156.632 38.296 156.152 38.448 155.704 38.752C155.272 39.056 154.92 39.472 154.648 40C154.392 40.512 154.264 41.08 154.264 41.704V49H152.008V36.736H153.64L153.952 38.536C154.88 37.176 156.168 36.496 157.816 36.496C159.432 36.496 160.552 37.176 161.176 38.536C161.72 37.768 162.304 37.24 162.928 36.952C163.552 36.648 164.224 36.496 164.944 36.496ZM185.756 36.496C187.02 36.496 188.004 36.864 188.708 37.6C189.412 38.336 189.764 39.384 189.764 40.744V49H187.508V41.152C187.508 39.248 186.772 38.296 185.3 38.296C184.788 38.296 184.308 38.448 183.86 38.752C183.428 39.056 183.076 39.472 182.804 40C182.548 40.512 182.42 41.08 182.42 41.704V49H180.164V41.152C180.164 39.248 179.428 38.296 177.956 38.296C177.444 38.296 176.964 38.448 176.516 38.752C176.084 39.056 175.732 39.472 175.46 40C175.204 40.512 175.076 41.08 175.076 41.704V49H172.82V36.736H174.452L174.764 38.536C175.692 37.176 176.98 36.496 178.628 36.496C180.244 36.496 181.364 37.176 181.988 38.536C182.532 37.768 183.116 37.24 183.74 36.952C184.364 36.648 185.036 36.496 185.756 36.496ZM198.457 36.496C200.073 36.496 201.273 36.816 202.057 37.456C202.857 38.096 203.257 39.024 203.257 40.24V46.6C203.257 46.888 203.321 47.104 203.449 47.248C203.577 47.376 203.737 47.44 203.929 47.44C204.297 47.44 204.665 47.328 205.033 47.104V48.76C204.489 49.08 203.873 49.24 203.185 49.24C202.497 49.24 201.985 49.048 201.649 48.664C201.313 48.264 201.129 47.72 201.097 47.032C200.105 48.504 198.673 49.24 196.801 49.24C195.457 49.24 194.449 48.952 193.777 48.376C193.121 47.784 192.793 46.856 192.793 45.592C192.793 44.6 193.049 43.824 193.561 43.264C194.073 42.688 194.921 42.272 196.105 42.016C197.289 41.76 198.921 41.632 201.001 41.632V40.504C201.001 39.688 200.761 39.12 200.281 38.8C199.801 38.464 199.105 38.296 198.193 38.296C197.329 38.296 196.657 38.464 196.177 38.8C195.697 39.136 195.457 39.608 195.457 40.216V40.504H193.249C193.217 40.28 193.201 40.016 193.201 39.712C193.201 39.152 193.425 38.624 193.873 38.128C194.321 37.632 194.929 37.24 195.697 36.952C196.465 36.648 197.313 36.496 198.241 36.496H198.457ZM201.001 43.384C199.321 43.384 198.049 43.472 197.185 43.648C196.337 43.808 195.769 44.056 195.481 44.392C195.193 44.728 195.049 45.192 195.049 45.784C195.049 46.888 195.889 47.44 197.569 47.44C198.161 47.44 198.721 47.296 199.249 47.008C199.777 46.704 200.201 46.28 200.521 45.736C200.841 45.192 201.001 44.568 201.001 43.864V43.384ZM213.72 36.496C215.064 36.496 216.12 36.856 216.888 37.576C217.656 38.296 218.04 39.352 218.04 40.744V49H215.784V41.152C215.784 39.248 214.92 38.296 213.192 38.296C212.616 38.296 212.08 38.448 211.584 38.752C211.088 39.056 210.688 39.472 210.384 40C210.08 40.512 209.928 41.08 209.928 41.704V49H207.672V36.736H209.304L209.616 38.536C210.64 37.176 212.008 36.496 213.72 36.496ZM231.906 49H230.226C230.114 48.488 230.01 47.928 229.914 47.32C229.002 48.6 227.738 49.24 226.122 49.24C224.586 49.24 223.37 48.672 222.474 47.536C221.594 46.4 221.154 44.84 221.154 42.856V42.592C221.154 40.72 221.586 39.24 222.45 38.152C223.33 37.048 224.554 36.496 226.122 36.496C227.642 36.496 228.818 37.096 229.65 38.296V31.72H231.906V49ZM226.53 38.296C225.458 38.296 224.666 38.672 224.154 39.424C223.658 40.16 223.41 41.312 223.41 42.88C223.41 44.448 223.666 45.6 224.178 46.336C224.69 47.072 225.474 47.44 226.53 47.44C228.626 47.44 229.674 45.92 229.674 42.88C229.674 41.312 229.41 40.16 228.882 39.424C228.354 38.672 227.57 38.296 226.53 38.296ZM42.888 64.496C44.6 64.496 45.968 65.024 46.992 66.08C48.016 67.136 48.528 68.584 48.528 70.424V71.312C48.528 73.152 48.024 74.6 47.016 75.656C46.008 76.712 44.632 77.24 42.888 77.24C41.144 77.24 39.768 76.712 38.76 75.656C37.752 74.6 37.248 73.152 37.248 71.312V70.424C37.248 68.584 37.76 67.136 38.784 66.08C39.808 65.024 41.176 64.496 42.888 64.496ZM42.888 66.296C41.816 66.296 40.984 66.664 40.392 67.4C39.8 68.136 39.504 69.216 39.504 70.64V71.096C39.504 72.488 39.792 73.56 40.368 74.312C40.96 75.064 41.8 75.44 42.888 75.44C43.944 75.44 44.768 75.072 45.36 74.336C45.968 73.584 46.272 72.504 46.272 71.096V70.64C46.272 69.248 45.976 68.176 45.384 67.424C44.808 66.672 43.976 66.296 42.888 66.296ZM57.2933 64.496C58.4293 64.496 59.3173 64.864 59.9573 65.6C60.5973 66.32 60.9173 67.232 60.9173 68.336L60.8453 69.248H58.8533V68.72C58.8533 68.24 58.7333 67.816 58.4933 67.448C58.2533 67.08 57.9493 66.8 57.5813 66.608C57.2133 66.4 56.8453 66.296 56.4773 66.296C55.7093 66.296 55.1093 66.6 54.6773 67.208C54.2453 67.816 54.0293 68.64 54.0293 69.68V77H51.7733V64.736H53.3813L53.7173 66.56C53.8133 66.24 54.0293 65.92 54.3653 65.6C54.7013 65.28 55.1173 65.016 55.6133 64.808C56.1253 64.6 56.6853 64.496 57.2933 64.496ZM74.0783 64.496C74.9903 64.496 75.7983 64.64 76.5023 64.928C77.2223 65.216 77.7743 65.616 78.1583 66.128C78.5583 66.64 78.7583 67.208 78.7583 67.832L78.7343 68.264H76.5023V68.048C76.5023 66.88 75.5983 66.296 73.7903 66.296C71.9983 66.296 71.1023 66.832 71.1023 67.904C71.1023 68.4 71.3583 68.768 71.8703 69.008C72.3823 69.232 73.1663 69.448 74.2223 69.656C75.2303 69.864 76.0543 70.08 76.6943 70.304C77.3503 70.528 77.9023 70.88 78.3503 71.36C78.8143 71.84 79.0463 72.488 79.0463 73.304C79.0463 74.616 78.5983 75.6 77.7023 76.256C76.8063 76.912 75.5183 77.24 73.8383 77.24H73.4783C72.4703 77.24 71.5903 77.088 70.8383 76.784C70.0863 76.464 69.5023 76.04 69.0863 75.512C68.6863 74.968 68.4943 74.36 68.5103 73.688V73.16H70.7423V73.4C70.7423 74.76 71.8863 75.44 74.1743 75.44C74.8463 75.44 75.4463 75.288 75.9743 74.984C76.5183 74.68 76.7903 74.264 76.7903 73.736C76.7903 73.288 76.6383 72.936 76.3343 72.68C76.0463 72.424 75.6863 72.232 75.2543 72.104C74.8223 71.976 74.2223 71.848 73.4543 71.72C72.4623 71.528 71.6623 71.336 71.0543 71.144C70.4463 70.936 69.9263 70.592 69.4943 70.112C69.0623 69.632 68.8463 68.976 68.8463 68.144C68.8463 67.008 69.2943 66.12 70.1903 65.48C71.0863 64.824 72.3103 64.496 73.8623 64.496H74.0783ZM87.1386 64.496C88.1466 64.496 89.0346 64.712 89.8026 65.144C90.5866 65.56 91.1946 66.16 91.6266 66.944C92.0586 67.728 92.2746 68.64 92.2746 69.68V71.384H83.7066C83.7386 72.68 84.0426 73.68 84.6186 74.384C85.1946 75.088 86.0506 75.44 87.1866 75.44C88.1946 75.44 88.9386 75.144 89.4186 74.552C89.8986 73.96 90.1386 73.256 90.1386 72.44H92.2746C92.2746 73.4 92.0506 74.24 91.6026 74.96C91.1706 75.68 90.5626 76.24 89.7786 76.64C89.0106 77.04 88.1306 77.24 87.1386 77.24H87.0426C85.3146 77.24 83.9466 76.688 82.9386 75.584C81.9466 74.464 81.4506 72.976 81.4506 71.12V70.64C81.4506 69.424 81.6746 68.352 82.1226 67.424C82.5706 66.496 83.2106 65.776 84.0426 65.264C84.8746 64.752 85.8506 64.496 86.9706 64.496H87.1386ZM87.0186 66.296C86.1066 66.296 85.3626 66.576 84.7866 67.136C84.2266 67.696 83.8826 68.528 83.7546 69.632H90.0426V69.344C90.0426 68.432 89.7626 67.696 89.2026 67.136C88.6586 66.576 87.9306 66.296 87.0186 66.296ZM100.379 64.496C101.995 64.496 103.195 64.816 103.979 65.456C104.779 66.096 105.179 67.024 105.179 68.24V74.6C105.179 74.888 105.243 75.104 105.371 75.248C105.499 75.376 105.659 75.44 105.851 75.44C106.219 75.44 106.587 75.328 106.955 75.104V76.76C106.411 77.08 105.795 77.24 105.107 77.24C104.419 77.24 103.907 77.048 103.571 76.664C103.235 76.264 103.051 75.72 103.019 75.032C102.027 76.504 100.595 77.24 98.7225 77.24C97.3785 77.24 96.3705 76.952 95.6985 76.376C95.0425 75.784 94.7145 74.856 94.7145 73.592C94.7145 72.6 94.9705 71.824 95.4825 71.264C95.9945 70.688 96.8425 70.272 98.0265 70.016C99.2105 69.76 100.843 69.632 102.923 69.632V68.504C102.923 67.688 102.683 67.12 102.203 66.8C101.723 66.464 101.027 66.296 100.115 66.296C99.2505 66.296 98.5785 66.464 98.0985 66.8C97.6185 67.136 97.3785 67.608 97.3785 68.216V68.504H95.1705C95.1385 68.28 95.1225 68.016 95.1225 67.712C95.1225 67.152 95.3465 66.624 95.7945 66.128C96.2425 65.632 96.8505 65.24 97.6185 64.952C98.3865 64.648 99.2345 64.496 100.163 64.496H100.379ZM102.923 71.384C101.243 71.384 99.9705 71.472 99.1065 71.648C98.2585 71.808 97.6905 72.056 97.4025 72.392C97.1145 72.728 96.9705 73.192 96.9705 73.784C96.9705 74.888 97.8105 75.44 99.4905 75.44C100.083 75.44 100.643 75.296 101.171 75.008C101.699 74.704 102.123 74.28 102.443 73.736C102.763 73.192 102.923 72.568 102.923 71.864V71.384ZM115.114 64.496C116.25 64.496 117.138 64.864 117.778 65.6C118.418 66.32 118.738 67.232 118.738 68.336L118.666 69.248H116.674V68.72C116.674 68.24 116.554 67.816 116.314 67.448C116.074 67.08 115.77 66.8 115.402 66.608C115.034 66.4 114.666 66.296 114.298 66.296C113.53 66.296 112.93 66.6 112.498 67.208C112.066 67.816 111.85 68.64 111.85 69.68V77H109.594V64.736H111.202L111.538 66.56C111.634 66.24 111.85 65.92 112.186 65.6C112.522 65.28 112.938 65.016 113.434 64.808C113.946 64.6 114.506 64.496 115.114 64.496ZM126.159 64.496C127.135 64.496 128.007 64.712 128.775 65.144C129.559 65.56 130.167 66.152 130.599 66.92C131.031 67.688 131.247 68.568 131.247 69.56H129.015C129.015 68.568 128.759 67.776 128.247 67.184C127.751 66.592 127.031 66.296 126.087 66.296C125.095 66.296 124.303 66.632 123.711 67.304C123.135 67.96 122.847 68.864 122.847 70.016V71.312C122.847 72.704 123.135 73.744 123.711 74.432C124.287 75.104 125.103 75.44 126.159 75.44C127.135 75.44 127.863 75.152 128.343 74.576C128.839 73.984 129.087 73.192 129.087 72.2H131.247C131.247 73.736 130.783 74.96 129.855 75.872C128.943 76.784 127.719 77.24 126.183 77.24H125.991C124.903 77.24 123.951 76.992 123.135 76.496C122.319 75.984 121.687 75.272 121.239 74.36C120.807 73.448 120.591 72.384 120.591 71.168V70.592C120.591 69.376 120.815 68.312 121.263 67.4C121.711 66.472 122.343 65.76 123.159 65.264C123.975 64.752 124.911 64.496 125.967 64.496H126.159ZM136.67 66.272C137.678 65.088 138.942 64.496 140.462 64.496C141.806 64.496 142.862 64.856 143.63 65.576C144.398 66.296 144.782 67.352 144.782 68.744V77H142.526V69.152C142.526 67.248 141.662 66.296 139.934 66.296C139.358 66.296 138.822 66.448 138.326 66.752C137.83 67.056 137.43 67.472 137.126 68C136.822 68.512 136.67 69.08 136.67 69.704V77H134.414V59.72H136.67V66.272ZM150.752 74.336V77H148.304V74.336H150.752ZM156.704 74.336V77H154.256V74.336H156.704ZM162.632 74.336V77H160.184V74.336H162.632Z" fill="white" fill-opacity="0.55"/>
<defs>
<filter id="filter0_dd_264_285" x="-14" y="94" width="326" height="136" filterUnits="userSpaceOnUse" color-interpolation-filters="sRGB">
<feFlood flood-opacity="0" result="BackgroundImageFix"/>
<feColorMatrix in="SourceAlpha" type="matrix" values="0 0 0 0 0 0 0 0 0 0 0 0 0 0 0 0 0 0 127 0" result="hardAlpha"/>
<feMorphology radius="10" operator="erode" in="SourceAlpha" result="effect1_dropShadow_264_285"/>
<feOffset dy="15"/>
<feGaussianBlur stdDeviation="15"/>
<feComposite in2="hardAlpha" operator="out"/>
<feColorMatrix type="matrix" values="0 0 0 0 0 0 0 0 0 0 0 0 0 0 0 0 0 0 0.1 0"/>
<feBlend mode="normal" in2="BackgroundImageFix" result="effect1_dropShadow_264_285"/>
<feColorMatrix in="SourceAlpha" type="matrix" values="0 0 0 0 0 0 0 0 0 0 0 0 0 0 0 0 0 0 127 0" result="hardAlpha"/>
<feMorphology radius="10" operator="erode" in="SourceAlpha" result="effect2_dropShadow_264_285"/>
<feOffset dy="40"/>
<feGaussianBlur stdDeviation="30"/>
<feComposite in2="hardAlpha" operator="out"/>
<feColorMatrix type="matrix" values="0 0 0 0 0 0 0 0 0 0 0 0 0 0 0 0 0 0 0.4 0"/>
<feBlend mode="normal" in2="effect1_dropShadow_264_285" result="effect2_dropShadow_264_285"/>
<feBlend mode="normal" in="SourceGraphic" in2="effect2_dropShadow_264_285" result="shape"/>
</filter>
</defs>
</svg>
