<svg width="343" height="247" viewBox="0 0 343 247" fill="none" xmlns="http://www.w3.org/2000/svg">
<rect width="343" height="247" rx="4" fill="#0C0C0C"/>
<path d="M43.68 67.5V51.34H43.52L37.824 67.5H32.64L26.944 51.34H26.784V67.5H22.304V45.548H30.272L35.392 60.044H35.52L40.64 45.548H48.608V67.5H43.68ZM53.2415 67.5V45.548H68.6975L68.1535 49.484H58.1055V54.284H67.4815V58.22H58.1055V63.564H68.2495L68.7935 67.5H53.2415ZM72.3665 67.5V45.548H87.8225L87.2785 49.484H77.2305V54.284H86.6065V58.22H77.2305V63.564H87.3745L87.9185 67.5H72.3665ZM100.548 49.516V67.5H95.6515V49.516H89.4115V45.548H106.756V49.516H100.548ZM126.703 59.084V67.5H121.775V59.084L114.255 45.548H119.823L124.399 54.252H124.559L129.135 45.548H134.191L126.703 59.084ZM155.526 58.092C155.526 60.0973 155.089 61.836 154.214 63.308C153.34 64.78 152.156 65.9 150.662 66.668C149.19 67.436 147.548 67.82 145.734 67.82C143.921 67.82 142.268 67.436 140.774 66.668C139.302 65.9 138.129 64.78 137.254 63.308C136.38 61.836 135.942 60.0973 135.942 58.092V54.956C135.942 52.9507 136.38 51.212 137.254 49.74C138.129 48.268 139.302 47.148 140.774 46.38C142.268 45.612 143.921 45.228 145.734 45.228C147.548 45.228 149.19 45.612 150.662 46.38C152.156 47.148 153.34 48.268 154.214 49.74C155.089 51.212 155.526 52.9507 155.526 54.956V58.092ZM150.342 54.252C150.342 52.6307 149.916 51.3827 149.062 50.508C148.209 49.612 147.1 49.164 145.734 49.164C144.369 49.164 143.26 49.612 142.406 50.508C141.553 51.3827 141.126 52.6307 141.126 54.252V58.796C141.126 60.4173 141.553 61.676 142.406 62.572C143.26 63.4467 144.369 63.884 145.734 63.884C147.1 63.884 148.209 63.4467 149.062 62.572C149.916 61.676 150.342 60.4173 150.342 58.796V54.252ZM176.551 60.524C176.551 61.9747 176.209 63.2547 175.527 64.364C174.844 65.4733 173.873 66.3267 172.615 66.924C171.356 67.5213 169.905 67.82 168.263 67.82H167.367C165.724 67.82 164.273 67.5213 163.015 66.924C161.777 66.3267 160.817 65.4733 160.135 64.364C159.452 63.2547 159.111 61.9747 159.111 60.524V45.548H164.039V60.428C164.039 61.4307 164.391 62.2627 165.095 62.924C165.82 63.5853 166.737 63.916 167.847 63.916C168.977 63.916 169.884 63.596 170.567 62.956C171.271 62.2947 171.623 61.452 171.623 60.428V45.548H176.551V60.524ZM199.33 67.308C198.626 67.5853 197.708 67.724 196.578 67.724C195.49 67.724 194.604 67.4573 193.922 66.924C193.239 66.3907 192.898 65.4947 192.898 64.236C192.898 62.4013 192.652 60.972 192.162 59.948C191.692 58.924 190.796 58.412 189.474 58.412H185.762V67.5H180.898V45.548H190.722C192.812 45.548 194.562 45.9747 195.97 46.828C197.399 47.6813 198.114 49.068 198.114 50.988C198.114 51.756 197.943 52.5133 197.602 53.26C197.26 54.0067 196.78 54.6467 196.162 55.18C195.564 55.7133 194.903 56.044 194.178 56.172V56.332C195.116 56.6307 195.938 57.2707 196.642 58.252C197.346 59.2333 197.698 60.5453 197.698 62.188C197.698 64.5347 198.242 65.8787 199.33 66.22V67.308ZM190.562 54.54C191.266 54.54 191.863 54.3053 192.354 53.836C192.866 53.3667 193.122 52.8013 193.122 52.14V51.916C193.122 51.212 192.876 50.636 192.386 50.188C191.916 49.7187 191.308 49.484 190.562 49.484H185.762V54.54H190.562ZM26.72 96.796C26.72 98.4173 27.1573 99.676 28.032 100.572C28.9067 101.447 30.016 101.884 31.36 101.884C32.8747 101.884 33.9947 101.479 34.72 100.668C35.4453 99.836 35.808 98.5667 35.808 96.86H40.32C40.32 98.7373 39.936 100.359 39.168 101.724C38.4213 103.068 37.3867 104.092 36.064 104.796C34.7413 105.479 33.248 105.82 31.584 105.82H31.136C29.3013 105.82 27.6587 105.447 26.208 104.7C24.7573 103.953 23.616 102.855 22.784 101.404C21.952 99.932 21.536 98.1613 21.536 96.092V92.956C21.536 90.9507 21.952 89.212 22.784 87.74C23.616 86.268 24.7467 85.148 26.176 84.38C27.6267 83.612 29.2373 83.228 31.008 83.228H31.456C33.1627 83.228 34.6773 83.5693 36 84.252C37.344 84.9133 38.4 85.9267 39.168 87.292C39.936 88.636 40.32 90.2893 40.32 92.252H35.616C35.616 90.588 35.2427 89.3293 34.496 88.476C33.7707 87.6013 32.7147 87.164 31.328 87.164C29.984 87.164 28.8747 87.612 28 88.508C27.1467 89.3827 26.72 90.6307 26.72 92.252V96.796ZM62.9638 96.092C62.9638 98.0973 62.5264 99.836 61.6518 101.308C60.7771 102.78 59.5931 103.9 58.0998 104.668C56.6278 105.436 54.9851 105.82 53.1718 105.82C51.3584 105.82 49.7051 105.436 48.2118 104.668C46.7398 103.9 45.5664 102.78 44.6918 101.308C43.8171 99.836 43.3798 98.0973 43.3798 96.092V92.956C43.3798 90.9507 43.8171 89.212 44.6918 87.74C45.5664 86.268 46.7398 85.148 48.2118 84.38C49.7051 83.612 51.3584 83.228 53.1718 83.228C54.9851 83.228 56.6278 83.612 58.0998 84.38C59.5931 85.148 60.7771 86.268 61.6518 87.74C62.5264 89.212 62.9638 90.9507 62.9638 92.956V96.092ZM57.7798 92.252C57.7798 90.6307 57.3531 89.3827 56.4998 88.508C55.6464 87.612 54.5371 87.164 53.1718 87.164C51.8064 87.164 50.6971 87.612 49.8438 88.508C48.9904 89.3827 48.5638 90.6307 48.5638 92.252V96.796C48.5638 98.4173 48.9904 99.676 49.8438 100.572C50.6971 101.447 51.8064 101.884 53.1718 101.884C54.5371 101.884 55.6464 101.447 56.4998 100.572C57.3531 99.676 57.7798 98.4173 57.7798 96.796V92.252ZM88.18 105.5V89.34H88.02L82.324 105.5H77.14L71.444 89.34H71.284V105.5H66.804V83.548H74.772L79.892 98.044H80.02L85.14 83.548H93.108V105.5H88.18ZM119.118 105.5V89.34H118.958L113.262 105.5H108.078L102.382 89.34H102.222V105.5H97.7415V83.548H105.71L110.83 98.044H110.958L116.078 83.548H124.046V105.5H119.118ZM141.479 101.18H132.743L131.207 105.5H126.439L134.407 83.548H140.295L148.263 105.5H143.079L141.479 101.18ZM134.087 97.436H140.167C139.356 95.0253 138.375 92.156 137.223 88.828H137.063L134.087 97.436ZM157.017 95.388C156.782 95.0467 156.462 94.5453 156.057 93.884C155.651 93.2013 155.385 92.7533 155.257 92.54L155.129 92.636V105.5H150.617V83.548H154.809L161.721 93.724L162.681 95.228C163.022 95.8253 163.289 96.2627 163.481 96.54L163.577 96.444V83.548H168.089V105.5H163.897L157.017 95.388ZM181.062 83.548C182.875 83.548 184.518 83.932 185.99 84.7C187.483 85.468 188.667 86.588 189.542 88.06C190.416 89.532 190.854 91.2707 190.854 93.276V95.772C190.854 97.7773 190.416 99.516 189.542 100.988C188.667 102.46 187.483 103.58 185.99 104.348C184.518 105.116 182.875 105.5 181.062 105.5H172.742V83.548H181.062ZM177.702 101.564H181.062C182.427 101.564 183.536 101.127 184.39 100.252C185.243 99.356 185.67 98.0973 185.67 96.476V92.572C185.67 90.9507 185.243 89.7027 184.39 88.828C183.536 87.932 182.427 87.484 181.062 87.484H177.702V101.564ZM22.304 143.5V121.548H27.264V139.404H36.288L36.832 143.5H22.304ZM39.3665 121.548H49.4785V125.484H46.9185V139.564H49.4785V143.5H39.3665V139.564H41.9585V125.484H39.3665V121.548ZM60.5165 133.388C60.2818 133.047 59.9618 132.545 59.5565 131.884C59.1512 131.201 58.8845 130.753 58.7565 130.54L58.6285 130.636V143.5H54.1165V121.548H58.3085L65.2205 131.724L66.1805 133.228C66.5218 133.825 66.7885 134.263 66.9805 134.54L67.0765 134.444V121.548H71.5885V143.5H67.3965L60.5165 133.388ZM76.2415 143.5V121.548H91.6975L91.1535 125.484H81.1055V130.284H90.4815V134.22H81.1055V139.564H91.2495L91.7935 143.5H76.2415Z" fill="#D8D8D8"/>
<path d="M25.504 168.364C26.3573 168.364 27.104 168.54 27.744 168.892C28.384 169.244 28.8747 169.751 29.216 170.412C29.568 171.063 29.744 171.836 29.744 172.732H28.176C28.176 171.804 27.9467 171.084 27.488 170.572C27.0293 170.049 26.368 169.788 25.504 169.788C24.544 169.788 23.8133 170.087 23.312 170.684C22.8107 171.271 22.56 172.14 22.56 173.292V174.732C22.56 175.873 22.8053 176.743 23.296 177.34C23.7867 177.937 24.512 178.236 25.472 178.236C26.368 178.236 27.0507 177.98 27.52 177.468C28 176.956 28.24 176.241 28.24 175.324H29.744C29.744 176.209 29.568 176.977 29.216 177.628C28.8747 178.279 28.384 178.78 27.744 179.132C27.104 179.484 26.3573 179.66 25.504 179.66C24.0853 179.66 22.976 179.228 22.176 178.364C21.3867 177.489 20.992 176.279 20.992 174.732V173.292C20.992 171.756 21.3867 170.551 22.176 169.676C22.976 168.801 24.0853 168.364 25.504 168.364ZM35.2014 171.164C36.3427 171.164 37.2547 171.516 37.9374 172.22C38.62 172.924 38.9614 173.889 38.9614 175.116V175.708C38.9614 176.935 38.6254 177.9 37.9534 178.604C37.2814 179.308 36.364 179.66 35.2014 179.66C34.0387 179.66 33.1214 179.308 32.4494 178.604C31.7774 177.9 31.4414 176.935 31.4414 175.708V175.116C31.4414 173.889 31.7827 172.924 32.4654 172.22C33.148 171.516 34.06 171.164 35.2014 171.164ZM35.2014 172.364C34.4867 172.364 33.932 172.609 33.5374 173.1C33.1427 173.591 32.9454 174.311 32.9454 175.26V175.564C32.9454 176.492 33.1374 177.207 33.5214 177.708C33.916 178.209 34.476 178.46 35.2014 178.46C35.9054 178.46 36.4547 178.215 36.8494 177.724C37.2547 177.223 37.4574 176.503 37.4574 175.564V175.26C37.4574 174.332 37.26 173.617 36.8654 173.116C36.4814 172.615 35.9267 172.364 35.2014 172.364ZM49.7489 171.164C50.5915 171.164 51.2475 171.409 51.7169 171.9C52.1862 172.391 52.4209 173.089 52.4209 173.996V179.5H50.9169V174.268C50.9169 172.999 50.4262 172.364 49.4449 172.364C49.1035 172.364 48.7835 172.465 48.4849 172.668C48.1969 172.871 47.9622 173.148 47.7809 173.5C47.6102 173.841 47.5249 174.22 47.5249 174.636V179.5H46.0209V174.268C46.0209 172.999 45.5302 172.364 44.5489 172.364C44.2075 172.364 43.8875 172.465 43.5889 172.668C43.3009 172.871 43.0662 173.148 42.8849 173.5C42.7142 173.841 42.6289 174.22 42.6289 174.636V179.5H41.1249V171.324H42.2129L42.4209 172.524C43.0395 171.617 43.8982 171.164 44.9969 171.164C46.0742 171.164 46.8209 171.617 47.2369 172.524C47.5995 172.012 47.9889 171.66 48.4049 171.468C48.8209 171.265 49.2689 171.164 49.7489 171.164ZM58.8559 171.164C59.8905 171.164 60.7012 171.543 61.2879 172.3C61.8745 173.057 62.1679 174.097 62.1679 175.42V175.596C62.1679 176.855 61.8745 177.847 61.2879 178.572C60.7119 179.297 59.9012 179.66 58.8559 179.66C57.8532 179.66 57.0692 179.26 56.5039 178.46V182.396H54.9999V171.324H56.1199C56.1945 171.665 56.2639 172.039 56.3279 172.444C56.9359 171.591 57.7785 171.164 58.8559 171.164ZM58.5839 172.364C57.8585 172.364 57.3252 172.615 56.9839 173.116C56.6532 173.617 56.4879 174.38 56.4879 175.404C56.4879 176.449 56.6585 177.223 56.9999 177.724C57.3519 178.215 57.8799 178.46 58.5839 178.46C59.2879 178.46 59.8105 178.209 60.1519 177.708C60.4932 177.207 60.6639 176.439 60.6639 175.404C60.6639 174.359 60.4879 173.591 60.1359 173.1C59.7945 172.609 59.2772 172.364 58.5839 172.364ZM65.896 167.98V179.5H64.392V167.98H65.896ZM71.8893 171.164C72.5613 171.164 73.1533 171.308 73.6653 171.596C74.1879 171.873 74.5933 172.273 74.8813 172.796C75.1693 173.319 75.3133 173.927 75.3133 174.62V175.756H69.6013C69.6226 176.62 69.8253 177.287 70.2093 177.756C70.5933 178.225 71.1639 178.46 71.9213 178.46C72.5933 178.46 73.0893 178.263 73.4093 177.868C73.7293 177.473 73.8893 177.004 73.8893 176.46H75.3133C75.3133 177.1 75.1639 177.66 74.8653 178.14C74.5773 178.62 74.1719 178.993 73.6493 179.26C73.1373 179.527 72.5506 179.66 71.8893 179.66H71.8253C70.6733 179.66 69.7613 179.292 69.0893 178.556C68.4279 177.809 68.0973 176.817 68.0973 175.58V175.26C68.0973 174.449 68.2466 173.735 68.5453 173.116C68.8439 172.497 69.2706 172.017 69.8253 171.676C70.3799 171.335 71.0306 171.164 71.7773 171.164H71.8893ZM71.8093 172.364C71.2013 172.364 70.7053 172.551 70.3213 172.924C69.9479 173.297 69.7186 173.852 69.6332 174.588H73.8253V174.396C73.8253 173.788 73.6386 173.297 73.2653 172.924C72.9026 172.551 72.4173 172.364 71.8093 172.364ZM79.2599 171.324H81.1639V172.524H79.2599V177.404C79.2599 177.788 79.3345 178.065 79.4839 178.236C79.6332 178.407 79.8625 178.492 80.1719 178.492C80.4492 178.492 80.7799 178.412 81.1639 178.252V179.372C80.7799 179.564 80.2839 179.66 79.6759 179.66C79.0465 179.66 78.5665 179.473 78.2359 179.1C77.9159 178.727 77.7559 178.135 77.7559 177.324V172.524H76.8599V171.324H77.8039L78.3159 168.716H79.2599V171.324ZM86.3111 171.164C86.9831 171.164 87.5751 171.308 88.0871 171.596C88.6098 171.873 89.0151 172.273 89.3031 172.796C89.5911 173.319 89.7351 173.927 89.7351 174.62V175.756H84.0231C84.0445 176.62 84.2471 177.287 84.6311 177.756C85.0151 178.225 85.5858 178.46 86.3431 178.46C87.0151 178.46 87.5111 178.263 87.8311 177.868C88.1511 177.473 88.3111 177.004 88.3111 176.46H89.7351C89.7351 177.1 89.5858 177.66 89.2871 178.14C88.9991 178.62 88.5938 178.993 88.0711 179.26C87.5591 179.527 86.9725 179.66 86.3111 179.66H86.2471C85.0951 179.66 84.1831 179.292 83.5111 178.556C82.8498 177.809 82.5191 176.817 82.5191 175.58V175.26C82.5191 174.449 82.6685 173.735 82.9671 173.116C83.2658 172.497 83.6925 172.017 84.2471 171.676C84.8018 171.335 85.4525 171.164 86.1991 171.164H86.3111ZM86.2311 172.364C85.6231 172.364 85.1271 172.551 84.7431 172.924C84.3698 173.297 84.1405 173.852 84.0551 174.588H88.2471V174.396C88.2471 173.788 88.0605 173.297 87.6871 172.924C87.3245 172.551 86.8391 172.364 86.2311 172.364ZM99.044 171.164C100.121 171.164 100.921 171.377 101.444 171.804C101.977 172.231 102.244 172.849 102.244 173.66V177.9C102.244 178.092 102.287 178.236 102.372 178.332C102.457 178.417 102.564 178.46 102.692 178.46C102.937 178.46 103.183 178.385 103.428 178.236V179.34C103.065 179.553 102.655 179.66 102.196 179.66C101.737 179.66 101.396 179.532 101.172 179.276C100.948 179.009 100.825 178.647 100.804 178.188C100.143 179.169 99.188 179.66 97.94 179.66C97.044 179.66 96.372 179.468 95.924 179.084C95.4867 178.689 95.268 178.071 95.268 177.228C95.268 176.567 95.4387 176.049 95.78 175.676C96.1213 175.292 96.6867 175.015 97.476 174.844C98.2653 174.673 99.3533 174.588 100.74 174.588V173.836C100.74 173.292 100.58 172.913 100.26 172.7C99.94 172.476 99.476 172.364 98.868 172.364C98.292 172.364 97.844 172.476 97.524 172.7C97.204 172.924 97.044 173.239 97.044 173.644V173.836H95.572C95.5507 173.687 95.54 173.511 95.54 173.308C95.54 172.935 95.6893 172.583 95.988 172.252C96.2867 171.921 96.692 171.66 97.204 171.468C97.716 171.265 98.2813 171.164 98.9 171.164H99.044ZM100.74 175.756C99.62 175.756 98.772 175.815 98.196 175.932C97.6307 176.039 97.252 176.204 97.06 176.428C96.868 176.652 96.772 176.961 96.772 177.356C96.772 178.092 97.332 178.46 98.452 178.46C98.8467 178.46 99.22 178.364 99.572 178.172C99.924 177.969 100.207 177.687 100.42 177.324C100.633 176.961 100.74 176.545 100.74 176.076V175.756ZM109.219 171.164C110.115 171.164 110.819 171.404 111.331 171.884C111.843 172.364 112.099 173.068 112.099 173.996V179.5H110.595V174.268C110.595 172.999 110.019 172.364 108.867 172.364C108.483 172.364 108.126 172.465 107.795 172.668C107.465 172.871 107.198 173.148 106.995 173.5C106.793 173.841 106.691 174.22 106.691 174.636V179.5H105.187V171.324H106.275L106.483 172.524C107.166 171.617 108.078 171.164 109.219 171.164ZM118.288 179.18C117.925 180.076 117.589 180.759 117.28 181.228C116.97 181.708 116.656 182.033 116.336 182.204C116.016 182.385 115.642 182.476 115.216 182.476C114.821 182.476 114.448 182.401 114.096 182.252V181.02C114.448 181.169 114.714 181.244 114.896 181.244C115.333 181.244 115.696 181.095 115.984 180.796C116.282 180.508 116.528 180.049 116.72 179.42L113.536 171.324H115.136L117.488 177.356H117.552L119.872 171.324H121.344L118.288 179.18ZM129.982 171.164C131.059 171.164 131.859 171.377 132.382 171.804C132.915 172.231 133.182 172.849 133.182 173.66V177.9C133.182 178.092 133.224 178.236 133.31 178.332C133.395 178.417 133.502 178.46 133.63 178.46C133.875 178.46 134.12 178.385 134.366 178.236V179.34C134.003 179.553 133.592 179.66 133.134 179.66C132.675 179.66 132.334 179.532 132.11 179.276C131.886 179.009 131.763 178.647 131.742 178.188C131.08 179.169 130.126 179.66 128.878 179.66C127.982 179.66 127.31 179.468 126.862 179.084C126.424 178.689 126.206 178.071 126.206 177.228C126.206 176.567 126.376 176.049 126.718 175.676C127.059 175.292 127.624 175.015 128.414 174.844C129.203 174.673 130.291 174.588 131.678 174.588V173.836C131.678 173.292 131.518 172.913 131.198 172.7C130.878 172.476 130.414 172.364 129.806 172.364C129.23 172.364 128.782 172.476 128.462 172.7C128.142 172.924 127.982 173.239 127.982 173.644V173.836H126.51C126.488 173.687 126.478 173.511 126.478 173.308C126.478 172.935 126.627 172.583 126.926 172.252C127.224 171.921 127.63 171.66 128.142 171.468C128.654 171.265 129.219 171.164 129.838 171.164H129.982ZM131.678 175.756C130.558 175.756 129.71 175.815 129.134 175.932C128.568 176.039 128.19 176.204 127.998 176.428C127.806 176.652 127.71 176.961 127.71 177.356C127.71 178.092 128.27 178.46 129.39 178.46C129.784 178.46 130.158 178.364 130.51 178.172C130.862 177.969 131.144 177.687 131.358 177.324C131.571 176.961 131.678 176.545 131.678 176.076V175.756ZM139.325 171.164C139.976 171.164 140.557 171.308 141.069 171.596C141.592 171.873 141.997 172.268 142.285 172.78C142.573 173.292 142.717 173.879 142.717 174.54H141.229C141.229 173.879 141.058 173.351 140.717 172.956C140.386 172.561 139.906 172.364 139.277 172.364C138.616 172.364 138.088 172.588 137.693 173.036C137.309 173.473 137.117 174.076 137.117 174.844V175.708C137.117 176.636 137.309 177.329 137.693 177.788C138.077 178.236 138.621 178.46 139.325 178.46C139.976 178.46 140.461 178.268 140.781 177.884C141.112 177.489 141.277 176.961 141.277 176.3H142.717C142.717 177.324 142.408 178.14 141.789 178.748C141.181 179.356 140.365 179.66 139.341 179.66H139.213C138.488 179.66 137.853 179.495 137.309 179.164C136.765 178.823 136.344 178.348 136.045 177.74C135.757 177.132 135.613 176.423 135.613 175.612V175.228C135.613 174.417 135.762 173.708 136.061 173.1C136.36 172.481 136.781 172.007 137.325 171.676C137.869 171.335 138.493 171.164 139.197 171.164H139.325ZM146.588 171.324H148.492V172.524H146.588V177.404C146.588 177.788 146.663 178.065 146.812 178.236C146.961 178.407 147.191 178.492 147.5 178.492C147.777 178.492 148.108 178.412 148.492 178.252V179.372C148.108 179.564 147.612 179.66 147.004 179.66C146.375 179.66 145.895 179.473 145.564 179.1C145.244 178.727 145.084 178.135 145.084 177.324V172.524H144.188V171.324H145.132L145.644 168.716H146.588V171.324ZM151.895 167.98V169.372H150.327V167.98H151.895ZM151.863 171.324V179.5H150.359V171.324H151.863ZM157.78 171.164C158.921 171.164 159.833 171.516 160.516 172.22C161.198 172.924 161.54 173.889 161.54 175.116V175.708C161.54 176.935 161.204 177.9 160.532 178.604C159.86 179.308 158.942 179.66 157.78 179.66C156.617 179.66 155.7 179.308 155.028 178.604C154.356 177.9 154.02 176.935 154.02 175.708V175.116C154.02 173.889 154.361 172.924 155.044 172.22C155.726 171.516 156.638 171.164 157.78 171.164ZM157.78 172.364C157.065 172.364 156.51 172.609 156.116 173.1C155.721 173.591 155.524 174.311 155.524 175.26V175.564C155.524 176.492 155.716 177.207 156.1 177.708C156.494 178.209 157.054 178.46 157.78 178.46C158.484 178.46 159.033 178.215 159.428 177.724C159.833 177.223 160.036 176.503 160.036 175.564V175.26C160.036 174.332 159.838 173.617 159.444 173.116C159.06 172.615 158.505 172.364 157.78 172.364ZM167.735 171.164C168.631 171.164 169.335 171.404 169.847 171.884C170.359 172.364 170.615 173.068 170.615 173.996V179.5H169.111V174.268C169.111 172.999 168.535 172.364 167.383 172.364C166.999 172.364 166.642 172.465 166.311 172.668C165.98 172.871 165.714 173.148 165.511 173.5C165.308 173.841 165.207 174.22 165.207 174.636V179.5H163.703V171.324H164.791L164.999 172.524C165.682 171.617 166.594 171.164 167.735 171.164ZM178.63 167.98V169.372H177.062V167.98H178.63ZM178.598 171.324V179.5H177.094V171.324H178.598ZM185.282 171.164C186.178 171.164 186.882 171.404 187.394 171.884C187.906 172.364 188.162 173.068 188.162 173.996V179.5H186.658V174.268C186.658 172.999 186.082 172.364 184.93 172.364C184.546 172.364 184.189 172.465 183.858 172.668C183.527 172.871 183.261 173.148 183.058 173.5C182.855 173.841 182.754 174.22 182.754 174.636V179.5H181.25V171.324H182.338L182.546 172.524C183.229 171.617 184.141 171.164 185.282 171.164ZM197.761 171.164C198.369 171.164 198.907 171.26 199.377 171.452C199.857 171.644 200.225 171.911 200.481 172.252C200.747 172.593 200.881 172.972 200.881 173.388L200.865 173.676H199.377V173.532C199.377 172.753 198.774 172.364 197.569 172.364C196.374 172.364 195.777 172.721 195.777 173.436C195.777 173.767 195.947 174.012 196.289 174.172C196.63 174.321 197.153 174.465 197.857 174.604C198.529 174.743 199.078 174.887 199.505 175.036C199.942 175.185 200.31 175.42 200.609 175.74C200.918 176.06 201.073 176.492 201.073 177.036C201.073 177.911 200.774 178.567 200.177 179.004C199.579 179.441 198.721 179.66 197.601 179.66H197.361C196.689 179.66 196.102 179.559 195.601 179.356C195.099 179.143 194.71 178.86 194.433 178.508C194.166 178.145 194.038 177.74 194.049 177.292V176.94H195.537V177.1C195.537 178.007 196.299 178.46 197.825 178.46C198.273 178.46 198.673 178.359 199.025 178.156C199.387 177.953 199.569 177.676 199.569 177.324C199.569 177.025 199.467 176.791 199.265 176.62C199.073 176.449 198.833 176.321 198.545 176.236C198.257 176.151 197.857 176.065 197.345 175.98C196.683 175.852 196.15 175.724 195.745 175.596C195.339 175.457 194.993 175.228 194.705 174.908C194.417 174.588 194.273 174.151 194.273 173.596C194.273 172.839 194.571 172.247 195.169 171.82C195.766 171.383 196.582 171.164 197.617 171.164H197.761ZM206.467 171.164C207.139 171.164 207.731 171.308 208.243 171.596C208.766 171.873 209.171 172.273 209.459 172.796C209.747 173.319 209.891 173.927 209.891 174.62V175.756H204.179C204.201 176.62 204.403 177.287 204.787 177.756C205.171 178.225 205.742 178.46 206.499 178.46C207.171 178.46 207.667 178.263 207.987 177.868C208.307 177.473 208.467 177.004 208.467 176.46H209.891C209.891 177.1 209.742 177.66 209.443 178.14C209.155 178.62 208.75 178.993 208.227 179.26C207.715 179.527 207.129 179.66 206.467 179.66H206.403C205.251 179.66 204.339 179.292 203.667 178.556C203.006 177.809 202.675 176.817 202.675 175.58V175.26C202.675 174.449 202.825 173.735 203.123 173.116C203.422 172.497 203.849 172.017 204.403 171.676C204.958 171.335 205.609 171.164 206.355 171.164H206.467ZM206.387 172.364C205.779 172.364 205.283 172.551 204.899 172.924C204.526 173.297 204.297 173.852 204.211 174.588H208.403V174.396C208.403 173.788 208.217 173.297 207.843 172.924C207.481 172.551 206.995 172.364 206.387 172.364ZM215.278 171.164C215.929 171.164 216.51 171.308 217.022 171.596C217.545 171.873 217.95 172.268 218.238 172.78C218.526 173.292 218.67 173.879 218.67 174.54H217.182C217.182 173.879 217.011 173.351 216.67 172.956C216.339 172.561 215.859 172.364 215.23 172.364C214.569 172.364 214.041 172.588 213.646 173.036C213.262 173.473 213.07 174.076 213.07 174.844V175.708C213.07 176.636 213.262 177.329 213.646 177.788C214.03 178.236 214.574 178.46 215.278 178.46C215.929 178.46 216.414 178.268 216.734 177.884C217.065 177.489 217.23 176.961 217.23 176.3H218.67C218.67 177.324 218.361 178.14 217.742 178.748C217.134 179.356 216.318 179.66 215.294 179.66H215.166C214.441 179.66 213.806 179.495 213.262 179.164C212.718 178.823 212.297 178.348 211.998 177.74C211.71 177.132 211.566 176.423 211.566 175.612V175.228C211.566 174.417 211.715 173.708 212.014 173.1C212.313 172.481 212.734 172.007 213.278 171.676C213.822 171.335 214.446 171.164 215.15 171.164H215.278ZM224.045 171.164C225.186 171.164 226.098 171.516 226.781 172.22C227.464 172.924 227.805 173.889 227.805 175.116V175.708C227.805 176.935 227.469 177.9 226.797 178.604C226.125 179.308 225.208 179.66 224.045 179.66C222.882 179.66 221.965 179.308 221.293 178.604C220.621 177.9 220.285 176.935 220.285 175.708V175.116C220.285 173.889 220.626 172.924 221.309 172.22C221.992 171.516 222.904 171.164 224.045 171.164ZM224.045 172.364C223.33 172.364 222.776 172.609 222.381 173.1C221.986 173.591 221.789 174.311 221.789 175.26V175.564C221.789 176.492 221.981 177.207 222.365 177.708C222.76 178.209 223.32 178.46 224.045 178.46C224.749 178.46 225.298 178.215 225.693 177.724C226.098 177.223 226.301 176.503 226.301 175.564V175.26C226.301 174.332 226.104 173.617 225.709 173.116C225.325 172.615 224.77 172.364 224.045 172.364ZM234.001 171.164C234.897 171.164 235.601 171.404 236.113 171.884C236.625 172.364 236.881 173.068 236.881 173.996V179.5H235.377V174.268C235.377 172.999 234.801 172.364 233.649 172.364C233.265 172.364 232.907 172.465 232.577 172.668C232.246 172.871 231.979 173.148 231.777 173.5C231.574 173.841 231.473 174.22 231.473 174.636V179.5H229.969V171.324H231.057L231.265 172.524C231.947 171.617 232.859 171.164 234.001 171.164ZM246.125 179.5H245.005C244.93 179.159 244.861 178.785 244.797 178.38C244.189 179.233 243.346 179.66 242.269 179.66C241.245 179.66 240.434 179.281 239.837 178.524C239.25 177.767 238.957 176.727 238.957 175.404V175.228C238.957 173.98 239.245 172.993 239.821 172.268C240.408 171.532 241.224 171.164 242.269 171.164C243.282 171.164 244.066 171.564 244.621 172.364V167.98H246.125V179.5ZM242.541 172.364C241.826 172.364 241.298 172.615 240.957 173.116C240.626 173.607 240.461 174.375 240.461 175.42C240.461 176.465 240.632 177.233 240.973 177.724C241.314 178.215 241.837 178.46 242.541 178.46C243.938 178.46 244.637 177.447 244.637 175.42C244.637 174.375 244.461 173.607 244.109 173.116C243.757 172.615 243.234 172.364 242.541 172.364ZM251.901 171.164C252.509 171.164 253.048 171.26 253.517 171.452C253.997 171.644 254.365 171.911 254.621 172.252C254.888 172.593 255.021 172.972 255.021 173.388L255.005 173.676H253.517V173.532C253.517 172.753 252.914 172.364 251.709 172.364C250.514 172.364 249.917 172.721 249.917 173.436C249.917 173.767 250.088 174.012 250.429 174.172C250.77 174.321 251.293 174.465 251.997 174.604C252.669 174.743 253.218 174.887 253.645 175.036C254.082 175.185 254.45 175.42 254.749 175.74C255.058 176.06 255.213 176.492 255.213 177.036C255.213 177.911 254.914 178.567 254.317 179.004C253.72 179.441 252.861 179.66 251.741 179.66H251.501C250.829 179.66 250.242 179.559 249.741 179.356C249.24 179.143 248.85 178.86 248.573 178.508C248.306 178.145 248.178 177.74 248.189 177.292V176.94H249.677V177.1C249.677 178.007 250.44 178.46 251.965 178.46C252.413 178.46 252.813 178.359 253.165 178.156C253.528 177.953 253.709 177.676 253.709 177.324C253.709 177.025 253.608 176.791 253.405 176.62C253.213 176.449 252.973 176.321 252.685 176.236C252.397 176.151 251.997 176.065 251.485 175.98C250.824 175.852 250.29 175.724 249.885 175.596C249.48 175.457 249.133 175.228 248.845 174.908C248.557 174.588 248.413 174.151 248.413 173.596C248.413 172.839 248.712 172.247 249.309 171.82C249.906 171.383 250.722 171.164 251.757 171.164H251.901ZM32.624 195.324L29.952 203.5H28.384L26.496 197.788H26.432L24.576 203.5H23.008L20.32 195.324H21.872L23.776 201.308H23.84L25.776 195.324H27.248L29.152 201.308H29.216L31.152 195.324H32.624ZM35.8328 191.98V193.372H34.2648V191.98H35.8328ZM35.8008 195.324V203.5H34.2968V195.324H35.8008ZM40.213 195.324H42.117V196.524H40.213V201.404C40.213 201.788 40.2877 202.065 40.437 202.236C40.5863 202.407 40.8157 202.492 41.125 202.492C41.4023 202.492 41.733 202.412 42.117 202.252V203.372C41.733 203.564 41.237 203.66 40.629 203.66C39.9997 203.66 39.5197 203.473 39.189 203.1C38.869 202.727 38.709 202.135 38.709 201.324V196.524H37.813V195.324H38.757L39.269 192.716H40.213V195.324ZM45.4883 196.348C46.1603 195.559 47.0029 195.164 48.0163 195.164C48.9123 195.164 49.6163 195.404 50.1283 195.884C50.6403 196.364 50.8963 197.068 50.8963 197.996V203.5H49.3923V198.268C49.3923 196.999 48.8163 196.364 47.6643 196.364C47.2803 196.364 46.9229 196.465 46.5923 196.668C46.2616 196.871 45.9949 197.148 45.7923 197.5C45.5896 197.841 45.4883 198.22 45.4883 198.636V203.5H43.9843V191.98H45.4883V196.348ZM59.1349 195.324H61.0389V196.524H59.1349V201.404C59.1349 201.788 59.2095 202.065 59.3589 202.236C59.5082 202.407 59.7375 202.492 60.0469 202.492C60.3242 202.492 60.6549 202.412 61.0389 202.252V203.372C60.6549 203.564 60.1589 203.66 59.5509 203.66C58.9215 203.66 58.4415 203.473 58.1109 203.1C57.7909 202.727 57.6309 202.135 57.6309 201.324V196.524H56.7349V195.324H57.6789L58.1909 192.716H59.1349V195.324ZM64.4101 196.348C65.0821 195.559 65.9248 195.164 66.9381 195.164C67.8341 195.164 68.5381 195.404 69.0501 195.884C69.5621 196.364 69.8181 197.068 69.8181 197.996V203.5H68.3141V198.268C68.3141 196.999 67.7381 196.364 66.5861 196.364C66.2021 196.364 65.8448 196.465 65.5141 196.668C65.1835 196.871 64.9168 197.148 64.7141 197.5C64.5115 197.841 64.4101 198.22 64.4101 198.636V203.5H62.9061V191.98H64.4101V196.348ZM75.6705 195.164C76.3425 195.164 76.9345 195.308 77.4465 195.596C77.9692 195.873 78.3745 196.273 78.6625 196.796C78.9505 197.319 79.0945 197.927 79.0945 198.62V199.756H73.3825C73.4038 200.62 73.6065 201.287 73.9905 201.756C74.3745 202.225 74.9452 202.46 75.7025 202.46C76.3745 202.46 76.8705 202.263 77.1905 201.868C77.5105 201.473 77.6705 201.004 77.6705 200.46H79.0945C79.0945 201.1 78.9452 201.66 78.6465 202.14C78.3585 202.62 77.9532 202.993 77.4305 203.26C76.9185 203.527 76.3318 203.66 75.6705 203.66H75.6065C74.4545 203.66 73.5425 203.292 72.8705 202.556C72.2092 201.809 71.8785 200.817 71.8785 199.58V199.26C71.8785 198.449 72.0278 197.735 72.3265 197.116C72.6252 196.497 73.0518 196.017 73.6065 195.676C74.1612 195.335 74.8118 195.164 75.5585 195.164H75.6705ZM75.5905 196.364C74.9825 196.364 74.4865 196.551 74.1025 196.924C73.7292 197.297 73.4998 197.852 73.4145 198.588H77.6065V198.396C77.6065 197.788 77.4198 197.297 77.0465 196.924C76.6838 196.551 76.1985 196.364 75.5905 196.364ZM92.6754 193.852C92.6754 194.396 92.5314 194.855 92.2434 195.228C91.9554 195.591 91.5554 195.825 91.0434 195.932L91.0114 195.98C91.5447 196.449 91.8114 197.036 91.8114 197.74C91.8114 198.508 91.5234 199.127 90.9474 199.596C90.3714 200.065 89.5874 200.3 88.5954 200.3H87.5074C87.1874 200.3 86.9207 200.385 86.7074 200.556C86.494 200.716 86.3874 200.924 86.3874 201.18C86.3874 201.436 86.4887 201.639 86.6914 201.788C86.894 201.937 87.166 202.012 87.5074 202.012H90.5954C91.2247 202.012 91.726 202.209 92.0994 202.604C92.4834 202.999 92.6754 203.5 92.6754 204.108C92.6754 204.833 92.398 205.415 91.8434 205.852C91.2994 206.289 90.5634 206.508 89.6354 206.508H86.4194C86.0567 206.508 85.7207 206.412 85.4114 206.22C85.1127 206.028 84.8727 205.783 84.6914 205.484C84.5207 205.196 84.4354 204.897 84.4354 204.588C84.4354 204.14 84.542 203.751 84.7554 203.42C84.9794 203.089 85.2727 202.844 85.6354 202.684C85.1447 202.385 84.8994 201.943 84.8994 201.356C84.8994 200.972 85.0114 200.641 85.2354 200.364C85.4594 200.087 85.774 199.879 86.1794 199.74C85.4647 199.345 85.1074 198.679 85.1074 197.74C85.1074 196.951 85.3954 196.327 85.9714 195.868C86.558 195.399 87.3687 195.164 88.4034 195.164H88.4674C89.0647 195.164 89.6087 195.255 90.0994 195.436C90.8567 195.063 91.2887 194.535 91.3954 193.852H92.6754ZM88.4514 196.364C87.886 196.364 87.4327 196.476 87.0914 196.7C86.7607 196.913 86.5954 197.26 86.5954 197.74C86.5954 198.22 86.7607 198.567 87.0914 198.78C87.4327 198.993 87.886 199.1 88.4514 199.1C89.0167 199.1 89.47 198.993 89.8114 198.78C90.1527 198.567 90.3234 198.22 90.3234 197.74C90.3234 197.26 90.1527 196.913 89.8114 196.7C89.47 196.476 89.0167 196.364 88.4514 196.364ZM86.8514 203.452C86.5954 203.452 86.3767 203.543 86.1954 203.724C86.014 203.905 85.9234 204.124 85.9234 204.38C85.9234 204.636 86.014 204.855 86.1954 205.036C86.3767 205.217 86.5954 205.308 86.8514 205.308H89.9394C90.2807 205.308 90.574 205.207 90.8194 205.004C91.0647 204.812 91.1874 204.588 91.1874 204.332C91.1874 204.065 91.0967 203.852 90.9154 203.692C90.734 203.532 90.478 203.452 90.1474 203.452H86.8514ZM95.8491 191.98V203.5H94.3451V191.98H95.8491ZM101.826 195.164C102.968 195.164 103.88 195.516 104.562 196.22C105.245 196.924 105.586 197.889 105.586 199.116V199.708C105.586 200.935 105.25 201.9 104.578 202.604C103.906 203.308 102.989 203.66 101.826 203.66C100.664 203.66 99.7464 203.308 99.0744 202.604C98.4024 201.9 98.0664 200.935 98.0664 199.708V199.116C98.0664 197.889 98.4077 196.924 99.0904 196.22C99.773 195.516 100.685 195.164 101.826 195.164ZM101.826 196.364C101.112 196.364 100.557 196.609 100.162 197.1C99.7677 197.591 99.5704 198.311 99.5704 199.26V199.564C99.5704 200.492 99.7624 201.207 100.146 201.708C100.541 202.209 101.101 202.46 101.826 202.46C102.53 202.46 103.08 202.215 103.474 201.724C103.88 201.223 104.082 200.503 104.082 199.564V199.26C104.082 198.332 103.885 197.617 103.49 197.116C103.106 196.615 102.552 196.364 101.826 196.364ZM109.254 196.364C109.499 196.012 109.83 195.724 110.246 195.5C110.673 195.276 111.131 195.164 111.622 195.164C112.667 195.164 113.478 195.532 114.054 196.268C114.63 196.993 114.918 197.98 114.918 199.228V199.404C114.918 200.727 114.619 201.767 114.022 202.524C113.435 203.281 112.63 203.66 111.606 203.66C110.39 203.66 109.473 203.175 108.854 202.204L108.326 203.5H107.75V191.98H109.254V196.364ZM111.318 196.364C110.603 196.364 110.075 196.615 109.734 197.116C109.403 197.607 109.238 198.375 109.238 199.42C109.238 200.465 109.409 201.233 109.75 201.724C110.091 202.215 110.614 202.46 111.318 202.46C112.715 202.46 113.414 201.447 113.414 199.42C113.414 198.375 113.238 197.607 112.886 197.116C112.534 196.615 112.011 196.364 111.318 196.364ZM120.294 195.164C121.371 195.164 122.171 195.377 122.694 195.804C123.227 196.231 123.494 196.849 123.494 197.66V201.9C123.494 202.092 123.537 202.236 123.622 202.332C123.707 202.417 123.814 202.46 123.942 202.46C124.187 202.46 124.433 202.385 124.678 202.236V203.34C124.315 203.553 123.905 203.66 123.446 203.66C122.987 203.66 122.646 203.532 122.422 203.276C122.198 203.009 122.075 202.647 122.054 202.188C121.393 203.169 120.438 203.66 119.19 203.66C118.294 203.66 117.622 203.468 117.174 203.084C116.737 202.689 116.518 202.071 116.518 201.228C116.518 200.567 116.689 200.049 117.03 199.676C117.371 199.292 117.937 199.015 118.726 198.844C119.515 198.673 120.603 198.588 121.99 198.588V197.836C121.99 197.292 121.83 196.913 121.51 196.7C121.19 196.476 120.726 196.364 120.118 196.364C119.542 196.364 119.094 196.476 118.774 196.7C118.454 196.924 118.294 197.239 118.294 197.644V197.836H116.822C116.801 197.687 116.79 197.511 116.79 197.308C116.79 196.935 116.939 196.583 117.238 196.252C117.537 195.921 117.942 195.66 118.454 195.468C118.966 195.265 119.531 195.164 120.15 195.164H120.294ZM121.99 199.756C120.87 199.756 120.022 199.815 119.446 199.932C118.881 200.039 118.502 200.204 118.31 200.428C118.118 200.652 118.022 200.961 118.022 201.356C118.022 202.092 118.582 202.46 119.702 202.46C120.097 202.46 120.47 202.364 120.822 202.172C121.174 201.969 121.457 201.687 121.67 201.324C121.883 200.961 121.99 200.545 121.99 200.076V199.756ZM128.005 191.98V203.5H126.501V191.98H128.005ZM137.825 195.164C138.476 195.164 139.057 195.308 139.569 195.596C140.092 195.873 140.497 196.268 140.785 196.78C141.073 197.292 141.217 197.879 141.217 198.54H139.729C139.729 197.879 139.558 197.351 139.217 196.956C138.886 196.561 138.406 196.364 137.777 196.364C137.116 196.364 136.588 196.588 136.193 197.036C135.809 197.473 135.617 198.076 135.617 198.844V199.708C135.617 200.636 135.809 201.329 136.193 201.788C136.577 202.236 137.121 202.46 137.825 202.46C138.476 202.46 138.961 202.268 139.281 201.884C139.612 201.489 139.777 200.961 139.777 200.3H141.217C141.217 201.324 140.908 202.14 140.289 202.748C139.681 203.356 138.865 203.66 137.841 203.66H137.713C136.988 203.66 136.353 203.495 135.809 203.164C135.265 202.823 134.844 202.348 134.545 201.74C134.257 201.132 134.113 200.423 134.113 199.612V199.228C134.113 198.417 134.262 197.708 134.561 197.1C134.86 196.481 135.281 196.007 135.825 195.676C136.369 195.335 136.993 195.164 137.697 195.164H137.825ZM146.592 195.164C147.733 195.164 148.645 195.516 149.328 196.22C150.011 196.924 150.352 197.889 150.352 199.116V199.708C150.352 200.935 150.016 201.9 149.344 202.604C148.672 203.308 147.755 203.66 146.592 203.66C145.429 203.66 144.512 203.308 143.84 202.604C143.168 201.9 142.832 200.935 142.832 199.708V199.116C142.832 197.889 143.173 196.924 143.856 196.22C144.539 195.516 145.451 195.164 146.592 195.164ZM146.592 196.364C145.877 196.364 145.323 196.609 144.928 197.1C144.533 197.591 144.336 198.311 144.336 199.26V199.564C144.336 200.492 144.528 201.207 144.912 201.708C145.307 202.209 145.867 202.46 146.592 202.46C147.296 202.46 147.845 202.215 148.24 201.724C148.645 201.223 148.848 200.503 148.848 199.564V199.26C148.848 198.332 148.651 197.617 148.256 197.116C147.872 196.615 147.317 196.364 146.592 196.364ZM161.14 195.164C161.982 195.164 162.638 195.409 163.108 195.9C163.577 196.391 163.812 197.089 163.812 197.996V203.5H162.308V198.268C162.308 196.999 161.817 196.364 160.836 196.364C160.494 196.364 160.174 196.465 159.876 196.668C159.588 196.871 159.353 197.148 159.172 197.5C159.001 197.841 158.916 198.22 158.916 198.636V203.5H157.412V198.268C157.412 196.999 156.921 196.364 155.94 196.364C155.598 196.364 155.278 196.465 154.98 196.668C154.692 196.871 154.457 197.148 154.276 197.5C154.105 197.841 154.02 198.22 154.02 198.636V203.5H152.516V195.324H153.604L153.812 196.524C154.43 195.617 155.289 195.164 156.388 195.164C157.465 195.164 158.212 195.617 158.628 196.524C158.99 196.012 159.38 195.66 159.796 195.468C160.212 195.265 160.66 195.164 161.14 195.164ZM175.015 195.164C175.857 195.164 176.513 195.409 176.983 195.9C177.452 196.391 177.687 197.089 177.687 197.996V203.5H176.183V198.268C176.183 196.999 175.692 196.364 174.711 196.364C174.369 196.364 174.049 196.465 173.751 196.668C173.463 196.871 173.228 197.148 173.047 197.5C172.876 197.841 172.791 198.22 172.791 198.636V203.5H171.287V198.268C171.287 196.999 170.796 196.364 169.815 196.364C169.473 196.364 169.153 196.465 168.855 196.668C168.567 196.871 168.332 197.148 168.151 197.5C167.98 197.841 167.895 198.22 167.895 198.636V203.5H166.391V195.324H167.479L167.687 196.524C168.305 195.617 169.164 195.164 170.263 195.164C171.34 195.164 172.087 195.617 172.503 196.524C172.865 196.012 173.255 195.66 173.671 195.468C174.087 195.265 174.535 195.164 175.015 195.164ZM183.482 195.164C184.559 195.164 185.359 195.377 185.882 195.804C186.415 196.231 186.682 196.849 186.682 197.66V201.9C186.682 202.092 186.724 202.236 186.81 202.332C186.895 202.417 187.002 202.46 187.13 202.46C187.375 202.46 187.62 202.385 187.866 202.236V203.34C187.503 203.553 187.092 203.66 186.634 203.66C186.175 203.66 185.834 203.532 185.61 203.276C185.386 203.009 185.263 202.647 185.242 202.188C184.58 203.169 183.626 203.66 182.378 203.66C181.482 203.66 180.81 203.468 180.362 203.084C179.924 202.689 179.706 202.071 179.706 201.228C179.706 200.567 179.876 200.049 180.218 199.676C180.559 199.292 181.124 199.015 181.914 198.844C182.703 198.673 183.791 198.588 185.178 198.588V197.836C185.178 197.292 185.018 196.913 184.698 196.7C184.378 196.476 183.914 196.364 183.306 196.364C182.73 196.364 182.282 196.476 181.962 196.7C181.642 196.924 181.482 197.239 181.482 197.644V197.836H180.01C179.988 197.687 179.978 197.511 179.978 197.308C179.978 196.935 180.127 196.583 180.426 196.252C180.724 195.921 181.13 195.66 181.642 195.468C182.154 195.265 182.719 195.164 183.338 195.164H183.482ZM185.178 199.756C184.058 199.756 183.21 199.815 182.634 199.932C182.068 200.039 181.69 200.204 181.498 200.428C181.306 200.652 181.21 200.961 181.21 201.356C181.21 202.092 181.77 202.46 182.89 202.46C183.284 202.46 183.658 202.364 184.01 202.172C184.362 201.969 184.644 201.687 184.858 201.324C185.071 200.961 185.178 200.545 185.178 200.076V199.756ZM193.657 195.164C194.553 195.164 195.257 195.404 195.769 195.884C196.281 196.364 196.537 197.068 196.537 197.996V203.5H195.033V198.268C195.033 196.999 194.457 196.364 193.305 196.364C192.921 196.364 192.564 196.465 192.233 196.668C191.902 196.871 191.636 197.148 191.433 197.5C191.23 197.841 191.129 198.22 191.129 198.636V203.5H189.625V195.324H190.713L190.921 196.524C191.604 195.617 192.516 195.164 193.657 195.164ZM205.781 203.5H204.661C204.587 203.159 204.517 202.785 204.453 202.38C203.845 203.233 203.003 203.66 201.925 203.66C200.901 203.66 200.091 203.281 199.493 202.524C198.907 201.767 198.613 200.727 198.613 199.404V199.228C198.613 197.98 198.901 196.993 199.477 196.268C200.064 195.532 200.88 195.164 201.925 195.164C202.939 195.164 203.723 195.564 204.277 196.364V191.98H205.781V203.5ZM202.197 196.364C201.483 196.364 200.955 196.615 200.613 197.116C200.283 197.607 200.117 198.375 200.117 199.42C200.117 200.465 200.288 201.233 200.629 201.724C200.971 202.215 201.493 202.46 202.197 202.46C203.595 202.46 204.293 201.447 204.293 199.42C204.293 198.375 204.117 197.607 203.765 197.116C203.413 196.615 202.891 196.364 202.197 196.364ZM220.968 195.164C221.81 195.164 222.466 195.409 222.936 195.9C223.405 196.391 223.64 197.089 223.64 197.996V203.5H222.136V198.268C222.136 196.999 221.645 196.364 220.664 196.364C220.322 196.364 220.002 196.465 219.704 196.668C219.416 196.871 219.181 197.148 219 197.5C218.829 197.841 218.744 198.22 218.744 198.636V203.5H217.24V198.268C217.24 196.999 216.749 196.364 215.768 196.364C215.426 196.364 215.106 196.465 214.808 196.668C214.52 196.871 214.285 197.148 214.104 197.5C213.933 197.841 213.848 198.22 213.848 198.636V203.5H212.344V195.324H213.432L213.64 196.524C214.258 195.617 215.117 195.164 216.216 195.164C217.293 195.164 218.04 195.617 218.456 196.524C218.818 196.012 219.208 195.66 219.624 195.468C220.04 195.265 220.488 195.164 220.968 195.164ZM229.499 195.164C230.171 195.164 230.763 195.308 231.275 195.596C231.797 195.873 232.203 196.273 232.491 196.796C232.779 197.319 232.923 197.927 232.923 198.62V199.756H227.211C227.232 200.62 227.435 201.287 227.819 201.756C228.203 202.225 228.773 202.46 229.531 202.46C230.203 202.46 230.699 202.263 231.019 201.868C231.339 201.473 231.499 201.004 231.499 200.46H232.923C232.923 201.1 232.773 201.66 232.475 202.14C232.187 202.62 231.781 202.993 231.259 203.26C230.747 203.527 230.16 203.66 229.499 203.66H229.435C228.283 203.66 227.371 203.292 226.699 202.556C226.037 201.809 225.707 200.817 225.707 199.58V199.26C225.707 198.449 225.856 197.735 226.155 197.116C226.453 196.497 226.88 196.017 227.435 195.676C227.989 195.335 228.64 195.164 229.387 195.164H229.499ZM229.419 196.364C228.811 196.364 228.315 196.551 227.931 196.924C227.557 197.297 227.328 197.852 227.243 198.588H231.435V198.396C231.435 197.788 231.248 197.297 230.875 196.924C230.512 196.551 230.027 196.364 229.419 196.364ZM239.141 195.164C240.037 195.164 240.741 195.404 241.253 195.884C241.765 196.364 242.021 197.068 242.021 197.996V203.5H240.517V198.268C240.517 196.999 239.941 196.364 238.789 196.364C238.405 196.364 238.048 196.465 237.717 196.668C237.387 196.871 237.12 197.148 236.917 197.5C236.715 197.841 236.613 198.22 236.613 198.636V203.5H235.109V195.324H236.197L236.405 196.524C237.088 195.617 238 195.164 239.141 195.164ZM251.426 201.9C251.426 202.092 251.468 202.236 251.554 202.332C251.639 202.417 251.746 202.46 251.874 202.46C252.108 202.46 252.348 202.385 252.594 202.236V203.34C252.263 203.553 251.927 203.66 251.586 203.66C251.01 203.66 250.604 203.543 250.37 203.308C250.146 203.073 250.023 202.743 250.002 202.316C249.714 202.743 249.34 203.073 248.882 203.308C248.434 203.543 247.916 203.66 247.33 203.66C246.508 203.66 245.831 203.42 245.298 202.94C244.775 202.449 244.514 201.745 244.514 200.828V195.324H246.018V200.556C246.018 201.825 246.594 202.46 247.746 202.46C248.119 202.46 248.471 202.359 248.802 202.156C249.143 201.953 249.415 201.681 249.618 201.34C249.82 200.988 249.922 200.604 249.922 200.188V195.324H251.426V201.9ZM255.876 201.724V203.5H254.26V201.724H255.876Z" fill="#D8D8D8"/>
</svg>
