<svg width="343" height="282" viewBox="0 0 343 282" fill="none" xmlns="http://www.w3.org/2000/svg">
<path d="M40.5 37.5C40.9987 37.51 41.4943 37.4205 41.958 37.2367C42.4216 37.0528 42.8439 36.7784 43.2002 36.4293C43.5565 36.0802 43.8395 35.6636 44.0328 35.2038C44.226 34.744 44.3256 34.2503 44.3257 33.7515C44.3258 33.2527 44.2264 32.7589 44.0334 32.2991C43.8403 31.8392 43.5574 31.4224 43.2013 31.0732C42.8452 30.724 42.423 30.4494 41.9594 30.2653C41.4958 30.0813 41.0002 29.9916 40.5015 30.0015C39.5201 30.0209 38.5855 30.4243 37.8982 31.1252C37.211 31.826 36.8259 32.7684 36.8257 33.75C36.8255 34.7316 37.2102 35.6741 37.8972 36.3752C38.5841 37.0763 39.5186 37.4801 40.5 37.5ZM40.5 39C38.4975 39 34.5 40.3395 34.5 43.0005V43.9995C34.5 44.55 34.8375 45 35.25 45H38.3235C39.6795 43.6365 41.949 42.1335 45.414 41.9865V40.9065C45.4138 40.8747 45.4173 40.8429 45.4245 40.812C44.0955 39.606 41.847 39 40.5 39ZM47.1405 42.042C47.2091 42.008 47.286 41.9944 47.3621 42.0029C47.4381 42.0115 47.5101 42.0417 47.5695 42.09L50.814 44.6745C50.8599 44.7112 50.8972 44.7574 50.9235 44.81C50.9498 44.8626 50.9644 44.9202 50.9662 44.979C50.9681 45.0377 50.9572 45.0962 50.9343 45.1503C50.9114 45.2044 50.877 45.2529 50.8335 45.2925L47.589 48.2475C47.5309 48.3004 47.4587 48.3354 47.3811 48.348C47.3036 48.3607 47.224 48.3505 47.1521 48.3187C47.0802 48.2869 47.0192 48.2348 46.9764 48.1689C46.9335 48.103 46.9108 48.0261 46.911 47.9475V46.5135C41.919 46.713 38.988 48.7755 38.9805 48.816C38.9652 48.9108 38.9167 48.9972 38.8436 49.0595C38.7705 49.1219 38.6776 49.1563 38.5815 49.1565H38.5485C38.4464 49.1485 38.3511 49.1021 38.2818 49.0267C38.2125 48.9513 38.1743 48.8524 38.175 48.75C38.175 48.681 40.4985 43.758 46.911 43.4865V42.4065C46.9111 42.3303 46.9327 42.2557 46.9733 42.1912C47.0139 42.1267 47.0718 42.075 47.1405 42.042Z" fill="#174EFF"/>
<path d="M76.08 34.024L80.368 45H78.672L77.744 42.616H72.496L71.584 45H70.064L74.352 34.024H76.08ZM75.184 35.912H75.088L73.056 41.192H77.2L75.184 35.912ZM84.8855 36.664C85.4935 36.664 86.0322 36.76 86.5015 36.952C86.9815 37.144 87.3495 37.4107 87.6055 37.752C87.8722 38.0933 88.0055 38.472 88.0055 38.888L87.9895 39.176H86.5015V39.032C86.5015 38.2533 85.8988 37.864 84.6935 37.864C83.4988 37.864 82.9015 38.2213 82.9015 38.936C82.9015 39.2667 83.0722 39.512 83.4135 39.672C83.7548 39.8213 84.2775 39.9653 84.9815 40.104C85.6535 40.2427 86.2028 40.3867 86.6295 40.536C87.0668 40.6853 87.4348 40.92 87.7335 41.24C88.0428 41.56 88.1975 41.992 88.1975 42.536C88.1975 43.4107 87.8988 44.0667 87.3015 44.504C86.7042 44.9413 85.8455 45.16 84.7255 45.16H84.4855C83.8135 45.16 83.2268 45.0587 82.7255 44.856C82.2242 44.6427 81.8348 44.36 81.5575 44.008C81.2908 43.6453 81.1628 43.24 81.1735 42.792V42.44H82.6615V42.6C82.6615 43.5067 83.4242 43.96 84.9495 43.96C85.3975 43.96 85.7975 43.8587 86.1495 43.656C86.5122 43.4533 86.6935 43.176 86.6935 42.824C86.6935 42.5253 86.5922 42.2907 86.3895 42.12C86.1975 41.9493 85.9575 41.8213 85.6695 41.736C85.3815 41.6507 84.9815 41.5653 84.4695 41.48C83.8082 41.352 83.2748 41.224 82.8695 41.096C82.4642 40.9573 82.1175 40.728 81.8295 40.408C81.5415 40.088 81.3975 39.6507 81.3975 39.096C81.3975 38.3387 81.6962 37.7467 82.2935 37.32C82.8908 36.8827 83.7068 36.664 84.7415 36.664H84.8855ZM93.4324 36.664C94.0404 36.664 94.579 36.76 95.0484 36.952C95.5284 37.144 95.8964 37.4107 96.1524 37.752C96.419 38.0933 96.5524 38.472 96.5524 38.888L96.5364 39.176H95.0484V39.032C95.0484 38.2533 94.4457 37.864 93.2404 37.864C92.0457 37.864 91.4484 38.2213 91.4484 38.936C91.4484 39.2667 91.619 39.512 91.9604 39.672C92.3017 39.8213 92.8244 39.9653 93.5284 40.104C94.2004 40.2427 94.7497 40.3867 95.1764 40.536C95.6137 40.6853 95.9817 40.92 96.2804 41.24C96.5897 41.56 96.7444 41.992 96.7444 42.536C96.7444 43.4107 96.4457 44.0667 95.8484 44.504C95.251 44.9413 94.3924 45.16 93.2724 45.16H93.0324C92.3604 45.16 91.7737 45.0587 91.2724 44.856C90.771 44.6427 90.3817 44.36 90.1044 44.008C89.8377 43.6453 89.7097 43.24 89.7204 42.792V42.44H91.2084V42.6C91.2084 43.5067 91.971 43.96 93.4964 43.96C93.9444 43.96 94.3444 43.8587 94.6964 43.656C95.059 43.4533 95.2404 43.176 95.2404 42.824C95.2404 42.5253 95.139 42.2907 94.9364 42.12C94.7444 41.9493 94.5044 41.8213 94.2164 41.736C93.9284 41.6507 93.5284 41.5653 93.0164 41.48C92.355 41.352 91.8217 41.224 91.4164 41.096C91.011 40.9573 90.6644 40.728 90.3764 40.408C90.0884 40.088 89.9444 39.6507 89.9444 39.096C89.9444 38.3387 90.243 37.7467 90.8404 37.32C91.4377 36.8827 92.2537 36.664 93.2884 36.664H93.4324ZM100.395 33.48V34.872H98.8273V33.48H100.395ZM100.363 36.824V45H98.8593V36.824H100.363ZM110.503 35.352C110.503 35.896 110.36 36.3547 110.072 36.728C109.784 37.0907 109.384 37.3253 108.872 37.432L108.84 37.48C109.373 37.9493 109.64 38.536 109.64 39.24C109.64 40.008 109.352 40.6267 108.776 41.096C108.2 41.5653 107.416 41.8 106.424 41.8H105.336C105.016 41.8 104.749 41.8853 104.536 42.056C104.322 42.216 104.216 42.424 104.216 42.68C104.216 42.936 104.317 43.1387 104.52 43.288C104.722 43.4373 104.994 43.512 105.336 43.512H108.424C109.053 43.512 109.554 43.7093 109.928 44.104C110.312 44.4987 110.503 45 110.503 45.608C110.503 46.3333 110.226 46.9147 109.672 47.352C109.128 47.7893 108.392 48.008 107.464 48.008H104.248C103.885 48.008 103.549 47.912 103.24 47.72C102.941 47.528 102.701 47.2827 102.52 46.984C102.349 46.696 102.264 46.3973 102.264 46.088C102.264 45.64 102.37 45.2507 102.584 44.92C102.808 44.5893 103.101 44.344 103.464 44.184C102.973 43.8853 102.728 43.4427 102.728 42.856C102.728 42.472 102.84 42.1413 103.064 41.864C103.288 41.5867 103.602 41.3787 104.008 41.24C103.293 40.8453 102.936 40.1787 102.936 39.24C102.936 38.4507 103.224 37.8267 103.799 37.368C104.386 36.8987 105.197 36.664 106.232 36.664H106.296C106.893 36.664 107.437 36.7547 107.928 36.936C108.685 36.5627 109.117 36.0347 109.224 35.352H110.503ZM106.28 37.864C105.714 37.864 105.261 37.976 104.92 38.2C104.589 38.4133 104.424 38.76 104.424 39.24C104.424 39.72 104.589 40.0667 104.92 40.28C105.261 40.4933 105.714 40.6 106.28 40.6C106.845 40.6 107.298 40.4933 107.64 40.28C107.981 40.0667 108.152 39.72 108.152 39.24C108.152 38.76 107.981 38.4133 107.64 38.2C107.298 37.976 106.845 37.864 106.28 37.864ZM104.68 44.952C104.424 44.952 104.205 45.0427 104.024 45.224C103.842 45.4053 103.752 45.624 103.752 45.88C103.752 46.136 103.842 46.3547 104.024 46.536C104.205 46.7173 104.424 46.808 104.68 46.808H107.768C108.109 46.808 108.402 46.7067 108.648 46.504C108.893 46.312 109.016 46.088 109.016 45.832C109.016 45.5653 108.925 45.352 108.744 45.192C108.562 45.032 108.306 44.952 107.976 44.952H104.68ZM116.141 36.664C117.037 36.664 117.741 36.904 118.253 37.384C118.765 37.864 119.021 38.568 119.021 39.496V45H117.517V39.768C117.517 38.4987 116.941 37.864 115.789 37.864C115.405 37.864 115.048 37.9653 114.717 38.168C114.387 38.3707 114.12 38.648 113.917 39C113.715 39.3413 113.613 39.72 113.613 40.136V45H112.109V36.824H113.197L113.405 38.024C114.088 37.1173 115 36.664 116.141 36.664ZM127.26 36.824H129.164V38.024H127.26V42.904C127.26 43.288 127.335 43.5653 127.484 43.736C127.633 43.9067 127.863 43.992 128.172 43.992C128.449 43.992 128.78 43.912 129.164 43.752V44.872C128.78 45.064 128.284 45.16 127.676 45.16C127.047 45.16 126.567 44.9733 126.236 44.6C125.916 44.2267 125.756 43.6347 125.756 42.824V38.024H124.86V36.824H125.804L126.316 34.216H127.26V36.824ZM134.295 36.664C135.436 36.664 136.348 37.016 137.031 37.72C137.714 38.424 138.055 39.3893 138.055 40.616V41.208C138.055 42.4347 137.719 43.4 137.047 44.104C136.375 44.808 135.458 45.16 134.295 45.16C133.132 45.16 132.215 44.808 131.543 44.104C130.871 43.4 130.535 42.4347 130.535 41.208V40.616C130.535 39.3893 130.876 38.424 131.559 37.72C132.242 37.016 133.154 36.664 134.295 36.664ZM134.295 37.864C133.58 37.864 133.026 38.1093 132.631 38.6C132.236 39.0907 132.039 39.8107 132.039 40.76V41.064C132.039 41.992 132.231 42.7067 132.615 43.208C133.01 43.7093 133.57 43.96 134.295 43.96C134.999 43.96 135.548 43.7147 135.943 43.224C136.348 42.7227 136.551 42.0027 136.551 41.064V40.76C136.551 39.832 136.354 39.1173 135.959 38.616C135.575 38.1147 135.02 37.864 134.295 37.864ZM141.627 43.224V45H139.995V43.224H141.627ZM145.595 43.224V45H143.963V43.224H145.595ZM149.547 43.224V45H147.915V43.224H149.547Z" fill="#D8D8D8"/>
<path d="M30 6H312V4H30V6ZM312 72H30V74H312V72Z" fill="url(#paint0_linear_264_265)" fill-opacity="0.1" mask="url(#path-3-inside-2_264_265)"/>
<g clip-path="url(#clip0_264_265)">
<path d="M48.5154 107.8C48.5154 110.956 45.9571 113.514 42.8012 113.514L42.8008 102.086C45.9567 102.086 48.5154 104.644 48.5154 107.8Z" fill="#174EFF"/>
<path fill-rule="evenodd" clip-rule="evenodd" d="M42.8016 116.6C47.6617 116.6 51.6016 112.66 51.6016 107.8C51.6016 102.94 47.6617 99 42.8016 99C37.9415 99 34.0016 102.94 34.0016 107.8C34.0016 112.66 37.9415 116.6 42.8016 116.6ZM42.8016 119C48.9872 119 54.0016 113.986 54.0016 107.8C54.0016 101.614 48.9872 96.6 42.8016 96.6C36.616 96.6 31.6016 101.614 31.6016 107.8C31.6016 113.986 36.616 119 42.8016 119Z" fill="#174EFF"/>
</g>
<path d="M75.504 101.864C76.3573 101.864 77.104 102.04 77.744 102.392C78.384 102.744 78.8747 103.251 79.216 103.912C79.568 104.563 79.744 105.336 79.744 106.232H78.176C78.176 105.304 77.9467 104.584 77.488 104.072C77.0293 103.549 76.368 103.288 75.504 103.288C74.544 103.288 73.8133 103.587 73.312 104.184C72.8107 104.771 72.56 105.64 72.56 106.792V108.232C72.56 109.373 72.8053 110.243 73.296 110.84C73.7867 111.437 74.512 111.736 75.472 111.736C76.368 111.736 77.0507 111.48 77.52 110.968C78 110.456 78.24 109.741 78.24 108.824H79.744C79.744 109.709 79.568 110.477 79.216 111.128C78.8747 111.779 78.384 112.28 77.744 112.632C77.104 112.984 76.3573 113.16 75.504 113.16C74.0853 113.16 72.976 112.728 72.176 111.864C71.3867 110.989 70.992 109.779 70.992 108.232V106.792C70.992 105.256 71.3867 104.051 72.176 103.176C72.976 102.301 74.0853 101.864 75.504 101.864ZM83.4414 105.848C84.1134 105.059 84.956 104.664 85.9694 104.664C86.8654 104.664 87.5694 104.904 88.0814 105.384C88.5934 105.864 88.8494 106.568 88.8494 107.496V113H87.3454V107.768C87.3454 106.499 86.7694 105.864 85.6174 105.864C85.2334 105.864 84.876 105.965 84.5454 106.168C84.2147 106.371 83.948 106.648 83.7454 107C83.5427 107.341 83.4414 107.72 83.4414 108.136V113H81.9374V101.48H83.4414V105.848ZM94.6378 104.664C95.7151 104.664 96.5151 104.877 97.0378 105.304C97.5711 105.731 97.8378 106.349 97.8378 107.16V111.4C97.8378 111.592 97.8804 111.736 97.9658 111.832C98.0511 111.917 98.1578 111.96 98.2858 111.96C98.5311 111.96 98.7764 111.885 99.0218 111.736V112.84C98.6591 113.053 98.2484 113.16 97.7898 113.16C97.3311 113.16 96.9898 113.032 96.7658 112.776C96.5418 112.509 96.4191 112.147 96.3978 111.688C95.7364 112.669 94.7818 113.16 93.5338 113.16C92.6378 113.16 91.9658 112.968 91.5178 112.584C91.0804 112.189 90.8618 111.571 90.8618 110.728C90.8618 110.067 91.0324 109.549 91.3738 109.176C91.7151 108.792 92.2804 108.515 93.0698 108.344C93.8591 108.173 94.9471 108.088 96.3338 108.088V107.336C96.3338 106.792 96.1738 106.413 95.8538 106.2C95.5338 105.976 95.0698 105.864 94.4618 105.864C93.8858 105.864 93.4378 105.976 93.1178 106.2C92.7978 106.424 92.6378 106.739 92.6378 107.144V107.336H91.1658C91.1444 107.187 91.1338 107.011 91.1338 106.808C91.1338 106.435 91.2831 106.083 91.5818 105.752C91.8804 105.421 92.2858 105.16 92.7978 104.968C93.3098 104.765 93.8751 104.664 94.4938 104.664H94.6378ZM96.3338 109.256C95.2138 109.256 94.3658 109.315 93.7898 109.432C93.2244 109.539 92.8458 109.704 92.6538 109.928C92.4618 110.152 92.3658 110.461 92.3658 110.856C92.3658 111.592 92.9258 111.96 94.0458 111.96C94.4404 111.96 94.8138 111.864 95.1658 111.672C95.5178 111.469 95.8004 111.187 96.0138 110.824C96.2271 110.461 96.3338 110.045 96.3338 109.576V109.256ZM104.813 104.664C105.709 104.664 106.413 104.904 106.925 105.384C107.437 105.864 107.693 106.568 107.693 107.496V113H106.189V107.768C106.189 106.499 105.613 105.864 104.461 105.864C104.077 105.864 103.72 105.965 103.389 106.168C103.058 106.371 102.792 106.648 102.589 107C102.386 107.341 102.285 107.72 102.285 108.136V113H100.781V104.824H101.869L102.077 106.024C102.76 105.117 103.672 104.664 104.813 104.664ZM117.753 103.352C117.753 103.896 117.61 104.355 117.322 104.728C117.034 105.091 116.634 105.325 116.122 105.432L116.09 105.48C116.623 105.949 116.89 106.536 116.89 107.24C116.89 108.008 116.602 108.627 116.026 109.096C115.45 109.565 114.666 109.8 113.674 109.8H112.586C112.266 109.8 111.999 109.885 111.786 110.056C111.572 110.216 111.466 110.424 111.466 110.68C111.466 110.936 111.567 111.139 111.77 111.288C111.972 111.437 112.244 111.512 112.586 111.512H115.674C116.303 111.512 116.804 111.709 117.178 112.104C117.562 112.499 117.753 113 117.753 113.608C117.753 114.333 117.476 114.915 116.922 115.352C116.378 115.789 115.642 116.008 114.714 116.008H111.498C111.135 116.008 110.799 115.912 110.49 115.72C110.191 115.528 109.951 115.283 109.77 114.984C109.599 114.696 109.514 114.397 109.514 114.088C109.514 113.64 109.62 113.251 109.834 112.92C110.058 112.589 110.351 112.344 110.714 112.184C110.223 111.885 109.978 111.443 109.978 110.856C109.978 110.472 110.09 110.141 110.314 109.864C110.538 109.587 110.852 109.379 111.258 109.24C110.543 108.845 110.186 108.179 110.186 107.24C110.186 106.451 110.474 105.827 111.049 105.368C111.636 104.899 112.447 104.664 113.482 104.664H113.546C114.143 104.664 114.687 104.755 115.178 104.936C115.935 104.563 116.367 104.035 116.474 103.352H117.753ZM113.53 105.864C112.964 105.864 112.511 105.976 112.17 106.2C111.839 106.413 111.674 106.76 111.674 107.24C111.674 107.72 111.839 108.067 112.17 108.28C112.511 108.493 112.964 108.6 113.53 108.6C114.095 108.6 114.548 108.493 114.89 108.28C115.231 108.067 115.402 107.72 115.402 107.24C115.402 106.76 115.231 106.413 114.89 106.2C114.548 105.976 114.095 105.864 113.53 105.864ZM111.93 112.952C111.674 112.952 111.455 113.043 111.274 113.224C111.092 113.405 111.002 113.624 111.002 113.88C111.002 114.136 111.092 114.355 111.274 114.536C111.455 114.717 111.674 114.808 111.93 114.808H115.018C115.359 114.808 115.652 114.707 115.898 114.504C116.143 114.312 116.266 114.088 116.266 113.832C116.266 113.565 116.175 113.352 115.994 113.192C115.812 113.032 115.556 112.952 115.226 112.952H111.93ZM122.639 104.664C123.311 104.664 123.903 104.808 124.415 105.096C124.938 105.373 125.343 105.773 125.631 106.296C125.919 106.819 126.063 107.427 126.063 108.12V109.256H120.351C120.373 110.12 120.575 110.787 120.959 111.256C121.343 111.725 121.914 111.96 122.671 111.96C123.343 111.96 123.839 111.763 124.159 111.368C124.479 110.973 124.639 110.504 124.639 109.96H126.063C126.063 110.6 125.914 111.16 125.615 111.64C125.327 112.12 124.922 112.493 124.399 112.76C123.887 113.027 123.301 113.16 122.639 113.16H122.575C121.423 113.16 120.511 112.792 119.839 112.056C119.178 111.309 118.847 110.317 118.847 109.08V108.76C118.847 107.949 118.997 107.235 119.295 106.616C119.594 105.997 120.021 105.517 120.575 105.176C121.13 104.835 121.781 104.664 122.527 104.664H122.639ZM122.559 105.864C121.951 105.864 121.455 106.051 121.071 106.424C120.698 106.797 120.469 107.352 120.383 108.088H124.575V107.896C124.575 107.288 124.389 106.797 124.015 106.424C123.653 106.051 123.167 105.864 122.559 105.864ZM135.276 104.664C135.884 104.664 136.423 104.76 136.892 104.952C137.372 105.144 137.74 105.411 137.996 105.752C138.263 106.093 138.396 106.472 138.396 106.888L138.38 107.176H136.892V107.032C136.892 106.253 136.289 105.864 135.084 105.864C133.889 105.864 133.292 106.221 133.292 106.936C133.292 107.267 133.463 107.512 133.804 107.672C134.145 107.821 134.668 107.965 135.372 108.104C136.044 108.243 136.593 108.387 137.02 108.536C137.457 108.685 137.825 108.92 138.124 109.24C138.433 109.56 138.588 109.992 138.588 110.536C138.588 111.411 138.289 112.067 137.692 112.504C137.095 112.941 136.236 113.16 135.116 113.16H134.876C134.204 113.16 133.617 113.059 133.116 112.856C132.615 112.643 132.225 112.36 131.948 112.008C131.681 111.645 131.553 111.24 131.564 110.792V110.44H133.052V110.6C133.052 111.507 133.815 111.96 135.34 111.96C135.788 111.96 136.188 111.859 136.54 111.656C136.903 111.453 137.084 111.176 137.084 110.824C137.084 110.525 136.983 110.291 136.78 110.12C136.588 109.949 136.348 109.821 136.06 109.736C135.772 109.651 135.372 109.565 134.86 109.48C134.199 109.352 133.665 109.224 133.26 109.096C132.855 108.957 132.508 108.728 132.22 108.408C131.932 108.088 131.788 107.651 131.788 107.096C131.788 106.339 132.087 105.747 132.684 105.32C133.281 104.883 134.097 104.664 135.132 104.664H135.276ZM142.463 104.824H144.367V106.024H142.463V110.904C142.463 111.288 142.538 111.565 142.687 111.736C142.836 111.907 143.066 111.992 143.375 111.992C143.652 111.992 143.983 111.912 144.367 111.752V112.872C143.983 113.064 143.487 113.16 142.879 113.16C142.25 113.16 141.77 112.973 141.439 112.6C141.119 112.227 140.959 111.635 140.959 110.824V106.024H140.063V104.824H141.007L141.519 102.216H142.463V104.824ZM149.45 104.664C150.528 104.664 151.328 104.877 151.85 105.304C152.384 105.731 152.65 106.349 152.65 107.16V111.4C152.65 111.592 152.693 111.736 152.778 111.832C152.864 111.917 152.97 111.96 153.098 111.96C153.344 111.96 153.589 111.885 153.834 111.736V112.84C153.472 113.053 153.061 113.16 152.602 113.16C152.144 113.16 151.802 113.032 151.578 112.776C151.354 112.509 151.232 112.147 151.21 111.688C150.549 112.669 149.594 113.16 148.346 113.16C147.45 113.16 146.778 112.968 146.33 112.584C145.893 112.189 145.674 111.571 145.674 110.728C145.674 110.067 145.845 109.549 146.186 109.176C146.528 108.792 147.093 108.515 147.882 108.344C148.672 108.173 149.76 108.088 151.146 108.088V107.336C151.146 106.792 150.986 106.413 150.666 106.2C150.346 105.976 149.882 105.864 149.274 105.864C148.698 105.864 148.25 105.976 147.93 106.2C147.61 106.424 147.45 106.739 147.45 107.144V107.336H145.978C145.957 107.187 145.946 107.011 145.946 106.808C145.946 106.435 146.096 106.083 146.394 105.752C146.693 105.421 147.098 105.16 147.61 104.968C148.122 104.765 148.688 104.664 149.306 104.664H149.45ZM151.146 109.256C150.026 109.256 149.178 109.315 148.602 109.432C148.037 109.539 147.658 109.704 147.466 109.928C147.274 110.152 147.178 110.461 147.178 110.856C147.178 111.592 147.738 111.96 148.858 111.96C149.253 111.96 149.626 111.864 149.978 111.672C150.33 111.469 150.613 111.187 150.826 110.824C151.04 110.461 151.146 110.045 151.146 109.576V109.256ZM157.354 104.824H159.258V106.024H157.354V110.904C157.354 111.288 157.428 111.565 157.578 111.736C157.727 111.907 157.956 111.992 158.266 111.992C158.543 111.992 158.874 111.912 159.258 111.752V112.872C158.874 113.064 158.378 113.16 157.77 113.16C157.14 113.16 156.66 112.973 156.33 112.6C156.01 112.227 155.85 111.635 155.85 110.824V106.024H154.954V104.824H155.898L156.41 102.216H157.354V104.824ZM167.957 111.4C167.957 111.592 168 111.736 168.085 111.832C168.17 111.917 168.277 111.96 168.405 111.96C168.64 111.96 168.88 111.885 169.125 111.736V112.84C168.794 113.053 168.458 113.16 168.117 113.16C167.541 113.16 167.136 113.043 166.901 112.808C166.677 112.573 166.554 112.243 166.533 111.816C166.245 112.243 165.872 112.573 165.413 112.808C164.965 113.043 164.448 113.16 163.861 113.16C163.04 113.16 162.362 112.92 161.829 112.44C161.306 111.949 161.045 111.245 161.045 110.328V104.824H162.549V110.056C162.549 111.325 163.125 111.96 164.277 111.96C164.65 111.96 165.002 111.859 165.333 111.656C165.674 111.453 165.946 111.181 166.149 110.84C166.352 110.488 166.453 110.104 166.453 109.688V104.824H167.957V111.4ZM174.136 104.664C174.744 104.664 175.282 104.76 175.752 104.952C176.232 105.144 176.6 105.411 176.856 105.752C177.122 106.093 177.256 106.472 177.256 106.888L177.24 107.176H175.752V107.032C175.752 106.253 175.149 105.864 173.944 105.864C172.749 105.864 172.152 106.221 172.152 106.936C172.152 107.267 172.322 107.512 172.664 107.672C173.005 107.821 173.528 107.965 174.232 108.104C174.904 108.243 175.453 108.387 175.88 108.536C176.317 108.685 176.685 108.92 176.984 109.24C177.293 109.56 177.448 109.992 177.448 110.536C177.448 111.411 177.149 112.067 176.552 112.504C175.954 112.941 175.096 113.16 173.976 113.16H173.736C173.064 113.16 172.477 113.059 171.976 112.856C171.474 112.643 171.085 112.36 170.808 112.008C170.541 111.645 170.413 111.24 170.424 110.792V110.44H171.912V110.6C171.912 111.507 172.674 111.96 174.2 111.96C174.648 111.96 175.048 111.859 175.4 111.656C175.762 111.453 175.944 111.176 175.944 110.824C175.944 110.525 175.842 110.291 175.64 110.12C175.448 109.949 175.208 109.821 174.92 109.736C174.632 109.651 174.232 109.565 173.72 109.48C173.058 109.352 172.525 109.224 172.12 109.096C171.714 108.957 171.368 108.728 171.08 108.408C170.792 108.088 170.648 107.651 170.648 107.096C170.648 106.339 170.946 105.747 171.544 105.32C172.141 104.883 172.957 104.664 173.992 104.664H174.136ZM180.97 111.224V113H179.338V111.224H180.97ZM184.938 111.224V113H183.306V111.224H184.938ZM188.89 111.224V113H187.258V111.224H188.89Z" fill="#D8D8D8"/>
<path d="M312 140H30V142H312V140Z" fill="url(#paint1_linear_264_265)" fill-opacity="0.1" mask="url(#path-7-inside-3_264_265)"/>
<path d="M34.5 175H33C32.1716 175 31.5 175.672 31.5 176.5V182.5C31.5 183.328 32.1716 184 33 184H34.5C35.3284 184 36 183.328 36 182.5V176.5C36 175.672 35.3284 175 34.5 175Z" fill="#174EFF"/>
<path d="M42 170.5H40.5C39.6716 170.5 39 171.172 39 172V182.5C39 183.328 39.6716 184 40.5 184H42C42.8284 184 43.5 183.328 43.5 182.5V172C43.5 171.172 42.8284 170.5 42 170.5Z" fill="#174EFF"/>
<path d="M49.5 166H48C47.1716 166 46.5 166.672 46.5 167.5V182.5C46.5 183.328 47.1716 184 48 184H49.5C50.3284 184 51 183.328 51 182.5V167.5C51 166.672 50.3284 166 49.5 166Z" fill="#174EFF"/>
<path d="M75.504 169.864C76.3573 169.864 77.104 170.04 77.744 170.392C78.384 170.744 78.8747 171.251 79.216 171.912C79.568 172.563 79.744 173.336 79.744 174.232H78.176C78.176 173.304 77.9467 172.584 77.488 172.072C77.0293 171.549 76.368 171.288 75.504 171.288C74.544 171.288 73.8133 171.587 73.312 172.184C72.8107 172.771 72.56 173.64 72.56 174.792V176.232C72.56 177.373 72.8053 178.243 73.296 178.84C73.7867 179.437 74.512 179.736 75.472 179.736C76.368 179.736 77.0507 179.48 77.52 178.968C78 178.456 78.24 177.741 78.24 176.824H79.744C79.744 177.709 79.568 178.477 79.216 179.128C78.8747 179.779 78.384 180.28 77.744 180.632C77.104 180.984 76.3573 181.16 75.504 181.16C74.0853 181.16 72.976 180.728 72.176 179.864C71.3867 178.989 70.992 177.779 70.992 176.232V174.792C70.992 173.256 71.3867 172.051 72.176 171.176C72.976 170.301 74.0853 169.864 75.504 169.864ZM83.4414 173.848C84.1134 173.059 84.956 172.664 85.9694 172.664C86.8654 172.664 87.5694 172.904 88.0814 173.384C88.5934 173.864 88.8494 174.568 88.8494 175.496V181H87.3454V175.768C87.3454 174.499 86.7694 173.864 85.6174 173.864C85.2334 173.864 84.876 173.965 84.5454 174.168C84.2147 174.371 83.948 174.648 83.7454 175C83.5427 175.341 83.4414 175.72 83.4414 176.136V181H81.9374V169.48H83.4414V173.848ZM94.6378 172.664C95.7151 172.664 96.5151 172.877 97.0378 173.304C97.5711 173.731 97.8378 174.349 97.8378 175.16V179.4C97.8378 179.592 97.8804 179.736 97.9658 179.832C98.0511 179.917 98.1578 179.96 98.2858 179.96C98.5311 179.96 98.7764 179.885 99.0218 179.736V180.84C98.6591 181.053 98.2484 181.16 97.7898 181.16C97.3311 181.16 96.9898 181.032 96.7658 180.776C96.5418 180.509 96.4191 180.147 96.3978 179.688C95.7364 180.669 94.7818 181.16 93.5338 181.16C92.6378 181.16 91.9658 180.968 91.5178 180.584C91.0804 180.189 90.8618 179.571 90.8618 178.728C90.8618 178.067 91.0324 177.549 91.3738 177.176C91.7151 176.792 92.2804 176.515 93.0698 176.344C93.8591 176.173 94.9471 176.088 96.3338 176.088V175.336C96.3338 174.792 96.1738 174.413 95.8538 174.2C95.5338 173.976 95.0698 173.864 94.4618 173.864C93.8858 173.864 93.4378 173.976 93.1178 174.2C92.7978 174.424 92.6378 174.739 92.6378 175.144V175.336H91.1658C91.1444 175.187 91.1338 175.011 91.1338 174.808C91.1338 174.435 91.2831 174.083 91.5818 173.752C91.8804 173.421 92.2858 173.16 92.7978 172.968C93.3098 172.765 93.8751 172.664 94.4938 172.664H94.6378ZM96.3338 177.256C95.2138 177.256 94.3658 177.315 93.7898 177.432C93.2244 177.539 92.8458 177.704 92.6538 177.928C92.4618 178.152 92.3658 178.461 92.3658 178.856C92.3658 179.592 92.9258 179.96 94.0458 179.96C94.4404 179.96 94.8138 179.864 95.1658 179.672C95.5178 179.469 95.8004 179.187 96.0138 178.824C96.2271 178.461 96.3338 178.045 96.3338 177.576V177.256ZM104.813 172.664C105.709 172.664 106.413 172.904 106.925 173.384C107.437 173.864 107.693 174.568 107.693 175.496V181H106.189V175.768C106.189 174.499 105.613 173.864 104.461 173.864C104.077 173.864 103.72 173.965 103.389 174.168C103.058 174.371 102.792 174.648 102.589 175C102.386 175.341 102.285 175.72 102.285 176.136V181H100.781V172.824H101.869L102.077 174.024C102.76 173.117 103.672 172.664 104.813 172.664ZM117.753 171.352C117.753 171.896 117.61 172.355 117.322 172.728C117.034 173.091 116.634 173.325 116.122 173.432L116.09 173.48C116.623 173.949 116.89 174.536 116.89 175.24C116.89 176.008 116.602 176.627 116.026 177.096C115.45 177.565 114.666 177.8 113.674 177.8H112.586C112.266 177.8 111.999 177.885 111.786 178.056C111.572 178.216 111.466 178.424 111.466 178.68C111.466 178.936 111.567 179.139 111.77 179.288C111.972 179.437 112.244 179.512 112.586 179.512H115.674C116.303 179.512 116.804 179.709 117.178 180.104C117.562 180.499 117.753 181 117.753 181.608C117.753 182.333 117.476 182.915 116.922 183.352C116.378 183.789 115.642 184.008 114.714 184.008H111.498C111.135 184.008 110.799 183.912 110.49 183.72C110.191 183.528 109.951 183.283 109.77 182.984C109.599 182.696 109.514 182.397 109.514 182.088C109.514 181.64 109.62 181.251 109.834 180.92C110.058 180.589 110.351 180.344 110.714 180.184C110.223 179.885 109.978 179.443 109.978 178.856C109.978 178.472 110.09 178.141 110.314 177.864C110.538 177.587 110.852 177.379 111.258 177.24C110.543 176.845 110.186 176.179 110.186 175.24C110.186 174.451 110.474 173.827 111.049 173.368C111.636 172.899 112.447 172.664 113.482 172.664H113.546C114.143 172.664 114.687 172.755 115.178 172.936C115.935 172.563 116.367 172.035 116.474 171.352H117.753ZM113.53 173.864C112.964 173.864 112.511 173.976 112.17 174.2C111.839 174.413 111.674 174.76 111.674 175.24C111.674 175.72 111.839 176.067 112.17 176.28C112.511 176.493 112.964 176.6 113.53 176.6C114.095 176.6 114.548 176.493 114.89 176.28C115.231 176.067 115.402 175.72 115.402 175.24C115.402 174.76 115.231 174.413 114.89 174.2C114.548 173.976 114.095 173.864 113.53 173.864ZM111.93 180.952C111.674 180.952 111.455 181.043 111.274 181.224C111.092 181.405 111.002 181.624 111.002 181.88C111.002 182.136 111.092 182.355 111.274 182.536C111.455 182.717 111.674 182.808 111.93 182.808H115.018C115.359 182.808 115.652 182.707 115.898 182.504C116.143 182.312 116.266 182.088 116.266 181.832C116.266 181.565 116.175 181.352 115.994 181.192C115.812 181.032 115.556 180.952 115.226 180.952H111.93ZM122.639 172.664C123.311 172.664 123.903 172.808 124.415 173.096C124.938 173.373 125.343 173.773 125.631 174.296C125.919 174.819 126.063 175.427 126.063 176.12V177.256H120.351C120.373 178.12 120.575 178.787 120.959 179.256C121.343 179.725 121.914 179.96 122.671 179.96C123.343 179.96 123.839 179.763 124.159 179.368C124.479 178.973 124.639 178.504 124.639 177.96H126.063C126.063 178.6 125.914 179.16 125.615 179.64C125.327 180.12 124.922 180.493 124.399 180.76C123.887 181.027 123.301 181.16 122.639 181.16H122.575C121.423 181.16 120.511 180.792 119.839 180.056C119.178 179.309 118.847 178.317 118.847 177.08V176.76C118.847 175.949 118.997 175.235 119.295 174.616C119.594 173.997 120.021 173.517 120.575 173.176C121.13 172.835 121.781 172.664 122.527 172.664H122.639ZM122.559 173.864C121.951 173.864 121.455 174.051 121.071 174.424C120.698 174.797 120.469 175.352 120.383 176.088H124.575V175.896C124.575 175.288 124.389 174.797 124.015 174.424C123.653 174.051 123.167 173.864 122.559 173.864ZM136.012 172.664C137.047 172.664 137.857 173.043 138.444 173.8C139.031 174.557 139.324 175.597 139.324 176.92V177.096C139.324 178.355 139.031 179.347 138.444 180.072C137.868 180.797 137.057 181.16 136.012 181.16C135.009 181.16 134.225 180.76 133.66 179.96V183.896H132.156V172.824H133.276C133.351 173.165 133.42 173.539 133.484 173.944C134.092 173.091 134.935 172.664 136.012 172.664ZM135.74 173.864C135.015 173.864 134.481 174.115 134.14 174.616C133.809 175.117 133.644 175.88 133.644 176.904C133.644 177.949 133.815 178.723 134.156 179.224C134.508 179.715 135.036 179.96 135.74 179.96C136.444 179.96 136.967 179.709 137.308 179.208C137.649 178.707 137.82 177.939 137.82 176.904C137.82 175.859 137.644 175.091 137.292 174.6C136.951 174.109 136.433 173.864 135.74 173.864ZM145.164 172.664C145.922 172.664 146.514 172.909 146.94 173.4C147.367 173.88 147.58 174.488 147.58 175.224L147.532 175.832H146.204V175.48C146.204 175.16 146.124 174.877 145.964 174.632C145.804 174.387 145.602 174.2 145.356 174.072C145.111 173.933 144.866 173.864 144.62 173.864C144.108 173.864 143.708 174.067 143.42 174.472C143.132 174.877 142.988 175.427 142.988 176.12V181H141.484V172.824H142.556L142.78 174.04C142.844 173.827 142.988 173.613 143.212 173.4C143.436 173.187 143.714 173.011 144.044 172.872C144.386 172.733 144.759 172.664 145.164 172.664ZM150.864 169.48V170.872H149.296V169.48H150.864ZM150.832 172.824V181H149.328V172.824H150.832ZM156.748 172.664C157.89 172.664 158.802 173.016 159.484 173.72C160.167 174.424 160.508 175.389 160.508 176.616V177.208C160.508 178.435 160.172 179.4 159.5 180.104C158.828 180.808 157.911 181.16 156.748 181.16C155.586 181.16 154.668 180.808 153.996 180.104C153.324 179.4 152.988 178.435 152.988 177.208V176.616C152.988 175.389 153.33 174.424 154.012 173.72C154.695 173.016 155.607 172.664 156.748 172.664ZM156.748 173.864C156.034 173.864 155.479 174.109 155.084 174.6C154.69 175.091 154.492 175.811 154.492 176.76V177.064C154.492 177.992 154.684 178.707 155.068 179.208C155.463 179.709 156.023 179.96 156.748 179.96C157.452 179.96 158.002 179.715 158.396 179.224C158.802 178.723 159.004 178.003 159.004 177.064V176.76C159.004 175.832 158.807 175.117 158.412 174.616C158.028 174.115 157.474 173.864 156.748 173.864ZM166.352 172.664C167.109 172.664 167.701 172.909 168.128 173.4C168.554 173.88 168.768 174.488 168.768 175.224L168.72 175.832H167.392V175.48C167.392 175.16 167.312 174.877 167.152 174.632C166.992 174.387 166.789 174.2 166.544 174.072C166.298 173.933 166.053 173.864 165.808 173.864C165.296 173.864 164.896 174.067 164.608 174.472C164.32 174.877 164.176 175.427 164.176 176.12V181H162.672V172.824H163.744L163.968 174.04C164.032 173.827 164.176 173.613 164.4 173.4C164.624 173.187 164.901 173.011 165.232 172.872C165.573 172.733 165.946 172.664 166.352 172.664ZM172.052 169.48V170.872H170.484V169.48H172.052ZM172.02 172.824V181H170.516V172.824H172.02ZM176.432 172.824H178.336V174.024H176.432V178.904C176.432 179.288 176.506 179.565 176.656 179.736C176.805 179.907 177.034 179.992 177.344 179.992C177.621 179.992 177.952 179.912 178.336 179.752V180.872C177.952 181.064 177.456 181.16 176.848 181.16C176.218 181.16 175.738 180.973 175.408 180.6C175.088 180.227 174.928 179.635 174.928 178.824V174.024H174.032V172.824H174.976L175.488 170.216H176.432V172.824ZM183.819 180.68C183.456 181.576 183.12 182.259 182.811 182.728C182.502 183.208 182.187 183.533 181.867 183.704C181.547 183.885 181.174 183.976 180.747 183.976C180.352 183.976 179.979 183.901 179.627 183.752V182.52C179.979 182.669 180.246 182.744 180.427 182.744C180.864 182.744 181.227 182.595 181.515 182.296C181.814 182.008 182.059 181.549 182.251 180.92L179.067 172.824H180.667L183.019 178.856H183.083L185.403 172.824H186.875L183.819 180.68ZM189.799 179.224V181H188.167V179.224H189.799ZM193.767 179.224V181H192.135V179.224H193.767ZM197.719 179.224V181H196.087V179.224H197.719Z" fill="#D8D8D8"/>
<path d="M312 208H30V210H312V208Z" fill="url(#paint2_linear_264_265)" fill-opacity="0.1" mask="url(#path-12-inside-4_264_265)"/>
<path fill-rule="evenodd" clip-rule="evenodd" d="M45.3158 237C45.9506 237 46.5189 237.283 46.86 237.72L51 243L46.86 248.28C46.5189 248.717 45.9506 249 45.3158 249L34.8947 248.991C33.8526 248.991 33 248.229 33 247.286V238.714C33 237.771 33.8526 237.009 34.8947 237.009L45.3158 237ZM46.6875 244.5C47.516 244.5 48.1875 243.828 48.1875 243C48.1875 242.172 47.516 241.5 46.6875 241.5C45.859 241.5 45.1875 242.172 45.1875 243C45.1875 243.828 45.859 244.5 46.6875 244.5Z" fill="#174EFF"/>
<path d="M76.08 238.024L80.368 249H78.672L77.744 246.616H72.496L71.584 249H70.064L74.352 238.024H76.08ZM75.184 239.912H75.088L73.056 245.192H77.2L75.184 239.912ZM88.4375 249H87.3175C87.2428 248.659 87.1735 248.285 87.1095 247.88C86.5015 248.733 85.6588 249.16 84.5815 249.16C83.5575 249.16 82.7468 248.781 82.1495 248.024C81.5628 247.267 81.2695 246.227 81.2695 244.904V244.728C81.2695 243.48 81.5575 242.493 82.1335 241.768C82.7202 241.032 83.5362 240.664 84.5815 240.664C85.5948 240.664 86.3788 241.064 86.9335 241.864V237.48H88.4375V249ZM84.8535 241.864C84.1388 241.864 83.6108 242.115 83.2695 242.616C82.9388 243.107 82.7735 243.875 82.7735 244.92C82.7735 245.965 82.9442 246.733 83.2855 247.224C83.6268 247.715 84.1495 247.96 84.8535 247.96C86.2508 247.96 86.9495 246.947 86.9495 244.92C86.9495 243.875 86.7735 243.107 86.4215 242.616C86.0695 242.115 85.5468 241.864 84.8535 241.864ZM97.7656 249H96.6456C96.571 248.659 96.5016 248.285 96.4376 247.88C95.8296 248.733 94.987 249.16 93.9096 249.16C92.8856 249.16 92.075 248.781 91.4776 248.024C90.891 247.267 90.5976 246.227 90.5976 244.904V244.728C90.5976 243.48 90.8856 242.493 91.4616 241.768C92.0483 241.032 92.8643 240.664 93.9096 240.664C94.923 240.664 95.707 241.064 96.2616 241.864V237.48H97.7656V249ZM94.1816 241.864C93.467 241.864 92.939 242.115 92.5976 242.616C92.267 243.107 92.1016 243.875 92.1016 244.92C92.1016 245.965 92.2723 246.733 92.6136 247.224C92.955 247.715 93.4776 247.96 94.1816 247.96C95.579 247.96 96.2776 246.947 96.2776 244.92C96.2776 243.875 96.1016 243.107 95.7496 242.616C95.3976 242.115 94.875 241.864 94.1816 241.864ZM105.896 237.48V249H104.392V237.48H105.896ZM111.825 240.664C112.903 240.664 113.703 240.877 114.225 241.304C114.759 241.731 115.025 242.349 115.025 243.16V247.4C115.025 247.592 115.068 247.736 115.153 247.832C115.239 247.917 115.345 247.96 115.473 247.96C115.719 247.96 115.964 247.885 116.209 247.736V248.84C115.847 249.053 115.436 249.16 114.977 249.16C114.519 249.16 114.177 249.032 113.953 248.776C113.729 248.509 113.607 248.147 113.585 247.688C112.924 248.669 111.969 249.16 110.721 249.16C109.825 249.16 109.153 248.968 108.705 248.584C108.268 248.189 108.049 247.571 108.049 246.728C108.049 246.067 108.22 245.549 108.561 245.176C108.903 244.792 109.468 244.515 110.257 244.344C111.047 244.173 112.135 244.088 113.521 244.088V243.336C113.521 242.792 113.361 242.413 113.041 242.2C112.721 241.976 112.257 241.864 111.649 241.864C111.073 241.864 110.625 241.976 110.305 242.2C109.985 242.424 109.825 242.739 109.825 243.144V243.336H108.353C108.332 243.187 108.321 243.011 108.321 242.808C108.321 242.435 108.471 242.083 108.769 241.752C109.068 241.421 109.473 241.16 109.985 240.968C110.497 240.765 111.063 240.664 111.681 240.664H111.825ZM113.521 245.256C112.401 245.256 111.553 245.315 110.977 245.432C110.412 245.539 110.033 245.704 109.841 245.928C109.649 246.152 109.553 246.461 109.553 246.856C109.553 247.592 110.113 247.96 111.233 247.96C111.628 247.96 112.001 247.864 112.353 247.672C112.705 247.469 112.988 247.187 113.201 246.824C113.415 246.461 113.521 246.045 113.521 245.576V245.256ZM119.473 241.864C119.718 241.512 120.049 241.224 120.465 241C120.891 240.776 121.35 240.664 121.841 240.664C122.886 240.664 123.697 241.032 124.273 241.768C124.849 242.493 125.137 243.48 125.137 244.728V244.904C125.137 246.227 124.838 247.267 124.241 248.024C123.654 248.781 122.849 249.16 121.825 249.16C120.609 249.16 119.691 248.675 119.073 247.704L118.545 249H117.969V237.48H119.473V241.864ZM121.537 241.864C120.822 241.864 120.294 242.115 119.953 242.616C119.622 243.107 119.457 243.875 119.457 244.92C119.457 245.965 119.627 246.733 119.969 247.224C120.31 247.715 120.833 247.96 121.537 247.96C122.934 247.96 123.633 246.947 123.633 244.92C123.633 243.875 123.457 243.107 123.105 242.616C122.753 242.115 122.23 241.864 121.537 241.864ZM130.577 240.664C131.249 240.664 131.841 240.808 132.353 241.096C132.875 241.373 133.281 241.773 133.569 242.296C133.857 242.819 134.001 243.427 134.001 244.12V245.256H128.289C128.31 246.12 128.513 246.787 128.897 247.256C129.281 247.725 129.851 247.96 130.609 247.96C131.281 247.96 131.777 247.763 132.097 247.368C132.417 246.973 132.577 246.504 132.577 245.96H134.001C134.001 246.6 133.851 247.16 133.553 247.64C133.265 248.12 132.859 248.493 132.337 248.76C131.825 249.027 131.238 249.16 130.577 249.16H130.513C129.361 249.16 128.449 248.792 127.777 248.056C127.115 247.309 126.785 246.317 126.785 245.08V244.76C126.785 243.949 126.934 243.235 127.233 242.616C127.531 241.997 127.958 241.517 128.513 241.176C129.067 240.835 129.718 240.664 130.465 240.664H130.577ZM130.497 241.864C129.889 241.864 129.393 242.051 129.009 242.424C128.635 242.797 128.406 243.352 128.321 244.088H132.513V243.896C132.513 243.288 132.326 242.797 131.953 242.424C131.59 242.051 131.105 241.864 130.497 241.864ZM137.755 237.48V249H136.251V237.48H137.755ZM143.589 240.664C144.197 240.664 144.735 240.76 145.205 240.952C145.685 241.144 146.053 241.411 146.309 241.752C146.575 242.093 146.709 242.472 146.709 242.888L146.693 243.176H145.205V243.032C145.205 242.253 144.602 241.864 143.397 241.864C142.202 241.864 141.605 242.221 141.605 242.936C141.605 243.267 141.775 243.512 142.117 243.672C142.458 243.821 142.981 243.965 143.685 244.104C144.357 244.243 144.906 244.387 145.333 244.536C145.77 244.685 146.138 244.92 146.437 245.24C146.746 245.56 146.901 245.992 146.901 246.536C146.901 247.411 146.602 248.067 146.005 248.504C145.407 248.941 144.549 249.16 143.429 249.16H143.189C142.517 249.16 141.93 249.059 141.429 248.856C140.927 248.643 140.538 248.36 140.261 248.008C139.994 247.645 139.866 247.24 139.877 246.792V246.44H141.365V246.6C141.365 247.507 142.127 247.96 143.653 247.96C144.101 247.96 144.501 247.859 144.853 247.656C145.215 247.453 145.397 247.176 145.397 246.824C145.397 246.525 145.295 246.291 145.093 246.12C144.901 245.949 144.661 245.821 144.373 245.736C144.085 245.651 143.685 245.565 143.173 245.48C142.511 245.352 141.978 245.224 141.573 245.096C141.167 244.957 140.821 244.728 140.533 244.408C140.245 244.088 140.101 243.651 140.101 243.096C140.101 242.339 140.399 241.747 140.997 241.32C141.594 240.883 142.41 240.664 143.445 240.664H143.589ZM150.424 247.224V249H148.792V247.224H150.424ZM154.392 247.224V249H152.76V247.224H154.392ZM158.344 247.224V249H156.712V247.224H158.344Z" fill="#D8D8D8"/>
<path d="M312 276H30V278H312V276Z" fill="url(#paint3_linear_264_265)" fill-opacity="0.1" mask="url(#path-18-inside-5_264_265)"/>
<path d="M2 282V0H-2V282H2Z" fill="url(#paint4_linear_264_265)" mask="url(#path-1-inside-1_264_265)"/>
<defs>
<linearGradient id="paint0_linear_264_265" x1="123.927" y1="5" x2="329.734" y2="5" gradientUnits="userSpaceOnUse">
<stop stop-color="white"/>
<stop offset="1" stop-color="white" stop-opacity="0"/>
</linearGradient>
<linearGradient id="paint1_linear_264_265" x1="123.927" y1="73" x2="329.734" y2="73" gradientUnits="userSpaceOnUse">
<stop stop-color="white"/>
<stop offset="1" stop-color="white" stop-opacity="0"/>
</linearGradient>
<linearGradient id="paint2_linear_264_265" x1="123.927" y1="141" x2="329.734" y2="141" gradientUnits="userSpaceOnUse">
<stop stop-color="white"/>
<stop offset="1" stop-color="white" stop-opacity="0"/>
</linearGradient>
<linearGradient id="paint3_linear_264_265" x1="123.927" y1="209" x2="329.734" y2="209" gradientUnits="userSpaceOnUse">
<stop stop-color="white"/>
<stop offset="1" stop-color="white" stop-opacity="0"/>
</linearGradient>
<linearGradient id="paint4_linear_264_265" x1="171.5" y1="0" x2="171.5" y2="282" gradientUnits="userSpaceOnUse">
<stop stop-color="#1C4EFF"/>
<stop offset="1" stop-color="#000F94"/>
</linearGradient>
<clipPath id="clip0_264_265">
<rect width="24" height="24" fill="white" transform="translate(30 95)"/>
</clipPath>
</defs>
</svg>
