<svg width="24" height="24" viewBox="0 0 24 24" fill="none" xmlns="http://www.w3.org/2000/svg">
<path d="M18.883 5.25625C17.6694 4.66938 16.3715 4.24286 15.0147 4C14.8481 4.31134 14.6535 4.7301 14.5192 5.06321C13.0769 4.83905 11.6479 4.83905 10.2321 5.06321C10.098 4.7301 9.89887 4.31134 9.73075 4C8.3725 4.24286 7.07325 4.67094 5.85952 5.25935C3.41144 9.08253 2.7478 12.8107 3.07962 16.486C4.70332 17.7391 6.27689 18.5004 7.82389 18.9985C8.20585 18.4551 8.54651 17.8776 8.83999 17.269C8.28106 17.0495 7.74572 16.7786 7.2399 16.4643C7.3741 16.3615 7.50536 16.254 7.63217 16.1435C10.7173 17.6349 14.0694 17.6349 17.1177 16.1435C17.2461 16.254 17.3772 16.3615 17.51 16.4643C17.0027 16.7803 16.4659 17.051 15.907 17.2706C16.2005 17.8776 16.5396 18.4567 16.9231 19C18.4716 18.5019 20.0466 17.7406 21.6702 16.486C22.0596 12.2254 21.0052 8.53145 18.883 5.25625ZM9.2603 14.2257C8.33416 14.2257 7.57465 13.3322 7.57465 12.2441C7.57465 11.156 8.31794 10.2609 9.2603 10.2609C10.2027 10.2609 10.9621 11.1544 10.9459 12.2441C10.9474 13.3322 10.2027 14.2257 9.2603 14.2257ZM15.4896 14.2257C14.5635 14.2257 13.804 13.3322 13.804 12.2441C13.804 11.156 14.5473 10.2609 15.4896 10.2609C16.432 10.2609 17.1915 11.1544 17.1752 12.2441C17.1752 13.3322 16.432 14.2257 15.4896 14.2257Z" fill="#D8D8D8"/>
</svg>
