<svg width="24" height="24" viewBox="0 0 24 24" fill="none" xmlns="http://www.w3.org/2000/svg">
<path fill-rule="evenodd" clip-rule="evenodd" d="M12 22.5C17.799 22.5 22.5 17.799 22.5 12C22.5 6.20101 17.799 1.5 12 1.5C6.20101 1.5 1.5 6.20101 1.5 12C1.5 17.799 6.20101 22.5 12 22.5ZM10.5394 6.78746C10.518 6.35907 10.8595 6 11.2884 6H12.7116C13.1405 6 13.482 6.35907 13.4606 6.78746L13.1606 12.7875C13.1407 13.1866 12.8112 13.5 12.4116 13.5H11.5884C11.1888 13.5 10.8593 13.1866 10.8394 12.7875L10.5394 6.78746ZM10.5 16.5C10.5 15.6715 11.1716 15 12 15C12.8284 15 13.5 15.6715 13.5 16.5C13.5 17.3285 12.8284 18 12 18C11.1716 18 10.5 17.3285 10.5 16.5Z" fill="#D8D8D8"/>
</svg>
