<svg width="24" height="24" viewBox="0 0 24 24" fill="none" xmlns="http://www.w3.org/2000/svg">
<path fill-rule="evenodd" clip-rule="evenodd" d="M19.9451 4.9375C19.9451 7.11212 18.1202 8.875 15.8691 8.875H11.793V1H15.8691C18.1202 1 19.9451 2.76288 19.9451 4.9375ZM15.8691 7.5625C17.3699 7.5625 18.5864 6.3872 18.5864 4.9375C18.5864 3.4878 17.3699 2.3125 15.8691 2.3125H13.1517V7.5625H15.8691Z" fill="#D8D8D8"/>
<path fill-rule="evenodd" clip-rule="evenodd" d="M5 4.9375C5 7.11212 6.82493 8.875 9.07609 8.875H13.1522V1H9.07609C6.82493 1 5 2.76288 5 4.9375ZM9.07609 7.5625C7.57536 7.5625 6.3587 6.3872 6.3587 4.9375C6.3587 3.4878 7.57536 2.3125 9.07609 2.3125H11.7935V7.5625H9.07609Z" fill="#D8D8D8"/>
<path fill-rule="evenodd" clip-rule="evenodd" d="M5 11.5C5 13.6746 6.82493 15.4375 9.07609 15.4375H13.1522V7.5625H9.07609C6.82493 7.5625 5 9.32538 5 11.5ZM9.07609 14.125C7.57536 14.125 6.3587 12.9498 6.3587 11.5C6.3587 10.0502 7.57536 8.875 9.07609 8.875H11.7935V14.125H9.07609Z" fill="#D8D8D8"/>
<path fill-rule="evenodd" clip-rule="evenodd" d="M5 18.0625C5 20.2371 6.82493 22 9.07609 22C11.3272 22 13.1522 20.2371 13.1522 18.0625V14.125H9.07609C6.82493 14.125 5 15.8879 5 18.0625ZM9.07609 20.6875C7.57536 20.6875 6.3587 19.5123 6.3587 18.0625C6.3587 16.6127 7.57536 15.4375 9.07609 15.4375H11.7935V18.0625C11.7935 19.5123 10.5768 20.6875 9.07609 20.6875Z" fill="#D8D8D8"/>
<path fill-rule="evenodd" clip-rule="evenodd" d="M11.793 11.5C11.793 13.6746 13.6179 15.4375 15.8691 15.4375C18.1202 15.4375 19.9451 13.6746 19.9451 11.5C19.9451 9.32538 18.1202 7.5625 15.8691 7.5625C13.6179 7.5625 11.793 9.32538 11.793 11.5ZM15.8691 14.125C14.3683 14.125 13.1517 12.9498 13.1517 11.5C13.1517 10.0502 14.3683 8.875 15.8691 8.875C17.3699 8.875 18.5864 10.0502 18.5864 11.5C18.5864 12.9498 17.3699 14.125 15.8691 14.125Z" fill="#D8D8D8"/>
</svg>
