<svg width="24" height="24" viewBox="0 0 24 24" fill="none" xmlns="http://www.w3.org/2000/svg">
<path d="M16.875 1.5C18.3668 1.5 19.7976 2.09263 20.8525 3.14752C21.9074 4.20242 22.5 5.63316 22.5 7.125V14.4075C22.5 15.1065 22.221 15.7755 21.726 16.2675L16.2285 21.7365C15.7366 22.2256 15.0711 22.5001 14.3775 22.5H7.125C5.63316 22.5 4.20242 21.9074 3.14752 20.8525C2.09263 19.7976 1.5 18.3668 1.5 16.875V7.125C1.5 5.63316 2.09263 4.20242 3.14752 3.14752C4.20242 2.09263 5.63316 1.5 7.125 1.5H16.875ZM16.875 3.75H7.125C6.22989 3.75 5.37145 4.10558 4.73851 4.73851C4.10558 5.37145 3.75 6.22989 3.75 7.125V16.875C3.75 17.7701 4.10558 18.6285 4.73851 19.2615C5.37145 19.8944 6.22989 20.25 7.125 20.25H11.9985L12 16.125C11.9999 15.0746 12.4006 14.0637 13.1203 13.2986C13.84 12.5334 14.8245 12.0717 15.873 12.0075L16.125 12H20.25V7.125C20.25 6.22989 19.8944 5.37145 19.2615 4.73851C18.6285 4.10558 17.7701 3.75 16.875 3.75ZM20.25 14.25H16.125C15.09 14.25 14.25 15.09 14.25 16.125L14.2485 20.25H14.3775C14.4765 20.2498 14.5714 20.2104 14.6415 20.1405L20.139 14.673C20.1741 14.6382 20.2019 14.5969 20.221 14.5513C20.24 14.5058 20.2499 14.4569 20.25 14.4075V14.25Z" fill="#D8D8D8"/>
</svg>
