<svg width="24" height="24" viewBox="0 0 24 24" fill="none" xmlns="http://www.w3.org/2000/svg">
<path d="M9 1.5V19.4999L15 22.4999V4.50287L9 1.5Z" fill="#D8D8D8"/>
<path d="M7.5 19.4999L7.49997 1.5L2.10377 4.56835C1.73264 4.76239 1.5 5.14653 1.5 5.56533V21.375C1.5 21.7803 1.71803 22.1543 2.07072 22.3539C2.42343 22.5537 2.85628 22.5482 3.20382 22.3397L7.5 19.4999Z" fill="#D8D8D8"/>
<path d="M22.0402 18.1574L16.5 22.5V4.503L20.7962 1.66032C21.1437 1.45179 21.5766 1.44633 21.9293 1.64602C22.2821 1.84572 22.5 2.2197 22.5 2.625V17.2502C22.5 17.6085 22.3293 17.9454 22.0402 18.1574Z" fill="#D8D8D8"/>
</svg>
