<svg width="40" height="40" viewBox="0 0 40 40" fill="none" xmlns="http://www.w3.org/2000/svg">
<path d="M26.0082 18C30.4266 18 34.0082 21.5817 34.0082 26C34.0082 30.4182 30.4266 34 26.0082 34C21.59 34 18.0083 30.4182 18.0083 26C18.0083 21.5817 21.59 18 26.0082 18ZM25.5 6C29.6422 6 33 9.35786 33 13.5V14.4912C33 15.3196 32.3284 15.9912 31.5 15.9912C30.6716 15.9912 30 15.3196 30 14.4912V13.5C30 11.0147 27.9852 9 25.5 9H13.5C11.0147 9 8.99999 11.0147 8.99999 13.5V25.941C8.99999 28.4262 11.0147 30.441 13.5 30.441H16.113C16.9414 30.441 17.613 31.1124 17.613 31.941C17.613 32.7694 16.9414 33.441 16.113 33.441H13.5C9.35787 33.441 6 30.083 6 25.941V13.5C6 9.35786 9.35787 6 13.5 6H25.5ZM26.0082 20.5098L25.8048 20.5235C25.1392 20.6138 24.6122 21.1406 24.522 21.8062L24.5082 22.0098V24.5018L22.0099 24.5L21.8063 24.5134C21.1407 24.603 20.6132 25.1294 20.5222 25.7948L20.5083 25.9984L20.5218 26.202C20.6114 26.8676 21.1377 27.395 21.8032 27.486L22.0067 27.5L24.5082 27.5018V30.0072L24.522 30.2108C24.6122 30.8764 25.1392 31.4032 25.8048 31.4936L26.0082 31.5072L26.2118 31.4936C26.8774 31.4032 27.4042 30.8764 27.4946 30.2108L27.5082 30.0072V27.5058L30.0066 27.5084L30.2102 27.495C30.876 27.4054 31.4034 26.879 31.4944 26.2136L31.5082 26.01L31.4948 25.8066C31.4052 25.1408 30.8788 24.6134 30.2134 24.5224L30.0098 24.5084L27.5082 24.5058V22.0098L27.4946 21.8062C27.4042 21.1406 26.8774 20.6138 26.2118 20.5235L26.0082 20.5098Z" fill="white"/>
</svg>
