<svg width="24" height="24" viewBox="0 0 24 24" fill="none" xmlns="http://www.w3.org/2000/svg">
<path d="M8.10353 3C6.38948 3 5 4.36784 5 6.05517V21.3605H9.41657C10.2736 21.3605 10.9683 20.6765 10.9683 19.8328V14.0511C9.50167 13.4583 8.4688 12.0383 8.4688 10.3809C8.4688 8.1906 10.2725 6.41504 12.4974 6.41504C14.181 6.41504 15.6234 7.43166 16.2256 8.87534H16.504C17.3611 8.87534 18.0557 8.19139 18.0557 7.34775V3H8.10353Z" fill="#D8D8D8"/>
<path d="M9.59375 10.5469C9.59375 12.1778 10.9159 13.5 12.5469 13.5C14.1778 13.5 15.5 12.1778 15.5 10.5469C15.5 8.91591 14.1778 7.59375 12.5469 7.59375C10.9159 7.59375 9.59375 8.91591 9.59375 10.5469Z" fill="#D8D8D8"/>
</svg>
