<svg width="24" height="24" viewBox="0 0 24 24" fill="none" xmlns="http://www.w3.org/2000/svg">
<path d="M12.87 1.5C13.2359 1.50261 13.5465 1.76883 13.605 2.13L13.98 4.35C14.0274 4.6167 14.2176 4.83573 14.475 4.92C14.7438 5.00805 15.0046 5.11843 15.255 5.25C15.4899 5.39316 15.7851 5.39316 16.02 5.25L17.85 3.945C18.1281 3.71337 18.5319 3.71337 18.81 3.945L20.04 5.175C20.2942 5.43459 20.3259 5.83908 20.115 6.135L18.81 7.965C18.6669 8.1999 18.6669 8.4951 18.81 8.73C18.9415 8.98033 19.0519 9.24124 19.14 9.51C19.2243 9.76743 19.4433 9.95763 19.71 10.005L21.93 10.38C22.2912 10.4385 22.5574 10.7491 22.56 11.115V12.87C22.5574 13.2359 22.2912 13.5465 21.93 13.605L19.71 13.98C19.4433 14.0274 19.2243 14.2176 19.14 14.475C19.0519 14.7438 18.9415 15.0046 18.81 15.255C18.6669 15.4899 18.6669 15.7851 18.81 16.02L20.115 17.85C20.3259 18.1459 20.2942 18.5503 20.04 18.81L18.81 20.04C18.5503 20.2942 18.1459 20.3259 17.85 20.115L16.02 18.81C15.7851 18.6669 15.4899 18.6669 15.255 18.81C15.0046 18.9415 14.7438 19.0519 14.475 19.14C14.2176 19.2243 14.0274 19.4433 13.98 19.71L13.605 21.93C13.5465 22.2912 13.2359 22.5574 12.87 22.56H11.13C10.7641 22.5574 10.4535 22.2912 10.395 21.93L10.02 19.65C9.97263 19.3833 9.78243 19.1643 9.525 19.08C9.25624 18.9919 8.99533 18.8815 8.745 18.75C8.5101 18.6069 8.2149 18.6069 7.98 18.75L6.15 20.055C5.85408 20.2659 5.44959 20.2342 5.19 19.98L3.96 18.75C3.72837 18.4719 3.72837 18.0681 3.96 17.79L5.265 15.96C5.40816 15.7251 5.40816 15.4299 5.265 15.195C5.13343 14.9447 5.02305 14.6838 4.935 14.415C4.85073 14.1576 4.6317 13.9674 4.365 13.92L2.13 13.605C1.76883 13.5465 1.50261 13.2359 1.5 12.87V11.13C1.50261 10.7641 1.76883 10.4535 2.13 10.395L4.35 10.02C4.6167 9.97263 4.83573 9.78243 4.92 9.525C5.00805 9.25624 5.11843 8.99533 5.25 8.745C5.39316 8.5101 5.39316 8.2149 5.25 7.98L3.885 6.15C3.65337 5.87191 3.65337 5.46808 3.885 5.19L5.115 3.96C5.39308 3.72837 5.79691 3.72837 6.075 3.96L7.905 5.265C8.1399 5.40816 8.4351 5.40816 8.67 5.265C8.92033 5.13343 9.18124 5.02305 9.45 4.935C9.70743 4.85073 9.89763 4.6317 9.945 4.365L10.395 2.13C10.4535 1.76883 10.7641 1.50261 11.13 1.5H12.87ZM12 9C10.3431 9 9 10.3431 9 12C9 13.6569 10.3431 15 12 15C13.6569 15 15 13.6569 15 12C15 10.3431 13.6569 9 12 9Z" fill="#D8D8D8"/>
</svg>
