<svg width="40" height="40" viewBox="0 0 40 40" fill="none" xmlns="http://www.w3.org/2000/svg">
<path fill-rule="evenodd" clip-rule="evenodd" d="M27.0254 7.92543C24.8802 6.64181 22.5403 6 19.9989 6C17.4597 6 15.1176 6.64181 12.9715 7.92543C10.8286 9.20795 9.1293 10.9489 7.878 13.1471C6.62456 15.3476 6 17.7472 6 20.3513C6 23.4776 6.89054 26.2887 8.67056 28.7865C10.4506 31.2801 12.7496 33.0131 15.5699 33.9691C15.8972 34.0317 16.1406 33.9881 16.2978 33.8383C16.4561 33.6875 16.5347 33.5029 16.5347 33.2793L16.5261 32.2673C16.5197 31.6323 16.5153 31.0787 16.5153 30.6047L16.0975 30.6785C15.8305 30.7289 15.4923 30.7501 15.0853 30.7433C14.6793 30.7377 14.2561 30.6941 13.8189 30.6125C13.385 30.5321 12.979 30.3465 12.6021 30.0535C12.2252 29.7605 11.9582 29.3769 11.7999 28.9041L11.6168 28.4725C11.4962 28.1861 11.3045 27.8687 11.0439 27.5219C10.7822 27.1709 10.5184 26.9339 10.2514 26.8097L10.1221 26.7169C10.0382 26.6543 9.96062 26.5805 9.88524 26.4933C9.8131 26.4061 9.75924 26.3189 9.72372 26.2317C9.6871 26.1421 9.71618 26.0717 9.8131 26.0159C9.91 25.9577 10.0866 25.9319 10.3407 25.9319L10.7069 25.9879C10.9481 26.0371 11.2496 26.1869 11.6082 26.4351C11.9668 26.6857 12.2618 27.0087 12.4912 27.4079C12.7712 27.9179 13.1082 28.3069 13.5034 28.5753C13.8986 28.8437 14.2971 28.9777 14.6987 28.9777C15.0971 28.9777 15.445 28.9443 15.7368 28.8839C16.0275 28.8213 16.3021 28.7273 16.5552 28.6043C16.6672 27.7679 16.9644 27.1261 17.449 26.6777C16.7576 26.6017 16.1352 26.4899 15.5828 26.3401C15.0293 26.1913 14.4586 25.9487 13.8706 25.6111C13.2784 25.2757 12.7906 24.8597 12.4018 24.3587C12.0142 23.8645 11.6943 23.2071 11.4467 22.402C11.199 21.5891 11.073 20.6577 11.073 19.5977C11.073 18.0916 11.5511 16.8079 12.5117 15.7479C12.0615 14.6141 12.1025 13.3439 12.6409 11.9351C12.9908 11.8233 13.5131 11.9071 14.2066 12.1867C14.899 12.4662 15.4051 12.7066 15.7271 12.9045C16.0501 13.1058 16.3086 13.2735 16.5024 13.4099C17.6299 13.0924 18.795 12.9325 19.9989 12.9325C21.2028 12.9325 22.368 13.0946 23.4987 13.4177L24.191 12.9682C24.6648 12.6697 25.2248 12.398 25.8688 12.1464C26.5148 11.8982 27.008 11.83 27.3484 11.9418C27.8944 13.3506 27.9438 14.6197 27.4938 15.7546C28.4522 16.8124 28.9324 18.096 28.9324 19.6033C28.9324 20.6611 28.8074 21.5992 28.5588 22.4154C28.311 23.2317 27.988 23.8891 27.5918 24.3801C27.1976 24.8719 26.7066 25.2857 26.1164 25.6233C25.5274 25.9589 24.9534 26.2015 24.4042 26.3501C23.8508 26.5001 23.2305 26.6119 22.5349 26.6857C23.167 27.2447 23.4825 28.1281 23.4825 29.3389V33.2827C23.4825 33.5063 23.5579 33.6919 23.7108 33.8417C23.8615 33.9905 24.1016 34.0351 24.4302 33.9725C27.2514 33.0109 29.5494 31.2845 31.3294 28.7843C33.1094 26.2909 34 23.4765 34 20.3513C34 17.7483 33.3732 15.3476 32.122 13.1483C30.8696 10.95 29.1714 9.20907 27.0286 7.92655L27.0254 7.92543Z" fill="white"/>
</svg>
