<svg width="40" height="40" viewBox="0 0 40 40" fill="none" xmlns="http://www.w3.org/2000/svg">
<path d="M33.5361 17.0843L33.4961 16.9803L29.6841 6.65231C29.611 6.4523 29.4754 6.28113 29.2975 6.16412C29.1196 6.04711 28.9087 5.99047 28.6961 6.00258C28.4834 6.01469 28.2804 6.09491 28.1168 6.23137C27.9533 6.36783 27.8381 6.55328 27.7881 6.76031L25.2141 14.9343H14.7941L12.2201 6.76031C12.1814 6.60715 12.1069 6.46534 12.0028 6.3465C11.8987 6.22767 11.7679 6.13519 11.6212 6.07665C11.4745 6.01811 11.3159 5.99517 11.1586 6.00971C11.0013 6.02426 10.8497 6.07586 10.7161 6.16031C10.5375 6.27952 10.4004 6.45151 10.3241 6.65231L6.50415 16.9763L6.46815 17.0803C5.91902 18.5733 5.85118 20.2008 6.27415 21.7343C6.68837 23.253 7.57861 24.5989 8.81415 25.5743L8.82815 25.5843L8.86415 25.6103L14.6681 30.1243L17.5401 32.3803L19.2901 33.7523C19.493 33.9123 19.7438 33.9992 20.0021 33.9992C20.2605 33.9992 20.5113 33.9123 20.7141 33.7523L22.4641 32.3803L25.3361 30.1223L31.1761 25.5823L31.1901 25.5683C32.4233 24.5931 33.312 23.2489 33.7261 21.7323C34.149 20.2011 34.0825 18.5759 33.5361 17.0843Z" fill="white"/>
</svg>
