<svg width="24" height="24" viewBox="0 0 24 24" fill="none" xmlns="http://www.w3.org/2000/svg">
<path d="M18.5154 12.8C18.5154 15.9559 15.9571 18.5142 12.8012 18.5142L12.8008 7.08569C15.9567 7.08569 18.5154 9.64406 18.5154 12.8Z" fill="#D8D8D8"/>
<path fill-rule="evenodd" clip-rule="evenodd" d="M12.8016 21.6C17.6617 21.6 21.6016 17.6601 21.6016 12.8C21.6016 7.93986 17.6617 3.99998 12.8016 3.99998C7.94145 3.99998 4.00156 7.93986 4.00156 12.8C4.00156 17.6601 7.94145 21.6 12.8016 21.6ZM12.8016 24C18.9872 24 24.0016 18.9856 24.0016 12.8C24.0016 6.61439 18.9872 1.59998 12.8016 1.59998C6.61598 1.59998 1.60156 6.61439 1.60156 12.8C1.60156 18.9856 6.61598 24 12.8016 24Z" fill="#D8D8D8"/>
</svg>
