<svg width="24" height="24" viewBox="0 0 24 24" fill="none" xmlns="http://www.w3.org/2000/svg">
<path d="M15.8871 1.5C17.9976 1.5 19.8246 2.96684 20.2808 5.02753L22.3228 14.2535C22.4406 14.7857 22.5 15.3293 22.5 15.8743V18.7771C22.5 20.8332 20.8332 22.5 18.7771 22.5H5.2229C3.1668 22.5 1.5 20.8332 1.5 18.7771V15.8743C1.5 15.3293 1.55943 14.7857 1.67722 14.2535L3.71923 5.02753C4.17534 2.96684 6.00234 1.5 8.1129 1.5H15.8871ZM15.8871 3.75H8.1129C7.05762 3.75 6.14412 4.48341 5.91608 5.51376L3.87405 14.7397L3.822 15.015L7.51542 15.0162C8.33777 15.0162 9.0044 15.6828 9.0044 16.5051C9.0044 17.3275 9.67103 17.9942 10.4934 17.9942H13.5892C14.4115 17.9942 15.0781 17.3275 15.0781 16.5051C15.0781 15.6828 15.7448 15.0162 16.5672 15.0162L20.1792 15.0153C20.1639 14.923 20.1462 14.8311 20.1259 14.7397L18.084 5.51376C17.8559 4.48341 16.9424 3.75 15.8871 3.75Z" fill="#D8D8D8"/>
</svg>
