<svg width="24" height="24" viewBox="0 0 24 24" fill="none" xmlns="http://www.w3.org/2000/svg">
<path d="M18.9372 13.1285C18.9372 13.2926 18.8727 13.45 18.7579 13.566C18.6432 13.682 18.4874 13.7472 18.325 13.7472C18.1627 13.7472 18.007 13.682 17.8922 13.566C17.7773 13.45 17.7129 13.2926 17.7129 13.1285V7.60159C17.7129 7.43752 17.7773 7.28015 17.8922 7.16413C18.007 7.04812 18.1627 6.98293 18.325 6.98293C18.4874 6.98293 18.6432 7.04812 18.7579 7.16413C18.8727 7.28015 18.9372 7.43752 18.9372 7.60159V13.1285ZM18.7247 16.9581C18.6437 17.0398 16.3671 18.9571 12.193 18.9571C8.01897 18.9571 5.75741 17.0501 5.66127 16.9683C5.60069 16.9167 5.5508 16.8535 5.51444 16.7824C5.47808 16.7112 5.45598 16.6334 5.4494 16.5536C5.4428 16.4738 5.45189 16.3936 5.47609 16.3173C5.5003 16.2411 5.53915 16.1703 5.59044 16.1093C5.6961 15.9858 5.84582 15.9094 6.00694 15.897C6.16807 15.8846 6.32752 15.937 6.45056 16.0429C6.48596 16.0684 8.51985 17.7352 12.1879 17.7352C15.8561 17.7352 17.9051 16.0582 17.9253 16.0429C18.0498 15.9379 18.2097 15.8862 18.3713 15.8986C18.5328 15.911 18.6832 15.9866 18.7905 16.1093C18.8937 16.231 18.9453 16.3889 18.9339 16.5489C18.9225 16.7087 18.8492 16.8576 18.7298 16.9632L18.7247 16.9581ZM5.44371 7.60159C5.45288 7.43698 5.52612 7.28275 5.64747 7.17259C5.76882 7.0624 5.9284 7.00526 6.09131 7.01362C6.24235 7.02227 6.38488 7.08717 6.49139 7.19574C6.59789 7.30432 6.66084 7.44888 6.66809 7.60159V13.1183C6.66809 13.2824 6.6036 13.4397 6.48881 13.5558C6.37397 13.6718 6.21828 13.737 6.05591 13.737C5.89355 13.737 5.73783 13.6718 5.62302 13.5558C5.50823 13.4397 5.44371 13.2824 5.44371 13.1183V7.60159ZM8.51481 6.37453C8.52394 6.20992 8.5972 6.05568 8.71855 5.94549C8.8399 5.83532 8.99947 5.77819 9.16239 5.78654C9.31345 5.79521 9.45595 5.86009 9.56247 5.96865C9.66897 6.07722 9.73192 6.2218 9.73917 6.37453V14.555C9.73917 14.7191 9.67468 14.8764 9.55988 14.9924C9.44505 15.1085 9.28936 15.1737 9.12699 15.1737C8.96462 15.1737 8.8089 15.1085 8.6941 14.9924C8.57929 14.8764 8.51481 14.7191 8.51481 14.555V6.37453ZM11.601 6.06776C11.601 5.90367 11.6656 5.74632 11.7804 5.63029C11.8952 5.51427 12.0509 5.4491 12.2132 5.4491C12.3756 5.4491 12.5313 5.51427 12.6461 5.63029C12.7609 5.74632 12.8254 5.90367 12.8254 6.06776V14.9641C12.8254 15.1282 12.7609 15.2855 12.6461 15.4015C12.5313 15.5176 12.3756 15.5827 12.2132 15.5827C12.0509 15.5827 11.8952 15.5176 11.7804 15.4015C11.6656 15.2855 11.601 15.1282 11.601 14.9641V6.06776ZM14.6368 6.37453C14.6368 6.21045 14.7012 6.05308 14.8161 5.93706C14.9308 5.82103 15.0866 5.75586 15.2489 5.75586C15.4113 5.75586 15.5669 5.82103 15.6818 5.93706C15.7966 6.05308 15.8611 6.21045 15.8611 6.37453V14.555C15.8611 14.7191 15.7966 14.8764 15.6818 14.9924C15.5669 15.1085 15.4113 15.1737 15.2489 15.1737C15.0866 15.1737 14.9308 15.1085 14.8161 14.9924C14.7012 14.8764 14.6368 14.7191 14.6368 14.555V6.37453ZM19.1041 3.00005H5.30207C5.00133 2.99803 4.70313 3.05598 4.42457 3.17057C4.14605 3.28518 3.8926 3.45415 3.67876 3.66787C3.46492 3.8816 3.2949 4.13582 3.17843 4.41602C3.06197 4.69622 3.00133 4.99691 3 5.30083V19.1055C3.00133 19.4093 3.06197 19.71 3.17843 19.9903C3.2949 20.2704 3.46492 20.5246 3.67876 20.7384C3.8926 20.9521 4.14605 21.1211 4.42457 21.2357C4.70313 21.3503 5.00133 21.4083 5.30207 21.4062H19.1041C19.4046 21.4083 19.7023 21.3504 19.9805 21.2362C20.2587 21.122 20.5119 20.9533 20.7257 20.7402C20.9395 20.527 21.1096 20.2734 21.2263 19.9937C21.3432 19.7142 21.4042 19.414 21.4062 19.1106V5.30083C21.4049 4.99734 21.3445 4.69709 21.2283 4.41721C21.1121 4.13736 20.9426 3.88334 20.7292 3.66969C20.516 3.45605 20.2631 3.28695 19.9851 3.17206C19.7072 3.05714 19.4096 2.99871 19.1092 3.00005" fill="#D8D8D8"/>
</svg>
