<svg width="244" height="529" viewBox="0 0 244 529" fill="none" xmlns="http://www.w3.org/2000/svg">
<path d="M882.438 30C882.438 13.4315 869.006 0 852.438 0L30 4.31573e-05C13.4314 4.8765e-05 0 13.4315 0 30.0001V61.2238C0 77.7923 13.4314 91.2238 30 91.2238H127.513C144.082 91.2238 157.513 104.655 157.513 121.224V201.301C157.513 217.087 144.716 229.884 128.93 229.884C113.143 229.884 100.346 242.681 100.346 258.468V498.49C100.346 515.058 113.777 528.49 130.346 528.49H852.437C869.006 528.49 882.437 515.058 882.437 498.49L882.438 30Z" fill="#283046"/>
</svg>
