<svg width="24" height="24" viewBox="0 0 24 24" fill="none" xmlns="http://www.w3.org/2000/svg">
<path fill-rule="evenodd" clip-rule="evenodd" d="M1.5 3C1.5 2.17158 2.17158 1.5 3 1.5H21C21.8284 1.5 22.5 2.17158 22.5 3V15C22.5 15.8285 21.8284 16.5 21 16.5H3C2.17158 16.5 1.5 15.8285 1.5 15V3ZM16.4484 4.5C15.9138 4.5 15.6462 5.14629 16.024 5.52426L16.4544 5.95452L13.6243 8.7846C13.4923 8.91655 13.2834 8.93141 13.1341 8.81943L12.1312 8.06726C11.1519 7.33281 9.79506 7.37268 8.86061 8.16336L4.89819 11.5162C4.42388 11.9175 4.36473 12.6274 4.76606 13.1017C5.1674 13.576 5.87724 13.6352 6.35156 13.2338L10.314 9.88098C10.4475 9.76803 10.6413 9.76233 10.7812 9.86725L11.7841 10.6194C12.8292 11.4032 14.2916 11.2993 15.2153 10.3756L18.0453 7.54551L18.4756 7.97574C18.8535 8.35371 19.4998 8.08602 19.4998 7.55147V5.1C19.4998 4.76864 19.2312 4.5 18.8999 4.5H16.4484Z" fill="#D8D8D8"/>
<path d="M10.5 18V20.3781C9.6261 20.6869 9 21.5203 9 22.5H15C15 21.5203 14.3739 20.6869 13.5 20.3781V18H10.5Z" fill="#D8D8D8"/>
</svg>
