<svg width="24" height="24" viewBox="0 0 24 24" fill="none" xmlns="http://www.w3.org/2000/svg">
<path d="M6 3.75C6 3.55109 6.07902 3.36032 6.21967 3.21967C6.36032 3.07902 6.55109 3 6.75 3H9.75V6.75H6.75C6.55109 6.75 6.36032 6.67098 6.21967 6.53033C6.07902 6.38968 6 6.19891 6 6V3.75ZM9.75 9.75H2.25C2.05109 9.75 1.86032 9.82902 1.71967 9.96967C1.57902 10.1103 1.5 10.3011 1.5 10.5V12.75C1.5 12.9489 1.57902 13.1397 1.71967 13.2803C1.86032 13.421 2.05109 13.5 2.25 13.5H9.75V9.75ZM14.25 13.5V9.75H17.25C17.4489 9.75 17.6397 9.82902 17.7803 9.96967C17.921 10.1103 18 10.3011 18 10.5V12.75C18 12.9489 17.921 13.1397 17.7803 13.2803C17.6397 13.421 17.4489 13.5 17.25 13.5H14.25ZM9.75 17.25H5.25C5.05109 17.25 4.86032 17.329 4.71967 17.4697C4.57902 17.6103 4.5 17.8011 4.5 18V20.25C4.5 20.4489 4.57902 20.6397 4.71967 20.7803C4.86032 20.921 5.05109 21 5.25 21H9.75V17.25ZM14.25 21H21.75C21.9489 21 22.1397 20.921 22.2803 20.7803C22.421 20.6397 22.5 20.4489 22.5 20.25V18C22.5 17.8011 22.421 17.6103 22.2803 17.4697C22.1397 17.329 21.9489 17.25 21.75 17.25H14.25V21ZM14.25 6.75V3H18.75C18.9489 3 19.1397 3.07902 19.2803 3.21967C19.421 3.36032 19.5 3.55109 19.5 3.75V6C19.5 6.19891 19.421 6.38968 19.2803 6.53033C19.1397 6.67098 18.9489 6.75 18.75 6.75H14.25ZM12 1.875C12.2984 1.875 12.5845 1.99353 12.7955 2.2045C13.0065 2.41548 13.125 2.70163 13.125 3V21C13.125 21.2984 13.0065 21.5845 12.7955 21.7955C12.5845 22.0065 12.2984 22.125 12 22.125C11.7016 22.125 11.4155 22.0065 11.2045 21.7955C10.9935 21.5845 10.875 21.2984 10.875 21V3C10.875 2.70163 10.9935 2.41548 11.2045 2.2045C11.4155 1.99353 11.7016 1.875 12 1.875Z" fill="#D8D8D8"/>
</svg>
