<svg width="40" height="40" viewBox="0 0 40 40" fill="none" xmlns="http://www.w3.org/2000/svg">
<path d="M24 15.5C24 17.9853 22.2092 20 20 20C17.7909 20 16 17.9853 16 15.5C16 13.0147 17.7909 11 20 11C22.2092 11 24 13.0147 24 15.5Z" fill="white"/>
<path d="M11 27.8279C11 25.8121 12.0882 23.9839 13.8148 23.3653C15.6598 22.7043 18.077 22 20 22C21.923 22 24.3402 22.7043 26.1853 23.3653C27.9119 23.9839 29 25.8121 29 27.8279V29.5C29 30.8807 27.9928 32 26.7501 32H13.25C12.0074 32 11 30.8807 11 29.5V27.8279Z" fill="white"/>
<path fill-rule="evenodd" clip-rule="evenodd" d="M13.5034 14.0088C13.4276 14.4377 13.3879 14.8805 13.3879 15.3333C13.3879 16.3979 13.6073 17.4069 14 18.3103C13.4335 19.3231 12.4061 20 11.2327 20C9.44734 20 8 18.433 8 16.5C8 14.567 9.44734 13 11.2327 13C12.1177 13 12.9197 13.385 13.5034 14.0088Z" fill="white"/>
<path d="M8.44853 30V28.2164C8.44853 25.7987 9.37215 23.4583 11 22.0093C10.8891 22.0032 10.7799 22 10.6728 22C9.24707 22 7.45488 22.5635 6.08695 23.0922C4.80677 23.5871 4 25.0497 4 26.6623V27.9999C4 29.1046 4.74688 30 5.6682 30H8.44853Z" fill="white"/>
<path fill-rule="evenodd" clip-rule="evenodd" d="M26.4964 14.0088C26.5723 14.4377 26.6121 14.8805 26.6121 15.3333C26.6121 16.3979 26.3926 17.4069 26 18.3103C26.5665 19.3231 27.5939 20 28.7674 20C30.5526 20 32 18.433 32 16.5C32 14.567 30.5526 13 28.7674 13C27.8823 13 27.0803 13.385 26.4964 14.0088Z" fill="white"/>
<path d="M31.5514 30V28.2164C31.5514 25.7987 30.6278 23.4583 29 22.0093C29.1108 22.0032 29.2201 22 29.3273 22C30.7529 22 32.5451 22.5635 33.913 23.0922C35.1933 23.5871 36 25.0497 36 26.6623V27.9999C36 29.1046 35.2531 30 34.3319 30H31.5514Z" fill="white"/>
</svg>
