<svg width="10" height="10" viewBox="0 0 16 16" fill="none" xmlns="http://www.w3.org/2000/svg">
<path d="M10.2863 5.44444C10.2863 6.79447 9.26292 7.88889 8.00055 7.88889C6.73819 7.88889 5.71484 6.79447 5.71484 5.44444C5.71484 4.09441 6.73819 3 8.00055 3C9.26292 3 10.2863 4.09441 10.2863 5.44444Z" fill="#D8D8D8"/>
<path d="M3.42773 11.9603C3.42773 10.9748 3.98044 10.081 4.85747 9.77857C5.79462 9.45542 7.02241 9.11108 7.99916 9.11108C8.97591 9.11108 10.2037 9.45542 11.1409 9.77856C12.0179 10.081 12.5706 10.9748 12.5706 11.9603V12.7778C12.5706 13.4528 12.059 14 11.4278 14H4.57059C3.93941 14 3.42773 13.4528 3.42773 12.7778V11.9603Z" fill="#D8D8D8"/>
<path fill-rule="evenodd" clip-rule="evenodd" d="M4.63327 4.75067C4.59304 4.97532 4.57198 5.20726 4.57198 5.44445C4.57198 6.00207 4.68837 6.53061 4.89659 7.00382C4.5962 7.53434 4.05138 7.8889 3.42912 7.8889C2.48235 7.8889 1.71484 7.06809 1.71484 6.05557C1.71484 5.04304 2.48235 4.22223 3.42912 4.22223C3.89843 4.22223 4.3237 4.42392 4.63327 4.75067Z" fill="#D8D8D8"/>
<path d="M2.28571 12.7778V11.9603C2.28571 10.8522 2.76028 9.77949 3.59669 9.11534C3.5397 9.11254 3.48361 9.11108 3.42857 9.11108C2.69601 9.11108 1.77516 9.36934 1.0723 9.61169C0.414531 9.8385 0 10.5089 0 11.248V11.8611C0 12.3674 0.383756 12.7778 0.857143 12.7778H2.28571Z" fill="#D8D8D8"/>
<path fill-rule="evenodd" clip-rule="evenodd" d="M11.3724 4.75067C11.4126 4.97532 11.4337 5.20726 11.4337 5.44445C11.4337 6.00207 11.3174 6.53061 11.1094 7.00382C11.4095 7.53434 11.9538 7.8889 12.5755 7.8889C13.5213 7.8889 14.2881 7.06809 14.2881 6.05557C14.2881 5.04304 13.5213 4.22223 12.5755 4.22223C12.1066 4.22223 11.6817 4.42392 11.3724 4.75067Z" fill="#D8D8D8"/>
<path d="M13.716 12.7778V11.9603C13.716 10.8522 13.2419 9.77949 12.4062 9.11534C12.4631 9.11254 12.5193 9.11108 12.5743 9.11108C13.3061 9.11108 14.2261 9.36934 14.9283 9.61169C15.5855 9.8385 15.9995 10.5089 15.9995 11.248V11.8611C15.9995 12.3674 15.6161 12.7778 15.1432 12.7778H13.716Z" fill="#D8D8D8"/>
</svg>
