<svg viewBox="0 0 24 18" fill="none" xmlns="http://www.w3.org/2000/svg">
<g clip-path="url(#clip0_344_716)">
<path d="M0 5.11499H24C24 11.745 18.63 17.115 12 17.115C5.37 17.115 0 11.745 0 5.11499Z" fill="url(#paint0_linear_344_716)"/>
<path d="M24 5.115C24 6.773 22.883 8.603 19.942 8.603C17.378 8.603 14.49 6.825 12 5.115C14.64 3.293 17.543 0.892996 19.942 0.892996C22.395 0.884996 24 3.128 24 5.115Z" fill="url(#paint1_linear_344_716)"/>
<path d="M0 5.11501C0 6.77201 1.117 8.60201 4.058 8.60201C6.622 8.60201 9.51 6.82501 12 5.11501C9.36 3.29201 6.457 0.88501 4.058 0.88501C1.605 0.88501 0 3.12701 0 5.11501Z" fill="url(#paint2_linear_344_716)"/>
</g>
<defs>
<linearGradient id="paint0_linear_344_716" x1="12" y1="7.02799" x2="12" y2="16.621" gradientUnits="userSpaceOnUse">
<stop stop-color="#00D924"/>
<stop offset="1" stop-color="#00CB1B"/>
</linearGradient>
<linearGradient id="paint1_linear_344_716" x1="18" y1="1.028" x2="18" y2="9.567" gradientUnits="userSpaceOnUse">
<stop offset="0.156" stop-color="#009C00"/>
<stop offset="1" stop-color="#00BE20"/>
</linearGradient>
<linearGradient id="paint2_linear_344_716" x1="6" y1="9.93801" x2="6" y2="0.65701" gradientUnits="userSpaceOnUse">
<stop stop-color="#FFE37D"/>
<stop offset="1" stop-color="#FFC900"/>
</linearGradient>
<clipPath id="clip0_344_716">
<rect width="24" height="18" fill="white"/>
</clipPath>
</defs>
</svg>
