<svg width="40" height="40" viewBox="0 0 40 40" fill="none" xmlns="http://www.w3.org/2000/svg">
<path fill-rule="evenodd" clip-rule="evenodd" d="M22.1667 7.14286C22.1667 7.93601 21.731 8.62852 21.0833 8.99904V10.3571C21.0833 10.9489 21.5684 11.4286 22.1667 11.4286H23.25C26.2786 11.4286 27.7929 11.4286 28.9876 11.9179C30.5801 12.5704 31.8456 13.8219 32.5051 15.397C33 16.5784 33 18.0761 33 21.0714C33 24.0668 33 25.5644 32.5051 26.7459C31.8456 28.3209 30.5801 29.5726 28.9876 30.2249C28.0459 30.6106 26.9056 30.6924 24.9816 30.7096C24.6235 30.7128 24.3333 30.9999 24.3333 31.3541V32.2143C24.3333 32.5694 24.6243 32.8571 24.9833 32.8571H25.4167C26.0149 32.8571 26.5 33.3369 26.5 33.9286V34.5714C26.5 34.8082 26.3061 35 26.0667 35H13.9333C13.694 35 13.5 34.8082 13.5 34.5714V33.9286C13.5 33.3369 13.985 32.8571 14.5833 32.8571H15.0167C15.3757 32.8571 15.6667 32.5694 15.6667 32.2143V31.3541C15.6667 30.9999 15.3766 30.7128 15.0184 30.7096C13.0944 30.6924 11.9541 30.6106 11.0126 30.2249C9.41988 29.5726 8.15449 28.3209 7.49478 26.7459C7 25.5644 7 24.0668 7 21.0714C7 18.0761 7 16.5784 7.49478 15.397C8.15449 13.8219 9.41988 12.5704 11.0126 11.9179C12.2071 11.4286 13.7214 11.4286 16.75 11.4286H17.8333C18.4316 11.4286 18.9167 10.9489 18.9167 10.3571V8.99904C18.2691 8.62852 17.8333 7.93601 17.8333 7.14286C17.8333 5.9594 18.8034 5 20 5C21.1966 5 22.1667 5.9594 22.1667 7.14286ZM13.5 20C14.6966 20 15.6667 19.0406 15.6667 17.8571C15.6667 16.6737 14.6966 15.7143 13.5 15.7143C12.3034 15.7143 11.3333 16.6737 11.3333 17.8571C11.3333 19.0406 12.3034 20 13.5 20ZM28.6667 17.8571C28.6667 19.0406 27.6967 20 26.5 20C25.3034 20 24.3333 19.0406 24.3333 17.8571C24.3333 16.6737 25.3034 15.7143 26.5 15.7143C27.6967 15.7143 28.6667 16.6737 28.6667 17.8571ZM16.5333 22.1429C16.0547 22.1429 15.6667 22.5266 15.6667 23V24.5C15.6667 24.9734 16.0547 25.3571 16.5333 25.3571H23.4667C23.9453 25.3571 24.3333 24.9734 24.3333 24.5V23C24.3333 22.5266 23.9453 22.1429 23.4667 22.1429H16.5333Z" fill="white"/>
</svg>
