<svg width="24" height="24" viewBox="0 0 24 24" fill="none" xmlns="http://www.w3.org/2000/svg">
<path fill-rule="evenodd" clip-rule="evenodd" d="M22.4112 13.3714L19.4364 12.9834C19.4782 12.6629 19.5 12.3347 19.5 12C19.5 11.6653 19.4782 11.3371 19.4364 11.0166L22.4112 10.6286C22.4698 11.0774 22.5 11.5352 22.5 12C22.5 12.4648 22.4698 12.9226 22.4112 13.3714ZM21.7032 7.98073C21.3492 7.1271 20.8858 6.33029 20.3307 5.60776L17.952 7.43574C18.3492 7.95278 18.68 8.52178 18.9321 9.12988L21.7032 7.98073ZM18.3923 3.6693L16.5642 6.04806C16.0471 5.65074 15.4782 5.32009 14.8701 5.06793L16.0192 2.29674C16.8729 2.65073 17.6697 3.11407 18.3923 3.6693ZM13.3714 1.58876L12.9834 4.56356C12.6629 4.52174 12.3347 4.5 12 4.5C11.6653 4.5 11.3371 4.52174 11.0166 4.56356L10.6286 1.58876C11.0774 1.5302 11.5352 1.5 12 1.5C12.4648 1.5 12.9226 1.5302 13.3714 1.58876ZM7.98073 2.29674L9.12988 5.06793C8.52178 5.32009 7.95278 5.65074 7.43574 6.04806L5.60776 3.6693C6.33029 3.11407 7.1271 2.65073 7.98073 2.29674ZM3.6693 5.60776L6.04806 7.43574C5.65074 7.95278 5.32009 8.52178 5.06793 9.12988L2.29674 7.98073C2.65073 7.1271 3.11407 6.33029 3.6693 5.60776ZM1.58876 10.6286C1.5302 11.0774 1.5 11.5352 1.5 12C1.5 12.4648 1.5302 12.9226 1.58876 13.3714L4.56356 12.9834C4.52174 12.6629 4.5 12.3347 4.5 12C4.5 11.6653 4.52174 11.3371 4.56356 11.0166L1.58876 10.6286ZM2.29674 16.0192L5.06793 14.8701C5.32009 15.4782 5.65074 16.0471 6.04806 16.5642L3.6693 18.3923C3.11407 17.6697 2.65073 16.8729 2.29674 16.0192ZM5.60776 20.3307L7.43574 17.952C7.95278 18.3492 8.52178 18.68 9.12988 18.9321L7.98073 21.7032C7.1271 21.3492 6.33029 20.8858 5.60776 20.3307ZM10.6286 22.4112L11.0166 19.4364C11.3371 19.4782 11.6653 19.5 12 19.5C12.3347 19.5 12.6629 19.4782 12.9834 19.4364L13.3714 22.4112C12.9226 22.4698 12.4648 22.5 12 22.5C11.5352 22.5 11.0774 22.4698 10.6286 22.4112ZM16.0192 21.7032L14.8701 18.9321C15.4782 18.68 16.0471 18.3492 16.5642 17.952L18.3923 20.3307C17.6697 20.8858 16.8729 21.3492 16.0192 21.7032ZM20.3307 18.3923L17.952 16.5642C18.3492 16.0471 18.68 15.4782 18.9321 14.8701L21.7032 16.0192C21.3492 16.8729 20.886 17.6697 20.3307 18.3923Z" fill="#D8D8D8"/>
</svg>
