<svg width="24" height="24" viewBox="0 0 24 24" fill="none" xmlns="http://www.w3.org/2000/svg">
<path d="M13.6016 3.92383C13.091 3.04008 11.9606 2.73758 11.0769 3.2482C10.7966 3.41039 10.5635 3.6432 10.4016 3.92383C10.226 4.22789 9.34783 5.74883 7.76721 8.48664C8.17033 8.71789 8.39439 8.84664 8.43939 8.87227C12.191 11.0423 14.605 14.9485 14.8675 19.2748C14.6825 19.2748 13.2031 19.2748 13.0181 19.2748C12.7581 15.6057 10.6935 12.3051 7.50783 10.4663C7.46314 10.4407 7.23908 10.3126 6.83596 10.082L4.38189 14.3491C4.78502 14.5804 5.00908 14.7091 5.05377 14.7348C6.70408 15.7041 7.81689 17.3779 8.07252 19.2748C7.65002 19.2748 4.27064 19.2748 3.84814 19.2748C3.67971 19.2776 3.54096 19.1432 3.53814 18.9748C3.53721 18.9191 3.55158 18.8645 3.57939 18.8163C3.69721 18.6126 4.63908 16.9813 4.75689 16.7776C4.35908 16.4423 3.90377 16.1823 3.41283 16.0101C3.29627 16.2135 2.36408 17.8416 2.24752 18.0451C1.73752 18.9291 2.04096 20.0591 2.92502 20.5691C3.20564 20.731 3.52408 20.8163 3.84814 20.8163C4.23564 20.8163 6.17346 20.8163 9.66096 20.8163C9.66096 20.3541 9.66096 20.0976 9.66096 20.046C9.66158 17.5757 8.47439 15.2557 6.47033 13.8113C6.56283 13.6513 7.30252 12.3695 7.39502 12.2095C9.96502 13.9882 11.4994 16.9138 11.5022 20.0395C11.5022 20.091 11.5022 20.3479 11.5022 20.811H16.4278C16.4278 20.3488 16.4278 20.0923 16.4278 20.0407C16.4235 15.1573 13.9547 10.6054 9.86377 7.9382C10.051 7.61383 11.5466 5.01945 11.7335 4.69508C11.8178 4.54914 12.0044 4.49945 12.1503 4.58383C12.1966 4.61039 12.2347 4.64883 12.2616 4.69508C13.0769 6.10727 19.5991 17.4041 20.4141 18.8163C20.4988 18.962 20.4494 19.1488 20.3038 19.2335C20.2556 19.2613 20.201 19.2757 20.1453 19.2748C19.9547 19.2748 18.4291 19.2748 18.2381 19.2748C18.2625 19.7895 18.265 20.3041 18.2381 20.8176C18.4297 20.8176 19.9606 20.8176 20.1522 20.8176C21.1728 20.8176 22 19.9901 22 18.9695C22 18.6454 21.9147 18.327 21.7528 18.0463C20.1225 15.2216 15.2319 6.7482 13.6016 3.92383Z" fill="#D8D8D8"/>
</svg>
