<svg width="24" height="24" viewBox="0 0 24 24" fill="none" xmlns="http://www.w3.org/2000/svg">
<path d="M9.30074 2C9.03899 2.00024 8.77985 2.05205 8.53812 2.15245C8.29639 2.25285 8.07681 2.39989 7.89192 2.58517C7.70702 2.77044 7.56043 2.99033 7.46052 3.23226C7.36061 3.47419 7.30934 3.73343 7.30963 3.99518C7.30939 4.25691 7.3607 4.51611 7.46062 4.758C7.56056 4.99989 7.70716 5.21973 7.89205 5.40497C8.07694 5.5902 8.29651 5.73721 8.53821 5.83758C8.77992 5.93797 9.03902 5.98976 9.30074 5.99H11.2918V3.99518C11.2922 3.73343 11.2408 3.47419 11.141 3.23226C11.0411 2.99033 10.8945 2.77044 10.7096 2.58517C10.5247 2.39989 10.3051 2.25285 10.0634 2.15245C9.82163 2.05205 9.56249 2.00024 9.30074 2ZM9.30074 7.32037H3.99111C3.72939 7.32062 3.47028 7.3724 3.22858 7.47278C2.98687 7.57317 2.76731 7.72017 2.58242 7.9054C2.39752 8.09064 2.25093 8.31048 2.151 8.55237C2.05107 8.79426 1.99976 9.05347 2 9.31518C1.99971 9.57693 2.05098 9.83618 2.15089 10.0781C2.2508 10.32 2.39739 10.5399 2.58229 10.7252C2.76718 10.9105 2.98677 11.0575 3.22849 11.1579C3.47022 11.2583 3.72936 11.3102 3.99111 11.3103H9.30074C9.56249 11.3102 9.82163 11.2583 10.0634 11.1579C10.3051 11.0575 10.5247 10.9105 10.7096 10.7252C10.8945 10.5399 11.0411 10.32 11.141 10.0781C11.2408 9.83618 11.2922 9.57693 11.2918 9.31518C11.2921 9.05347 11.2407 8.79426 11.1408 8.55237C11.0409 8.31048 10.8943 8.09064 10.7094 7.9054C10.5246 7.72017 10.305 7.57317 10.0633 7.47278C9.82157 7.3724 9.56246 7.32062 9.30074 7.32037Z" fill="#D8D8D8"/>
<path d="M21.9129 9.31518C21.9132 9.05347 21.8618 8.79426 21.7619 8.55237C21.662 8.31048 21.5154 8.09064 21.3305 7.9054C21.1456 7.72017 20.926 7.57317 20.6843 7.47278C20.4426 7.3724 20.1835 7.32062 19.9218 7.32037C19.6601 7.32062 19.401 7.3724 19.1593 7.47278C18.9176 7.57317 18.698 7.72017 18.5131 7.9054C18.3282 8.09064 18.1816 8.31048 18.0817 8.55237C17.9818 8.79426 17.9304 9.05347 17.9307 9.31518V11.3103H19.9218C20.1836 11.3102 20.4427 11.2583 20.6844 11.1579C20.9262 11.0575 21.1458 10.9105 21.3306 10.7252C21.5155 10.5399 21.6621 10.32 21.762 10.0781C21.8619 9.83618 21.9132 9.57693 21.9129 9.31518ZM16.6033 9.31518V3.99518C16.6036 3.73343 16.5523 3.47419 16.4524 3.23226C16.3525 2.99033 16.2059 2.77044 16.021 2.58517C15.8361 2.39989 15.6165 2.25285 15.3748 2.15245C15.1331 2.05205 14.8739 2.00024 14.6122 2C14.3504 2.00024 14.0913 2.05205 13.8496 2.15245C13.6078 2.25285 13.3883 2.39989 13.2033 2.58517C13.0184 2.77044 12.8718 2.99033 12.7719 3.23226C12.672 3.47419 12.6208 3.73343 12.6211 3.99518V9.31518C12.6208 9.57693 12.672 9.83618 12.7719 10.0781C12.8718 10.32 13.0184 10.5399 13.2033 10.7252C13.3883 10.9105 13.6078 11.0575 13.8496 11.1579C14.0913 11.2583 14.3504 11.3102 14.6122 11.3103C14.8739 11.3102 15.1331 11.2583 15.3748 11.1579C15.6165 11.0575 15.8361 10.9105 16.021 10.7252C16.2059 10.5399 16.3525 10.32 16.4524 10.0781C16.5523 9.83618 16.6036 9.57693 16.6033 9.31518Z" fill="#D8D8D8"/>
<path d="M14.6122 21.951C14.8739 21.9507 15.1331 21.8989 15.3748 21.7985C15.6165 21.6981 15.8361 21.551 16.021 21.3658C16.2059 21.1805 16.3525 20.9606 16.4524 20.7187C16.5523 20.4768 16.6036 20.2175 16.6033 19.9558C16.6035 19.694 16.5523 19.4349 16.4523 19.193C16.3523 18.951 16.2058 18.7312 16.0208 18.546C15.836 18.3608 15.6164 18.2138 15.3747 18.1134C15.133 18.013 14.8739 17.9612 14.6122 17.961H12.6211V19.9558C12.6208 20.2175 12.672 20.4768 12.7719 20.7187C12.8718 20.9606 13.0184 21.1805 13.2033 21.3658C13.3883 21.551 13.6078 21.6981 13.8496 21.7985C14.0913 21.8989 14.3504 21.9507 14.6122 21.951ZM14.6122 16.6306H19.9218C20.1835 16.6304 20.4426 16.5785 20.6843 16.4782C20.926 16.3778 21.1456 16.2308 21.3305 16.0455C21.5154 15.8603 21.662 15.6405 21.7619 15.3986C21.8618 15.1567 21.9132 14.8975 21.9129 14.6358C21.9132 14.374 21.8619 14.1148 21.762 13.8729C21.6621 13.6309 21.5155 13.411 21.3306 13.2258C21.1458 13.0405 20.9262 12.8935 20.6844 12.793C20.4427 12.6926 20.1836 12.6408 19.9218 12.6406H14.6122C14.3504 12.6408 14.0913 12.6926 13.8496 12.793C13.6078 12.8935 13.3883 13.0405 13.2033 13.2258C13.0184 13.411 12.8718 13.6309 12.7719 13.8729C12.672 14.1148 12.6208 14.374 12.6211 14.6358C12.6208 14.8975 12.6721 15.1567 12.7721 15.3986C12.872 15.6405 13.0186 15.8603 13.2035 16.0455C13.3883 16.2308 13.6079 16.3778 13.8497 16.4782C14.0913 16.5785 14.3504 16.6304 14.6122 16.6306Z" fill="#D8D8D8"/>
<path d="M2 14.7793C1.99976 15.0411 2.05107 15.3003 2.151 15.5422C2.25093 15.7841 2.39753 16.0039 2.58242 16.1892C2.76731 16.3744 2.98687 16.5214 3.22858 16.6218C3.47028 16.7222 3.72939 16.7739 3.99112 16.7742C4.25283 16.7739 4.51194 16.7222 4.75365 16.6218C4.99535 16.5214 5.21492 16.3744 5.39981 16.1892C5.5847 16.0039 5.7313 15.7841 5.83122 15.5422C5.93116 15.3003 5.98247 15.0411 5.98222 14.7793V12.7842H3.99112C3.72933 12.7844 3.47016 12.8363 3.22841 12.9367C2.98666 13.0371 2.76706 13.1842 2.58215 13.3695C2.39725 13.5548 2.25067 13.7748 2.15078 14.0167C2.0509 14.2587 1.99966 14.5175 2 14.7793ZM7.30963 14.7793V20.0993C7.30934 20.3611 7.36061 20.6203 7.46052 20.8623C7.56043 21.1043 7.70702 21.3241 7.89192 21.5094C8.07682 21.6947 8.29639 21.8417 8.53812 21.9421C8.77985 22.0425 9.03899 22.0943 9.30074 22.0946C9.56249 22.0943 9.82163 22.0425 10.0634 21.9421C10.3051 21.8417 10.5247 21.6947 10.7096 21.5094C10.8945 21.3241 11.0411 21.1043 11.141 20.8623C11.2408 20.6203 11.2922 20.3611 11.2918 20.0993V14.7798C11.2922 14.518 11.2408 14.2588 11.141 14.0168C11.0411 13.7749 10.8945 13.555 10.7096 13.3698C10.5247 13.1844 10.3051 13.0374 10.0634 12.937C9.82163 12.8366 9.56249 12.7848 9.30074 12.7846C9.03899 12.7848 8.77985 12.8366 8.53812 12.937C8.29639 13.0374 8.07682 13.1844 7.89192 13.3698C7.70702 13.555 7.56043 13.7749 7.46052 14.0168C7.36061 14.2588 7.30934 14.5176 7.30963 14.7793Z" fill="#D8D8D8"/>
</svg>
