<svg viewBox="0 0 65 64" xmlns="http://www.w3.org/2000/svg">
<path fill-rule="evenodd" clip-rule="evenodd" d="M36.0881 33.9421C35.1405 35.568 34.6667 37.7929 34.6667 40.6168V42.5422H65V60.6226C65 62.3848 63.5449 63.8133 61.75 63.8133H3.25C1.45508 63.8133 0 62.3848 0 60.6226V3.19067C0 1.42851 1.45507 1.54631e-07 3.25 1.54631e-07L41.9883 0C41.85 0.0802467 41.714 0.162764 41.5802 0.247552C39.0818 1.78787 37.3158 3.69188 36.282 5.95957C35.2482 8.18448 34.7313 10.4522 34.7313 12.7627C34.7313 13.2333 34.7528 13.6398 34.7959 13.9821H43.6478C43.6047 13.597 43.5832 13.0194 43.5832 12.2492C43.5832 11.4791 43.8416 10.5805 44.3585 9.55366C44.8754 8.52678 45.6723 7.64965 46.7492 6.92228C47.8691 6.15212 49.2691 5.76704 50.949 5.76704C53.0166 5.76704 54.5673 6.36605 55.6011 7.56408C56.6349 8.71932 57.1518 10.0885 57.1518 11.6716C57.1518 13.0836 56.8287 14.4527 56.1826 15.7791C55.5795 17.0627 54.4596 18.3249 52.8227 19.5657L40.2233 29.3853C38.4573 30.7545 37.0789 32.2734 36.0881 33.9421ZM62.9804 1.75818C63.0198 1.79546 63.059 1.83295 63.0978 1.87065C63.0592 1.83268 63.02 1.79518 62.9804 1.75818ZM65 19.2122C64.0129 20.8129 62.5383 22.4283 60.5762 24.0584C57.8625 26.326 54.5888 28.8932 50.7551 31.76C50.3244 32.1023 49.7859 32.5729 49.1398 33.1719C48.4937 33.7709 48.1706 34.156 48.1706 34.3272H65V19.2122Z" fill="#0C0C0C"/>
</svg>
