<svg viewBox="0 0 64 64" xmlns="http://www.w3.org/2000/svg">
<path fill-rule="evenodd" clip-rule="evenodd" d="M35.5329 34.0414C34.5999 35.672 34.1333 37.9035 34.1333 40.7356V42.6667H64V60.8C64 62.5673 62.5673 64 60.8 64H3.2C1.43269 64 0 62.5673 0 60.8V3.2C0 1.43269 1.43269 1.55084e-07 3.2 1.55084e-07L41.3423 0C41.2062 0.0804814 41.0722 0.16324 40.9405 0.248276C38.4806 1.7931 36.7417 3.70268 35.7238 5.97701C34.7059 8.20843 34.197 10.4828 34.197 12.8C34.197 13.272 34.2182 13.6797 34.2606 14.023H42.9763C42.9339 13.6368 42.9127 13.0575 42.9127 12.2851C42.9127 11.5126 43.1671 10.6115 43.6761 9.58161C44.185 8.55172 44.9697 7.67203 46.03 6.94253C47.1327 6.17012 48.5111 5.78391 50.1651 5.78391C52.2009 5.78391 53.7278 6.38468 54.7457 7.58621C55.7636 8.74483 56.2725 10.118 56.2725 11.7057C56.2725 13.1218 55.9544 14.495 55.3182 15.8253C54.7245 17.1126 53.6217 18.3785 52.0101 19.623L39.6045 29.4713C37.8656 30.8444 36.5084 32.3678 35.5329 34.0414ZM62.0115 1.76332C62.0503 1.80071 62.0888 1.83832 62.1271 1.87613C62.089 1.83805 62.0505 1.80044 62.0115 1.76332ZM64 19.2684C63.0281 20.8738 61.5762 22.4939 59.6443 24.1287C56.9723 26.4031 53.749 28.9778 49.9743 31.8529C49.5502 32.1962 49.02 32.6682 48.3838 33.269C47.7476 33.8697 47.4296 34.2559 47.4296 34.4276H64V19.2684Z" fill="#174EFF"/>
</svg>
