<svg viewBox="0 0 65 64" fill="none" xmlns="http://www.w3.org/2000/svg">
<path fill-rule="evenodd" clip-rule="evenodd" d="M36.0881 34.0414C35.1405 35.672 34.6667 37.9035 34.6667 40.7356V42.6667H65V60.8C65 62.5673 63.5449 64 61.75 64H3.25C1.45508 64 0 62.5673 0 60.8V3.2C0 1.43269 1.45507 1.55084e-07 3.25 1.55084e-07L41.9883 0C41.85 0.0804814 41.714 0.16324 41.5802 0.248276C39.0818 1.7931 37.3158 3.70268 36.282 5.97701C35.2482 8.20843 34.7313 10.4828 34.7313 12.8C34.7313 13.272 34.7528 13.6797 34.7959 14.023H43.6478C43.6047 13.6368 43.5832 13.0575 43.5832 12.2851C43.5832 11.5126 43.8416 10.6115 44.3585 9.58161C44.8754 8.55172 45.6723 7.67203 46.7492 6.94253C47.8691 6.17012 49.2691 5.78391 50.949 5.78391C53.0166 5.78391 54.5673 6.38468 55.6011 7.58621C56.6349 8.74483 57.1518 10.118 57.1518 11.7057C57.1518 13.1218 56.8287 14.495 56.1826 15.8253C55.5795 17.1126 54.4596 18.3785 52.8227 19.623L40.2233 29.4713C38.4573 30.8444 37.0789 32.3678 36.0881 34.0414ZM62.9804 1.76332C63.0198 1.80071 63.059 1.83832 63.0978 1.87613C63.0592 1.83805 63.02 1.80044 62.9804 1.76332ZM65 19.2684C64.0129 20.8738 62.5383 22.4939 60.5762 24.1287C57.8625 26.4031 54.5888 28.9778 50.7551 31.8529C50.3244 32.1962 49.7859 32.6682 49.1398 33.269C48.4937 33.8697 48.1706 34.2559 48.1706 34.4276H65V19.2684Z" fill="#D8D8D8"/>
</svg>
