<svg width="24" height="24" viewBox="0 0 24 24" fill="none" xmlns="http://www.w3.org/2000/svg">
<path fill-rule="evenodd" clip-rule="evenodd" d="M18.9811 16.1928L22.1316 17.4319C22.2864 17.4927 22.4091 17.6151 22.4701 17.7699C22.5766 18.0396 22.4742 18.3402 22.2405 18.4926L22.1325 18.5484L12.5347 22.3386C12.239 22.4554 11.9156 22.4746 11.6108 22.3963L11.4305 22.3377L1.87889 18.5479C1.72485 18.4869 1.60296 18.3648 1.54209 18.2106C1.4356 17.941 1.53804 17.6404 1.7718 17.488L1.87979 17.4322L5.01461 16.1943L10.6038 18.4126C11.4884 18.7636 12.4729 18.7645 13.3581 18.4149L18.9811 16.1928ZM18.9811 10.1653L22.1316 11.4043C22.2864 11.4652 22.4091 11.5876 22.4701 11.7424C22.5766 12.012 22.4742 12.3126 22.2405 12.4651L22.1325 12.5208L15.9001 14.9824L14.4285 15.5625L12.5347 16.3111L12.4755 16.329L12.3535 16.3698C12.3045 16.3822 12.2551 16.3923 12.2053 16.3996C12.1888 16.4019 12.1732 16.404 12.1576 16.4058C12.0381 16.4202 11.9163 16.4196 11.796 16.4044L11.6108 16.3689L11.4305 16.3102L9.5865 15.5775L8.0836 14.9824L1.87889 12.5205C1.72485 12.4593 1.60296 12.3372 1.54209 12.1831C1.4356 11.9134 1.53804 11.6129 1.7718 11.4604L1.87979 11.4047L5.01461 10.1668L10.6038 12.3852C11.4884 12.7362 12.4729 12.7369 13.3581 12.3874L18.9811 10.1653ZM11.4328 1.60483C11.786 1.46536 12.179 1.46504 12.5324 1.60396L22.1316 5.37678C22.2864 5.43763 22.4091 5.56006 22.4701 5.7148C22.5918 6.02301 22.4407 6.37153 22.1325 6.49326L15.9001 8.95482L12.5335 10.284L12.412 10.3259C12.3811 10.3351 12.3499 10.3434 12.3185 10.3505C12.1474 10.3901 11.9702 10.3989 11.796 10.3768L11.6108 10.3413L11.4305 10.2826L1.87889 6.4929C1.72485 6.43179 1.60296 6.30969 1.54209 6.15556C1.42039 5.84734 1.57158 5.49883 1.87979 5.37712L11.4328 1.60483Z" fill="#D8D8D8"/>
</svg>
