<svg width="72" height="85" viewBox="0 0 72 85" fill="none" xmlns="http://www.w3.org/2000/svg">
<g filter="url(#filter0_dd_202_439)">
<path d="M20 63.0603C20 60.2155 20.4665 57.9741 21.3996 56.3362C22.3751 54.6552 23.7323 53.125 25.4712 51.7457L37.8767 41.8534C39.4884 40.6034 40.5911 39.3319 41.1849 38.0388C41.8211 36.7026 42.1392 35.3233 42.1392 33.9009C42.1392 32.306 41.6302 30.9267 40.6123 29.7629C39.5944 28.556 38.0676 27.9526 36.0318 27.9526C34.3777 27.9526 32.9993 28.3405 31.8966 29.1164C30.8363 29.8491 30.0517 30.7328 29.5427 31.7672C29.0338 32.8017 28.7793 33.7069 28.7793 34.4828C28.7793 35.2586 28.8005 35.8405 28.8429 36.2284H20.1272C20.0848 35.8836 20.0636 35.4741 20.0636 35C20.0636 32.6724 20.5726 30.3879 21.5905 28.1466C22.6084 25.8621 24.3472 23.944 26.8072 22.3922C29.2671 20.7974 32.4904 20 36.4771 20H37.4314C40.4851 20 43.0934 20.6466 45.2565 21.9397C47.4619 23.2328 49.116 24.9353 50.2187 27.0474C51.3214 29.1164 51.8728 31.3362 51.8728 33.7069C51.8728 36.25 51.385 38.5129 50.4095 40.4957C49.4765 42.4353 47.8436 44.3966 45.5109 46.3793C42.839 48.6638 39.6156 51.25 35.841 54.1379C35.4168 54.4828 34.8867 54.9569 34.2505 55.5603C33.6143 56.1638 33.2962 56.5517 33.2962 56.7241H52V65H20V63.0603Z" fill="white"/>
</g>
<defs>
<filter id="filter0_dd_202_439" x="0" y="0" width="72" height="85" filterUnits="userSpaceOnUse" color-interpolation-filters="sRGB">
<feFlood flood-opacity="0" result="BackgroundImageFix"/>
<feColorMatrix in="SourceAlpha" type="matrix" values="0 0 0 0 0 0 0 0 0 0 0 0 0 0 0 0 0 0 127 0" result="hardAlpha"/>
<feOffset/>
<feGaussianBlur stdDeviation="10"/>
<feComposite in2="hardAlpha" operator="out"/>
<feColorMatrix type="matrix" values="0 0 0 0 1 0 0 0 0 1 0 0 0 0 1 0 0 0 1 0"/>
<feBlend mode="normal" in2="BackgroundImageFix" result="effect1_dropShadow_202_439"/>
<feColorMatrix in="SourceAlpha" type="matrix" values="0 0 0 0 0 0 0 0 0 0 0 0 0 0 0 0 0 0 127 0" result="hardAlpha"/>
<feOffset/>
<feGaussianBlur stdDeviation="1"/>
<feComposite in2="hardAlpha" operator="out"/>
<feColorMatrix type="matrix" values="0 0 0 0 0 0 0 0 0 0 0 0 0 0 0 0 0 0 0.2 0"/>
<feBlend mode="normal" in2="effect1_dropShadow_202_439" result="effect2_dropShadow_202_439"/>
<feBlend mode="normal" in="SourceGraphic" in2="effect2_dropShadow_202_439" result="shape"/>
</filter>
</defs>
</svg>
